SplineFontDB: 3.0
FontName: PasseroOne-Regular
FullName: Passero One
FamilyName: Passero One
Weight: Regular
Copyright: Copyright (c) 2011, Sorkin Type Co (www.sorkintype.com), with Reserved Font Names "Passero"
Version: 001.003
ItalicAngle: 0
UnderlinePosition: -103
UnderlineWidth: 102
Ascent: 1638
Descent: 410
LayerCount: 2
Layer: 0 1 "Back"  1
Layer: 1 1 "Fore"  0
NeedsXUIDChange: 1
XUID: [1021 288 713564382 7304581]
FSType: 0
OS2Version: 2
OS2_WeightWidthSlopeOnly: 0
OS2_UseTypoMetrics: 1
CreationTime: 1314383857
ModificationTime: 1314381051
PfmFamily: 81
TTFWeight: 400
TTFWidth: 5
LineGap: 0
VLineGap: 0
Panose: 2 11 6 3 5 3 2 2 1 4
OS2TypoAscent: 1820
OS2TypoAOffset: 0
OS2TypoDescent: -618
OS2TypoDOffset: 0
OS2TypoLinegap: 0
OS2WinAscent: 1820
OS2WinAOffset: 0
OS2WinDescent: 618
OS2WinDOffset: 0
HheadAscent: 1820
HheadAOffset: 0
HheadDescent: -618
HheadDOffset: 0
OS2SubXSize: 0
OS2SubYSize: 0
OS2SubXOff: 0
OS2SubYOff: 0
OS2SupXSize: 0
OS2SupYSize: 0
OS2SupXOff: 0
OS2SupYOff: 0
OS2StrikeYSize: 0
OS2StrikeYPos: 0
OS2Vendor: 'STC '
OS2CodePages: 20000111.40000000
OS2UnicodeRanges: 800000af.00000002.00000000.00000000
MarkAttachClasses: 1
DEI: 91125
TtTable: prep
PUSHW_1
 511
SCANCTRL
PUSHB_1
 4
SCANTYPE
EndTTInstrs

StartChar: .notdef
Encoding: 65536 -1 0
Width: 1710
Flags: HMW
HStem: -105 1506<832 958 958 977>
VStem: 139 1433<582 713>
LayerCount: 2
Fore
SplineSet
281 77 m 1,0,1
 222 161 222 161 180.5 334.5 c 128,-1,2
 139 508 139 508 139 626 c 0,3,4
 139 1002 139 1002 223 1155 c 1,5,6
 285 1254 285 1254 421 1318 c 0,7,8
 481 1347 481 1347 636.5 1374 c 128,-1,9
 792 1401 792 1401 919.5 1401 c 128,-1,10
 1047 1401 1047 1401 1172 1373 c 128,-1,11
 1297 1345 1297 1345 1361 1308 c 1,12,13
 1469 1233 1469 1233 1520.5 1085.5 c 128,-1,14
 1572 938 1572 938 1572 692 c 0,15,16
 1572 581 1572 581 1539.5 429.5 c 128,-1,17
 1507 278 1507 278 1450.5 144.5 c 128,-1,18
 1394 11 1394 11 1340 -28.5 c 0,19,20
 1242.68193649 -99.6863612702 1242.68193649 -99.6863612702 977 -105 c 1,21,-1
 958 -105 l 2,22,23
 736 -105 736 -105 558.5 -51 c 128,-1,24
 381 3 381 3 281 77 c 1,0,1
433 1013 m 1,25,26
 490.224712958 904.68179333 490.224712958 904.68179333 709 667 c 1,27,-1
 621 619 l 1,28,29
 566 546 566 546 513 425.5 c 128,-1,30
 460 305 460 305 443 187 c 1,31,-1
 675 153 l 1,32,33
 683 212 683 212 726.5 328.5 c 128,-1,34
 770 445 770 445 802 515 c 1,35,-1
 826 527 l 1,36,-1
 1083 99 l 1,37,-1
 1282 245 l 1,38,39
 1222.68181818 353.75 1222.68181818 353.75 987 613 c 1,40,-1
 1065 652 l 1,41,42
 1117 724 1117 724 1189 858.5 c 128,-1,43
 1261 993 1261 993 1278 1064 c 1,44,-1
 1049 1140 l 1,45,46
 1023 1061 1023 1061 895 761 c 1,47,-1
 876 751 l 1,48,-1
 632 1158 l 1,49,-1
 433 1013 l 1,25,26
EndSplineSet
EndChar

StartChar: exclam
Encoding: 33 33 2
Width: 600
Flags: HMW
HStem: -31 21G<389 389> -6 21G<166 166>
VStem: 182 240<129 256> 191 241
LayerCount: 2
Fore
SplineSet
196 460 m 1,0,-1
 186 1326 l 1,1,-1
 430 1371 l 1,2,-1
 434 1087 l 1,3,-1
 387 448 l 1,4,-1
 196 460 l 1,0,-1
166 -6 m 1,5,6
 173.191011236 60.5168539326 173.191011236 60.5168539326 177.095505618 148.758426966 c 128,-1,7
 181 237 181 237 182 256 c 1,8,-1
 411 268 l 1,9,10
 422 229 422 229 422 169.5 c 128,-1,11
 422 110 422 110 412 51 c 128,-1,12
 402 -8 402 -8 389 -31 c 1,13,-1
 166 -6 l 1,5,6
EndSplineSet
EndChar

StartChar: quotedbl
Encoding: 34 34 3
Width: 819
Flags: HMW
HStem: 1309 20G<313 313 702 702>
VStem: 94 634<1085.5 1292>
LayerCount: 2
Fore
SplineSet
526 793 m 1,0,1
 529 836 529 836 529 881 c 0,2,3
 529 1086 529 1086 483 1292 c 1,4,-1
 702 1329 l 1,5,6
 728 1252 728 1252 728 1119.5 c 0,7,8
 728 987 728 987 686 821 c 1,9,-1
 526 793 l 1,0,1
137 793 m 1,10,11
 140 836 140 836 140 881 c 0,12,13
 140 1086 140 1086 94 1292 c 1,14,-1
 313 1329 l 1,15,16
 339 1252 339 1252 339 1119.5 c 0,17,18
 339 987 339 987 297 821 c 1,19,-1
 137 793 l 1,10,11
EndSplineSet
EndChar

StartChar: numbersign
Encoding: 35 35 4
Width: 1294
Flags: HMW
HStem: -49 21G<354 354 774 774> -12 21G<211 211 630 630> 242 174<277 277 697 697> 247 169 644 175<383 383> 652 167
VStem: 73 1158<250 819>
LayerCount: 2
Fore
SplineSet
211 -12 m 1,0,-1
 277 242 l 1,1,2
 185 243 185 243 73 250 c 1,3,-1
 102 416 l 1,4,-1
 323 416 l 1,5,-1
 383 644 l 1,6,7
 265 646 265 646 151 653 c 1,8,-1
 178 819 l 1,9,-1
 429 819 l 1,10,-1
 516 1149 l 1,11,-1
 694 1110 l 1,12,-1
 611 819 l 1,13,-1
 849 819 l 1,14,-1
 936 1149 l 1,15,-1
 1114 1110 l 1,16,-1
 1031 819 l 1,17,-1
 1231 819 l 1,18,-1
 1212 662 l 1,19,20
 1131 658 1131 658 983 652 c 1,21,-1
 912 416 l 1,22,-1
 1153 416 l 1,23,-1
 1134 258 l 1,24,25
 973 250 973 250 862 247 c 1,26,-1
 774 -49 l 1,27,-1
 630 -12 l 1,28,-1
 697 242 l 1,29,30
 551 240 551 240 477 240 c 2,31,-1
 440 240 l 1,32,-1
 354 -49 l 1,33,-1
 211 -12 l 1,0,-1
492 416 m 1,34,-1
 743 416 l 1,35,-1
 803 646 l 1,36,37
 683 643 683 643 560 643 c 1,38,-1
 492 416 l 1,34,-1
EndSplineSet
EndChar

StartChar: dollar
Encoding: 36 36 5
Width: 833
Flags: HMW
HStem: -47 21G<287 287>
VStem: 84 662<160 802>
LayerCount: 2
Fore
SplineSet
112 -63 m 1,0,-1
 84 160 l 1,1,2
 368 179 368 179 497 197 c 1,3,-1
 504 319 l 1,4,-1
 153 457 l 2,5,6
 124 468 124 468 107 502 c 128,-1,7
 90 536 90 536 90 557 c 128,-1,8
 90 578 90 578 114 808 c 1,9,10
 124.533039648 895.775330396 124.533039648 895.775330396 231 935 c 0,11,12
 258 945 258 945 370 968 c 1,13,-1
 388 1278 l 1,14,-1
 582 1284 l 1,15,-1
 543 1002 l 1,16,17
 646 1023 646 1023 701 1032 c 1,18,-1
 746 802 l 1,19,-1
 327 752 l 1,20,-1
 311 651 l 1,21,-1
 680 479 l 2,22,23
 747 447 747 447 737 360 c 2,24,-1
 710 109 l 1,25,26
 701 35 701 35 585 6 c 0,27,28
 534 -7 534 -7 462 -20 c 1,29,-1
 445 -273 l 1,30,-1
 260 -257 l 1,31,-1
 287 -47 l 1,32,33
 180 -60 180 -60 112 -63 c 1,0,-1
EndSplineSet
EndChar

StartChar: percent
Encoding: 37 37 6
Width: 1510
Flags: HMW
HStem: -32 184<1067 1140.5 1067 1215.5> -15 21G<332 332> 378 184<1088.5 1150.5> 659 184<358 431.5 358 506.5> 1069 184<379.5 441.5>
VStem: 104 188<940 1013.5 940 1078> 515 191<917 1008> 813 188<249 322.5 249 387> 1224 191<226 317>
LayerCount: 2
Fore
SplineSet
332 -15 m 1,0,-1
 1005 1345 l 1,1,-1
 1203 1253 l 1,2,-1
 492 -92 l 1,3,-1
 332 -15 l 1,0,-1
628 756.5 m 128,-1,5
 550 659 550 659 408.5 659 c 128,-1,6
 267 659 267 659 185.5 749.5 c 128,-1,7
 104 840 104 840 104 978.5 c 128,-1,8
 104 1117 104 1117 189 1185 c 128,-1,9
 274 1253 274 1253 406 1253 c 128,-1,10
 538 1253 538 1253 622 1188.5 c 128,-1,11
 706 1124 706 1124 706 989 c 128,-1,4
 706 854 706 854 628 756.5 c 128,-1,5
399 843 m 0,12,13
 455 843 455 843 485 870 c 128,-1,14
 515 897 515 897 515 961 c 128,-1,15
 515 1025 515 1025 488.5 1047 c 128,-1,16
 462 1069 462 1069 410.5 1069 c 0,17,18
 292 1069 292 1069 292 979 c 0,19,20
 292 843 292 843 399 843 c 0,12,13
894.5 58.5 m 128,-1,22
 813 149 813 149 813 287.5 c 128,-1,23
 813 426 813 426 898 494 c 128,-1,24
 983 562 983 562 1115 562 c 128,-1,25
 1247 562 1247 562 1331 497.5 c 128,-1,26
 1415 433 1415 433 1415 298 c 128,-1,27
 1415 163 1415 163 1337 65.5 c 128,-1,28
 1259 -32 1259 -32 1117.5 -32 c 128,-1,21
 976 -32 976 -32 894.5 58.5 c 128,-1,22
1001 288 m 0,29,30
 1001 152 1001 152 1108 152 c 0,31,32
 1164 152 1164 152 1194 179 c 128,-1,33
 1224 206 1224 206 1224 270 c 128,-1,34
 1224 334 1224 334 1197.5 356 c 128,-1,35
 1171 378 1171 378 1119.5 378 c 0,36,37
 1001 378 1001 378 1001 288 c 0,29,30
EndSplineSet
EndChar

StartChar: ampersand
Encoding: 38 38 7
Width: 1203
Flags: HMW
HStem: -17 229<744.5 785> -6 21G<904 904> 1311 20G<727 757>
VStem: 178 922<413.5 540> 224 245
LayerCount: 2
Fore
SplineSet
222 158 m 0,0,1
 178 318 178 318 178 458 c 0,2,3
 178 486 178 486 233.5 555.5 c 128,-1,4
 289 625 289 625 373 667 c 1,5,-1
 373 692 l 1,6,7
 366 697 366 697 340 714 c 128,-1,8
 314 731 314 731 298.5 742 c 128,-1,9
 283 753 283 753 263.5 768.5 c 0,10,11
 224 799.897435897 224 799.897435897 224 820 c 0,12,13
 224 1004.36363636 224 1004.36363636 236.5 1061.18181818 c 0,14,15
 260.782846715 1171.55839416 260.782846715 1171.55839416 308 1198 c 1,16,17
 471 1300 471 1300 727 1331 c 1,18,19
 770 1331 770 1331 843 1283.5 c 128,-1,20
 916 1236 916 1236 929 1204 c 0,21,22
 980.6 1066.4 980.6 1066.4 999 933 c 1,23,-1
 759 872 l 1,24,25
 732 1021 732 1021 701 1097 c 1,26,-1
 492 1057 l 1,27,28
 471 974 471 974 469 852 c 1,29,30
 667 736 667 736 1100 540 c 1,31,-1
 981 326 l 1,32,33
 684 468 684 468 522 573 c 1,34,35
 496.068181818 543.363636364 496.068181818 543.363636364 463.034090909 494.681818182 c 128,-1,36
 430 446 430 446 424 439 c 1,37,38
 426.497685185 349.083333333 426.497685185 349.083333333 463 248 c 1,39,40
 505 234 505 234 610 223 c 128,-1,41
 715 212 715 212 787.5 212 c 128,-1,42
 860 212 860 212 919 215 c 1,43,-1
 904 -6 l 1,44,45
 833 -17 833 -17 724 -17 c 128,-1,46
 615 -17 615 -17 477.5 12 c 128,-1,47
 340 41 340 41 289.5 68.5 c 128,-1,48
 239 96 239 96 222 158 c 0,0,1
EndSplineSet
EndChar

StartChar: quoteright
Encoding: 8217 8217 8
Width: 520
Flags: HW
LayerCount: 2
Fore
SplineSet
155 786 m 1,0,1
 211.926618705 910.018705036 211.926618705 910.018705036 217 1047 c 1,2,-1
 141 1059 l 1,3,-1
 118 1292 l 1,4,-1
 389 1327 l 1,5,6
 418 1247 418 1247 418 1169 c 0,7,8
 418 932 418 932 295 762 c 1,9,-1
 291 762 l 1,10,-1
 155 786 l 1,0,1
EndSplineSet
EndChar

StartChar: parenleft
Encoding: 40 40 9
Width: 620
Flags: HMW
HStem: -483 2097<379 401>
VStem: 143 236<549 549>
LayerCount: 2
Fore
SplineSet
143 549 m 1,0,1
 157 1077 157 1077 401 1614 c 1,2,-1
 585 1542 l 1,3,4
 419 1083 419 1083 379 549 c 1,5,6
 379 287.516129032 379 287.516129032 436 54 c 0,7,8
 481.035287081 -130.499401914 481.035287081 -130.499401914 573 -410 c 1,9,-1
 379 -483 l 1,10,11
 257 -197 257 -197 208.5 40 c 128,-1,12
 160 277 160 277 143 549 c 1,0,1
EndSplineSet
EndChar

StartChar: parenright
Encoding: 41 41 10
Width: 641
Flags: HMW
HStem: -457 2097<209 231>
VStem: 231 242<608 608>
LayerCount: 2
Fore
SplineSet
25 -385 m 1,0,1
 191 74 191 74 231 608 c 1,2,3
 231 869.483870968 231 869.483870968 174 1103 c 0,4,5
 128.964712919 1287.49940191 128.964712919 1287.49940191 37 1567 c 1,6,-1
 231 1640 l 1,7,8
 357 1340 357 1340 412 1097 c 128,-1,9
 467 854 467 854 473 608 c 1,10,11
 448 74 448 74 209 -457 c 1,12,-1
 25 -385 l 1,0,1
EndSplineSet
EndChar

StartChar: asterisk
Encoding: 42 42 11
Width: 899
Flags: HMW
HStem: 1055 20G<119 119>
VStem: 60 789<1284 1339>
LayerCount: 2
Fore
SplineSet
294 922 m 1,0,-1
 119 1075 l 1,1,2
 253 1203 253 1203 357 1258 c 1,3,4
 175 1274 175 1274 60 1339 c 1,5,-1
 167 1551 l 1,6,7
 338 1429 338 1429 402 1372 c 1,8,9
 365 1491 365 1491 351 1680 c 1,10,-1
 606 1660 l 1,11,12
 573 1501 573 1501 506 1361 c 1,13,14
 632 1458 632 1458 772 1531 c 1,15,-1
 849 1284 l 1,16,17
 707 1258 707 1258 560 1258 c 1,18,19
 731 1128 731 1128 809 1050 c 1,20,-1
 596 917 l 1,21,22
 488 1094 488 1094 454 1184 c 1,23,24
 381 1030 381 1030 294 922 c 1,0,-1
EndSplineSet
EndChar

StartChar: plus
Encoding: 43 43 12
Width: 1155
Flags: HMW
HStem: -20 21G<483 483> -4 21G<678 678> 403 198 422 186
VStem: 475 225 482 204
LayerCount: 2
Fore
SplineSet
125 414 m 1,0,-1
 153 600 l 1,1,-1
 479 603 l 1,2,-1
 471 977 l 1,3,-1
 700 1022 l 1,4,-1
 700 799 l 1,5,-1
 694 606 l 1,6,-1
 1040 610 l 1,7,-1
 1030 422 l 1,8,9
 981 420 981 420 869 414.5 c 128,-1,10
 757 409 757 409 694 407 c 1,11,-1
 694 406 l 1,12,-1
 678 -4 l 1,13,-1
 483 -20 l 1,14,-1
 481 403 l 1,15,-1
 458 403 l 2,16,17
 302 403 302 403 125 414 c 1,0,-1
EndSplineSet
EndChar

StartChar: comma
Encoding: 44 44 13
Width: 483
Flags: HW
LayerCount: 2
Fore
SplineSet
116 -4 m 1,0,-1
 94 236 l 1,1,-1
 370 270 l 1,2,3
 398 206 398 206 398 90.5 c 0,4,5
 398 -25 398 -25 363.5 -117 c 128,-1,6
 329 -209 329 -209 241 -332 c 1,7,-1
 96 -322 l 1,8,9
 139 -249 139 -249 166.5 -162.5 c 128,-1,10
 194 -76 194 -76 194 -12 c 1,11,-1
 116 -4 l 1,0,-1
EndSplineSet
EndChar

StartChar: hyphen
Encoding: 45 45 14
Width: 943
Flags: HMW
HStem: 413 221
VStem: 125 703<424 639>
LayerCount: 2
Fore
SplineSet
125 424 m 1,0,-1
 153 629 l 1,1,-1
 828 639 l 1,2,-1
 818 432 l 1,3,4
 746 429 746 429 674 424 c 0,5,6
 515.6 413 515.6 413 420.8 413 c 128,-1,7
 326 413 326 413 295.5 413.5 c 128,-1,8
 265 414 265 414 250 415 c 128,-1,9
 235 416 235 416 198 419 c 128,-1,10
 161 422 161 422 125 424 c 1,0,-1
EndSplineSet
EndChar

StartChar: period
Encoding: 46 46 15
Width: 503
Flags: HMW
HStem: -25 21G<358 358> -2 21G<129 129>
VStem: 137 251<163.5 195.5 134 205.5>
LayerCount: 2
Fore
SplineSet
377 285 m 1,0,1
 388 244 388 244 388 134.884615385 c 128,-1,2
 388 25.7692307692 388 25.7692307692 358 -25 c 1,3,-1
 129 -2 l 1,4,5
 137 130 137 130 137 175 c 128,-1,6
 137 220 137 220 135 260 c 1,7,-1
 377 285 l 1,0,1
EndSplineSet
EndChar

StartChar: slash
Encoding: 47 47 16
Width: 759
Flags: HMW
HStem: 1313 20G<741 741>
VStem: 26 715
LayerCount: 2
Fore
SplineSet
26 -135 m 1,0,-1
 522 1393 l 1,1,-1
 741 1333 l 1,2,-1
 217 -174 l 1,3,-1
 26 -135 l 1,0,-1
EndSplineSet
EndChar

StartChar: zero
Encoding: 48 48 17
Width: 1077
Flags: HMW
HStem: -31 213<498.5 535.5> 797 231<774 854.5>
VStem: 141 252<494.5 667.5> 670 242
LayerCount: 2
Fore
SplineSet
235.5 25.5 m 128,-1,1
 209 55 209 55 188 163.5 c 128,-1,2
 167 272 167 272 154 411.5 c 128,-1,3
 141 551 141 551 141 648.5 c 128,-1,4
 141 746 141 746 154 824 c 128,-1,5
 167 902 167 902 188 926 c 128,-1,6
 209 950 209 950 264 963 c 0,7,8
 553 1028 553 1028 874 1028 c 1,9,-1
 907 1026 l 1,10,-1
 925 795 l 1,11,12
 893 797 893 797 801.5 797 c 128,-1,13
 710 797 710 797 581.5 783.5 c 128,-1,14
 453 770 453 770 407 756 c 1,15,16
 393 647 393 647 393 488 c 128,-1,17
 393 329 393 329 430 182 c 1,18,-1
 624 182 l 1,19,20
 655 328 655 328 669 582 c 1,21,-1
 672 641 l 1,22,-1
 911 674 l 1,23,24
 913 630 913 630 913 552.5 c 128,-1,25
 913 475 913 475 892 333 c 128,-1,26
 871 191 871 191 857 143.5 c 128,-1,27
 843 96 843 96 837 75 c 128,-1,28
 831 54 831 54 827.5 45.5 c 128,-1,29
 824 37 824 37 817 23 c 0,30,31
 805.217391304 -0.565217391304 805.217391304 -0.565217391304 761.108695652 -15.7826086957 c 128,-1,32
 717 -31 717 -31 580 -31 c 128,-1,33
 443 -31 443 -31 352.5 -17.5 c 128,-1,0
 262 -4 262 -4 235.5 25.5 c 128,-1,1
EndSplineSet
EndChar

StartChar: one
Encoding: 49 49 18
Width: 853
Flags: HMW
HStem: -4 21G<123 123>
VStem: 338 249<651 840 768 1001 768 1001>
LayerCount: 2
Fore
SplineSet
123 -4 m 1,0,-1
 143 186 l 1,1,-1
 348 176 l 1,2,-1
 338 651 l 1,3,4
 184 651 184 651 94 666 c 1,5,-1
 139 895 l 1,6,-1
 338 856 l 1,7,-1
 338 1001 l 1,8,-1
 571 1032 l 1,9,10
 587 956 587 956 587 832 c 0,11,12
 587 708 587 708 583 649 c 2,13,-1
 551 166 l 1,14,-1
 755 156 l 1,15,-1
 739 -59 l 1,16,17
 377 -47 377 -47 123 -4 c 1,0,-1
EndSplineSet
EndChar

StartChar: two
Encoding: 50 50 19
Width: 960
Flags: HW
LayerCount: 2
Fore
SplineSet
794 -63 m 1,0,1
 405.274477673 -44.8140106514 405.274477673 -44.8140106514 131 57 c 1,2,3
 122 122 122 122 122 216 c 128,-1,4
 122 310 122 310 141 418 c 1,5,6
 240 449 240 449 370 512.5 c 128,-1,7
 500 576 500 576 567 627 c 1,8,-1
 563 713 l 1,9,10
 392.630331754 771.28436019 392.630331754 771.28436019 145 801 c 1,11,-1
 213 1026 l 1,12,-1
 258 1019 l 1,13,14
 556.857883817 973.794605809 556.857883817 973.794605809 729 912 c 0,15,16
 783 893 783 893 796 825 c 1,17,18
 814 760 814 760 814 671.5 c 128,-1,19
 814 583 814 583 808.5 545 c 128,-1,20
 803 507 803 507 796 497.5 c 0,21,22
 787.824427481 486.404580153 787.824427481 486.404580153 740.41221374 452.702290076 c 128,-1,23
 693 419 693 419 573 371 c 128,-1,24
 453 323 453 323 351 297 c 1,25,-1
 345 221 l 1,26,27
 405 206 405 206 558.5 190.5 c 128,-1,28
 712 175 712 175 831 170 c 1,29,-1
 794 -63 l 1,0,1
EndSplineSet
EndChar

StartChar: three
Encoding: 51 51 20
Width: 950
Flags: HMW
HStem: -348 1374<160 205>
VStem: 69 740<-143 190> 516 237<616 698.5> 556 253<146.5 165.5>
LayerCount: 2
Fore
SplineSet
69 -143 m 1,0,1
 347.03030303 -13.2525252525 347.03030303 -13.2525252525 427.515151515 35.3737373737 c 128,-1,2
 508 84 508 84 553 115 c 1,3,4
 556 133 556 133 556 161.5 c 128,-1,5
 556 190 556 190 547 219 c 1,6,-1
 391 315 l 1,7,8
 300 265 300 265 207 221 c 1,9,-1
 108 428 l 1,10,11
 122 434 122 434 178 457 c 128,-1,12
 234 480 234 480 261.5 492 c 128,-1,13
 289 504 289 504 337.5 525.5 c 0,14,15
 433.657986111 568.126736111 433.657986111 568.126736111 516 616 c 1,16,17
 516 658 516 658 506 709 c 1,18,19
 389 752 389 752 155 787 c 2,20,-1
 88 797 l 1,21,-1
 160 1026 l 1,22,23
 511 963 511 963 680 895 c 1,24,25
 709 881 709 881 720.5 860 c 0,26,27
 753 800.652173913 753 800.652173913 753 705.326086957 c 128,-1,28
 753 610 753 610 743 526 c 1,29,30
 726 516 726 516 691 494.5 c 0,31,32
 616 448.428571429 616 448.428571429 577 428 c 1,33,-1
 575 412 l 1,34,-1
 729 358 l 1,35,36
 786.953488372 333.162790698 786.953488372 333.162790698 799.5 268.5 c 0,37,38
 809 219.538461538 809 219.538461538 809 163.269230769 c 0,39,40
 809 60.4 809 60.4 788 31 c 1,41,42
 690 -73 690 -73 501 -188.5 c 128,-1,43
 312 -304 312 -304 205 -348 c 1,44,-1
 69 -143 l 1,0,1
EndSplineSet
EndChar

StartChar: four
Encoding: 52 52 21
Width: 1085
Flags: HMW
HStem: 4 221<961.5 1016>
VStem: 585 216 596 237
LayerCount: 2
Fore
SplineSet
82 111 m 1,0,-1
 78 268 l 1,1,2
 164 537 164 537 223 838 c 2,3,-1
 258 1016 l 1,4,-1
 489 981 l 1,5,6
 489 837 489 837 399 557 c 2,7,-1
 309 279 l 1,8,9
 355 267 355 267 592 247 c 1,10,-1
 600 674 l 1,11,-1
 833 713 l 1,12,13
 839 672 839 672 839 578.5 c 0,14,15
 839 485 839 485 833 393 c 2,16,-1
 823 232 l 1,17,18
 954 225 954 225 1016 225 c 1,19,-1
 989 4 l 1,20,21
 936 4 936 4 810 10 c 1,22,-1
 794 -262 l 1,23,-1
 583 -283 l 1,24,-1
 588 28 l 1,25,26
 249 62 249 62 82 111 c 1,0,-1
EndSplineSet
EndChar

StartChar: five
Encoding: 53 53 22
Width: 901
Flags: HMW
HStem: 791 235<618 647>
VStem: 526 246<175 197 110 205.5>
LayerCount: 2
Fore
SplineSet
55 -131 m 1,0,1
 80 -119 80 -119 164.5 -80.5 c 128,-1,2
 249 -42 249 -42 291 -21.5 c 0,3,4
 421.791946309 42.3389261745 421.791946309 42.3389261745 522 111 c 1,5,6
 526 147 526 147 526 201 c 128,-1,7
 526 255 526 255 512 266 c 0,8,9
 475.657314629 292.651302605 475.657314629 292.651302605 369.328657315 322.825651303 c 0,10,11
 190.897435897 373.461538462 190.897435897 373.461538462 116 393 c 1,12,-1
 149 956 l 1,13,14
 454 1026 454 1026 702 1026 c 1,15,-1
 745 1024 l 1,16,-1
 755 788 l 1,17,18
 733 791 733 791 605.5 791 c 128,-1,19
 478 791 478 791 366 771 c 1,20,-1
 341 554 l 1,21,22
 528 518 528 518 692 452 c 0,23,24
 738 433 738 433 751 379 c 0,25,26
 772 293 772 293 772 204 c 0,27,28
 772 73.3333333333 772 73.3333333333 753 29 c 1,29,30
 664 -68 664 -68 465 -190.5 c 128,-1,31
 266 -313 266 -313 166 -350 c 1,32,-1
 55 -131 l 1,0,1
EndSplineSet
EndChar

StartChar: six
Encoding: 54 54 23
Width: 1003
Flags: HMW
HStem: -31 216
VStem: 108 248<461.5 713 461.5 787.5> 661 242<384 455.5>
LayerCount: 2
Fore
SplineSet
465 -31 m 0,0,1
 226.033333333 -31 226.033333333 -31 184.516666667 63.5 c 128,-1,2
 143 158 143 158 125.5 342 c 128,-1,3
 108 526 108 526 108 686 c 2,4,-1
 108 713 l 2,5,6
 108 819.45 108 819.45 264 993 c 0,7,8
 391.876787679 1135.26292629 391.876787679 1135.26292629 614 1341 c 1,9,-1
 774 1174 l 1,10,11
 753 1154 753 1154 696.5 1100.5 c 128,-1,12
 640 1047 640 1047 620.5 1028 c 128,-1,13
 601 1009 601 1009 558 967 c 128,-1,14
 515 925 515 925 490 899.5 c 0,15,16
 429.908256881 838.206422018 429.908256881 838.206422018 364 762 c 1,17,18
 356 702 356 702 356 500 c 128,-1,19
 356 298 356 298 393 180 c 1,20,-1
 620 190 l 1,21,22
 661 286 661 286 661 432 c 1,23,-1
 657 512 l 1,24,25
 602 536 602 536 436 569 c 1,26,-1
 502 788 l 1,27,28
 589 772 589 772 698.5 736 c 128,-1,29
 808 700 808 700 845 674 c 128,-1,30
 882 648 882 648 892.5 603 c 128,-1,31
 903 558 903 558 903 453.5 c 128,-1,32
 903 349 903 349 870 214 c 128,-1,33
 837 79 837 79 811 35 c 1,34,35
 781 -7 781 -7 717 -19 c 128,-1,36
 653 -31 653 -31 465 -31 c 0,0,1
EndSplineSet
EndChar

StartChar: seven
Encoding: 55 55 24
Width: 831
Flags: HMW
HStem: -266 1292<92 383>
VStem: 45 692<715 797>
LayerCount: 2
Fore
SplineSet
153 -223 m 1,0,1
 200 -8 200 -8 242.5 154 c 0,2,3
 285 316 285 316 387 504 c 1,4,-1
 510 727 l 1,5,-1
 504 756 l 1,6,7
 357 780 357 780 45 797 c 1,8,-1
 92 1026 l 1,9,10
 297 1007 297 1007 440 990 c 0,11,12
 583 973 583 973 710 938 c 1,13,-1
 737 715 l 1,14,-1
 516 266 l 1,15,-1
 383 -266 l 1,16,-1
 153 -223 l 1,0,1
EndSplineSet
EndChar

StartChar: eight
Encoding: 56 56 25
Width: 1069
Flags: HW
LayerCount: 2
Fore
SplineSet
649 853 m 2,0,-1
 646 946 l 1,1,-1
 875 971 l 1,2,3
 865.301587302 786.73015873 865.301587302 786.73015873 852.650793651 743.865079365 c 128,-1,4
 840 701 840 701 801 676 c 2,5,-1
 686 602 l 1,6,7
 819 508 819 508 837 495 c 0,8,9
 914 439 914 439 914 371 c 128,-1,10
 914 303 914 303 888.5 176 c 128,-1,11
 863 49 863 49 816 0 c 1,12,13
 794 -14 794 -14 719.5 -22.5 c 128,-1,14
 645 -31 645 -31 588 -31 c 2,15,-1
 541 -31 l 2,16,17
 384 -31 384 -31 261 2 c 0,18,19
 199 18 199 18 185 82 c 1,20,21
 149 210 149 210 149 324 c 128,-1,22
 149 438 149 438 204 477 c 2,23,-1
 343 575 l 1,24,-1
 228 651 l 2,25,26
 176 685 176 685 160 711.5 c 128,-1,27
 144 738 144 738 144 820.5 c 128,-1,28
 144 903 144 903 156.5 1016 c 128,-1,29
 169 1129 169 1129 191.5 1165 c 128,-1,30
 214 1201 214 1201 296.5 1225 c 128,-1,31
 379 1249 379 1249 546.5 1273.5 c 128,-1,32
 714 1298 714 1298 855 1298 c 1,33,-1
 885 1296 l 1,34,-1
 910 1067 l 1,35,-1
 822 1063 l 2,36,37
 468 1047 468 1047 388 1020 c 1,38,39
 374 936 374 936 374 861 c 2,40,-1
 374 844 l 1,41,42
 427 790 427 790 551 696 c 1,43,-1
 646 797 l 1,44,45
 649 824 649 824 649 853 c 2,0,-1
400 197 m 1,46,47
 471 181 471 181 548.5 181 c 128,-1,48
 626 181 626 181 650 184 c 1,49,50
 672 276 672 276 672 356 c 2,51,-1
 672 367 l 1,52,-1
 502 489 l 1,53,-1
 384 375 l 1,54,55
 384 279 384 279 400 197 c 1,46,47
EndSplineSet
EndChar

StartChar: nine
Encoding: 57 57 26
Width: 1038
Flags: HMW
HStem: 803 223<531 720.5>
VStem: 106 238<614.5 673.5 614.5 711> 659 242<560.5 568>
LayerCount: 2
Fore
SplineSet
633 801 m 1,0,-1
 567 803 l 1,1,2
 441 803 441 803 360 780 c 1,3,4
 344 705 344 705 344 628 c 128,-1,5
 344 551 344 551 358 451 c 1,6,7
 410 429 410 429 551 401 c 1,8,-1
 483 184 l 1,9,10
 284.618618619 222.396396396 284.618618619 222.396396396 184 291 c 0,11,12
 156 310 156 310 143 356 c 0,13,14
 106 486 106 486 106 613.5 c 0,15,16
 106 852.476190476 106 852.476190476 149 918 c 1,17,18
 175 960 175 960 236.5 980 c 128,-1,19
 298 1000 298 1000 433 1013 c 128,-1,20
 568 1026 568 1026 661.5 1026 c 128,-1,21
 755 1026 755 1026 796.5 1010 c 128,-1,22
 838 994 838 994 858 940 c 0,23,24
 901 821 901 821 901 638.5 c 128,-1,25
 901 456 901 456 884 301 c 1,26,27
 864 97 864 97 372 -346 c 1,28,-1
 200 -193 l 1,29,30
 442 26 442 26 636 267 c 1,31,32
 659 386 659 386 659 524.5 c 128,-1,33
 659 663 659 663 633 801 c 1,0,-1
EndSplineSet
EndChar

StartChar: colon
Encoding: 58 58 27
Width: 501
Flags: HMW
HStem: -45 21G<362 362> -23 21G<123 123>
VStem: 125 268 133 260<153.5 183 119.5 196.5>
LayerCount: 2
Fore
SplineSet
135 743 m 1,0,-1
 116 1012 l 1,1,-1
 370 1042 l 1,2,3
 394 962 394 962 394 885 c 128,-1,4
 394 808 394 808 381 737 c 1,5,-1
 135 743 l 1,0,-1
381 276 m 1,6,7
 393 235 393 235 393 122.423076923 c 128,-1,8
 393 9.84615384615 393 9.84615384615 362 -45 c 1,9,-1
 123 -23 l 1,10,11
 133 95 133 95 133 152.5 c 128,-1,12
 133 210 133 210 131 250 c 1,13,-1
 381 276 l 1,6,7
EndSplineSet
EndChar

StartChar: semicolon
Encoding: 59 59 28
Width: 557
Flags: HMW
HStem: -12 21G<235 235>
VStem: 131 257
LayerCount: 2
Fore
SplineSet
139 733 m 1,0,-1
 123 991 l 1,1,-1
 366 1022 l 1,2,3
 388 946 388 946 388 869.5 c 0,4,5
 388 793 388 793 377 729 c 1,6,-1
 139 733 l 1,0,-1
157 -4 m 1,7,-1
 135 236 l 1,8,-1
 411 270 l 1,9,10
 439 206 439 206 439 90.5 c 0,11,12
 439 -25 439 -25 404.5 -117 c 128,-1,13
 370 -209 370 -209 282 -332 c 1,14,-1
 137 -322 l 1,15,16
 180 -249 180 -249 207.5 -162.5 c 128,-1,17
 235 -76 235 -76 235 -12 c 1,18,-1
 157 -4 l 1,7,-1
EndSplineSet
EndChar

StartChar: less
Encoding: 60 60 29
Width: 1050
Flags: HMW
HStem: -18 21G<778 778>
VStem: 106 793<152 430>
LayerCount: 2
Fore
SplineSet
106 430 m 1,0,-1
 147 602 l 1,1,-1
 782 1038 l 1,2,-1
 899 877 l 1,3,-1
 346 504 l 1,4,-1
 899 152 l 1,5,-1
 778 -18 l 1,6,-1
 106 430 l 1,0,-1
EndSplineSet
EndChar

StartChar: equal
Encoding: 61 61 30
Width: 1104
Flags: HMW
HStem: 242 194<464.5 596.5> 637 190<516.5 650.5>
VStem: 176 762<250 436 436 643>
LayerCount: 2
Fore
SplineSet
176 643 m 1,0,-1
 215 827 l 1,1,-1
 938 827 l 1,2,-1
 923 647 l 1,3,4
 798 637 798 637 554.5 637 c 0,5,6
 311 637 311 637 176 643 c 1,0,-1
176 250 m 1,7,-1
 215 436 l 1,8,-1
 938 436 l 1,9,-1
 923 256 l 1,10,11
 720 242 720 242 526 242 c 0,12,13
 332 242 332 242 176 250 c 1,7,-1
EndSplineSet
EndChar

StartChar: greater
Encoding: 62 62 31
Width: 1050
Flags: HMW
HStem: -28 21G<254 254>
VStem: 137 793<133 580 580 858>
LayerCount: 2
Fore
SplineSet
137 133 m 1,0,-1
 690 506 l 1,1,-1
 137 858 l 1,2,-1
 258 1028 l 1,3,-1
 930 580 l 1,4,-1
 889 408 l 1,5,-1
 254 -28 l 1,6,-1
 137 133 l 1,0,-1
EndSplineSet
EndChar

StartChar: question
Encoding: 63 63 32
Width: 780
Flags: HMW
HStem: -16 21G<157 157>
VStem: 157 230<-25 30> 446 226<755.5 904>
LayerCount: 2
Fore
SplineSet
161 453 m 1,0,1
 154 489 154 489 154 521 c 128,-1,2
 154 553 154 553 168.5 574 c 0,3,4
 183 595 183 595 231 636.5 c 128,-1,5
 279 678 279 678 347 730.5 c 128,-1,6
 415 783 415 783 442 807 c 1,7,8
 446 851 446 851 446 910.5 c 0,9,10
 446 970 446 970 428 1068 c 1,11,12
 274 1086 274 1086 74 1137 c 1,13,-1
 107 1380 l 1,14,-1
 638 1277 l 1,15,16
 695 1268 695 1268 692 1207 c 2,17,-1
 672 768 l 1,18,19
 672 740 672 740 633 707 c 2,20,-1
 386 501 l 1,21,22
 365 480 365 480 365 417 c 1,23,-1
 161 453 l 1,0,1
157 -16 m 1,24,25
 157 156 157 156 147 246 c 1,26,-1
 387 285 l 1,27,28
 407 226 407 226 407 119.5 c 0,29,30
 407 13 407 13 387 -25 c 1,31,-1
 157 -16 l 1,24,25
EndSplineSet
EndChar

StartChar: at
Encoding: 64 64 33
Width: 1775
Flags: HMW
HStem: -2 201<1371.5 1398 1371.5 1412.5> 1155 211<869.5 1006.5>
VStem: 114 228<435 604 435 651.5> 542 230<391 498 391 517> 1019 218 1460 211<563.5 691.5>
LayerCount: 2
Fore
SplineSet
258 -174 m 1,0,1
 197 -89 197 -89 155.5 114 c 128,-1,2
 114 317 114 317 114 514.5 c 128,-1,3
 114 712 114 712 145.5 842 c 128,-1,4
 177 972 177 972 238.5 1074 c 128,-1,5
 300 1176 300 1176 416.5 1243.5 c 0,6,7
 627.925925926 1366 627.925925926 1366 930 1366 c 0,8,9
 1092 1366 1092 1366 1236.5 1325.5 c 128,-1,10
 1381 1285 1381 1285 1456 1239 c 0,11,12
 1671 1109 1671 1109 1671 621 c 0,13,14
 1671 504.421052632 1671 504.421052632 1645 379.210526316 c 0,15,16
 1595.68907563 141.739495798 1595.68907563 141.739495798 1460 2 c 1,17,18
 1436 -2 1436 -2 1367.5 -2 c 128,-1,19
 1299 -2 1299 -2 1186 33 c 128,-1,20
 1073 68 1073 68 1026 115 c 1,21,-1
 1022 176 l 1,22,-1
 1016 770 l 1,23,-1
 813 754 l 1,24,25
 772 669.842105263 772 669.842105263 772 479.421052632 c 128,-1,26
 772 289 772 289 794 217 c 1,27,-1
 973 186 l 1,28,-1
 911 -27 l 1,29,-1
 633 41 l 1,30,31
 597 51 597 51 578 126 c 1,32,33
 542 259 542 259 542 481 c 128,-1,34
 542 703 542 703 614 887 c 1,35,36
 634.64957265 943.786324786 634.64957265 943.786324786 659 946 c 2,37,-1
 940 981 l 1,38,-1
 1028 891 l 1,39,-1
 1071 987 l 1,40,-1
 1241 987 l 1,41,-1
 1233 594 l 1,42,-1
 1214 221 l 1,43,44
 1276 199 1276 199 1398 199 c 1,45,46
 1425 278 1425 278 1442.5 399 c 128,-1,47
 1460 520 1460 520 1460 628.5 c 128,-1,48
 1460 737 1460 737 1428.5 874.5 c 128,-1,49
 1397 1012 1397 1012 1345 1075 c 1,50,51
 1269 1108 1269 1108 1153.5 1131.5 c 128,-1,52
 1038 1155 1038 1155 932 1155 c 128,-1,53
 826 1155 826 1155 689 1130.5 c 128,-1,54
 552 1106 552 1106 461 1063 c 1,55,56
 414 995 414 995 378 824.5 c 128,-1,57
 342 654 342 654 342 511 c 128,-1,58
 342 368 342 368 364 206 c 128,-1,59
 386 44 386 44 432 -31 c 1,60,61
 518 -89 518 -89 735 -149.5 c 128,-1,62
 952 -210 952 -210 1151 -238 c 1,63,-1
 1108 -453 l 1,64,65
 903 -423 903 -423 658.5 -347.5 c 128,-1,66
 414 -272 414 -272 258 -174 c 1,0,1
EndSplineSet
EndChar

StartChar: A
Encoding: 65 65 34
Width: 1157
Flags: HMW
HStem: -16 21G<323 323> 331 213
VStem: 85 1010<10 37>
LayerCount: 2
Fore
SplineSet
85 37 m 1,0,-1
 202 557 l 1,1,-1
 338 1237 l 1,2,3
 577 1279 577 1279 815 1298 c 1,4,-1
 973 612 l 1,5,-1
 1095 10 l 1,6,-1
 852 -29 l 1,7,8
 834 72 834 72 798 266.5 c 128,-1,9
 762 461 762 461 745 561 c 1,10,-1
 641 1059 l 1,11,12
 582 1059 582 1059 522 1040 c 1,13,-1
 436 547 l 1,14,-1
 694 541 l 1,15,-1
 663 332 l 1,16,17
 649 331 649 331 587.5 331 c 0,18,19
 526 331 526 331 399 354 c 1,20,-1
 323 -16 l 1,21,-1
 85 37 l 1,0,-1
EndSplineSet
EndChar

StartChar: B
Encoding: 66 66 35
Width: 1115
Flags: HMW
HStem: -41 21G<204 204> 1075 238<99 99 99 166>
VStem: 189 236 730 242<356 393.5 309.5 409.5>
LayerCount: 2
Fore
SplineSet
204 -41 m 1,0,-1
 175 932 l 1,1,-1
 409 973 l 1,2,-1
 415 784 l 1,3,-1
 415 670 l 1,4,-1
 704 723 l 1,5,6
 765 820 765 820 765 944 c 0,7,8
 765 978 765 978 759 1006 c 1,9,10
 516 1075 516 1075 63 1075 c 1,11,-1
 99 1313 l 1,12,13
 535 1309 535 1309 861 1239 c 0,14,15
 907 1229 907 1229 963 1139.5 c 128,-1,16
 1019 1050 1019 1050 1019 1000 c 128,-1,17
 1019 950 1019 950 997.5 859.5 c 128,-1,18
 976 769 976 769 938 690 c 0,19,20
 924 663 924 663 883 644 c 128,-1,21
 842 625 842 625 761 600 c 1,22,-1
 759 592 l 1,23,-1
 958 502 l 1,24,25
 972 439 972 439 972 373 c 0,26,27
 972 211 972 211 898 74 c 0,28,29
 884 47 884 47 827 28.5 c 128,-1,30
 770 10 770 10 548.5 -13.5 c 128,-1,31
 327 -37 327 -37 204 -41 c 1,0,-1
429 170 m 1,32,33
 611 186 611 186 699 213 c 1,34,35
 701 220 701 220 703 226.5 c 128,-1,36
 705 233 705 233 707 242 c 128,-1,37
 709 251 709 251 711.5 262.5 c 128,-1,38
 714 274 714 274 717 286.5 c 128,-1,39
 720 299 720 299 722 313 c 128,-1,40
 724 327 724 327 726 340 c 0,41,42
 730 366 730 366 730 416.5 c 128,-1,43
 730 467 730 467 710 483 c 1,44,-1
 423 512 l 1,45,-1
 429 170 l 1,32,33
EndSplineSet
EndChar

StartChar: C
Encoding: 67 67 36
Width: 876
Flags: HMW
HStem: -51 21G<739 739> 1302 20G<760 760>
VStem: 113 254<590 729 590 748.5>
LayerCount: 2
Fore
SplineSet
452 12 m 128,-1,1
 278 55 278 55 237.5 70 c 128,-1,2
 197 85 197 85 182.5 107 c 128,-1,3
 168 129 168 129 157 180 c 0,4,5
 113 385 113 385 113 670 c 0,6,7
 113 786 113 786 123.5 906 c 128,-1,8
 134 1026 134 1026 144.5 1059 c 128,-1,9
 155 1092 155 1092 160.5 1104.5 c 128,-1,10
 166 1117 166 1117 184 1135.5 c 128,-1,11
 202 1154 202 1154 252.5 1174.5 c 128,-1,12
 303 1195 303 1195 481 1247.5 c 128,-1,13
 659 1300 659 1300 760 1322 c 1,14,-1
 814 1079 l 1,15,16
 767 1068 767 1068 597 1036 c 128,-1,17
 427 1004 427 1004 395 995 c 1,18,19
 367 877 367 877 367 640 c 128,-1,20
 367 403 367 403 401 260 c 1,21,22
 537 227 537 227 795 180 c 1,23,-1
 739 -51 l 1,24,0
 626 -31 626 -31 452 12 c 128,-1,1
EndSplineSet
EndChar

StartChar: D
Encoding: 68 68 37
Width: 1144
Flags: HMW
HStem: -18 21G<186 186> 1081 242<55 121 55 121>
VStem: 186 240 783 253<756.5 870>
LayerCount: 2
Fore
SplineSet
416 209 m 1,0,-1
 437 211 l 1,1,2
 629.008645533 236.213256484 629.008645533 236.213256484 717 264 c 1,3,4
 783 539 783 539 783 836 c 0,5,6
 783 948 783 948 772 1030 c 1,7,8
 669 1049 669 1049 466.5 1065 c 128,-1,9
 264 1081 264 1081 82 1081 c 2,10,-1
 55 1081 l 1,11,-1
 100 1323 l 1,12,-1
 121 1323 l 2,13,14
 314 1323 314 1323 542.5 1299 c 128,-1,15
 771 1275 771 1275 872 1237 c 1,16,17
 907 1225 907 1225 966 1153.5 c 128,-1,18
 1025 1082 1025 1082 1028 1047 c 0,19,20
 1036 967 1036 967 1036 827 c 128,-1,21
 1036 687 1036 687 1003.5 479 c 128,-1,22
 971 271 971 271 915 133 c 0,23,24
 903 102 903 102 888.5 88 c 128,-1,25
 874 74 874 74 804.5 52 c 0,26,27
 659.644959099 6.14660575799 659.644959099 6.14660575799 186 -18 c 1,28,-1
 186 940 l 1,29,-1
 432 993 l 1,30,-1
 436 778 l 1,31,-1
 416 209 l 1,0,-1
EndSplineSet
EndChar

StartChar: E
Encoding: 69 69 38
Width: 970
Flags: HMW
HStem: 515 219 1297 20G<827 827>
VStem: 161 229
LayerCount: 2
Fore
SplineSet
387 223 m 1,0,1
 465.765306122 209.448979592 465.765306122 209.448979592 872 150 c 1,2,-1
 819 -68 l 1,3,4
 564.333333333 -36.1666666667 564.333333333 -36.1666666667 485.166666667 -21.5833333333 c 128,-1,5
 406 -7 406 -7 351 3 c 0,6,7
 235.11627907 24.0697674419 235.11627907 24.0697674419 168 43 c 1,8,-1
 155 1196 l 1,9,10
 260 1224 260 1224 460.5 1262 c 128,-1,11
 661 1300 661 1300 827 1317 c 1,12,-1
 862 1079 l 1,13,-1
 383 1024 l 1,14,-1
 393 725 l 1,15,-1
 823 743 l 1,16,-1
 807 508 l 1,17,-1
 395 522 l 1,18,-1
 387 223 l 1,0,1
EndSplineSet
EndChar

StartChar: F
Encoding: 70 70 39
Width: 880
Flags: HMW
HStem: -18 21G<178 178> 492 224
VStem: 163 235
LayerCount: 2
Fore
SplineSet
149 1196 m 1,0,1
 461.927770301 1274.991476 461.927770301 1274.991476 784 1313 c 1,2,-1
 825 1075 l 1,3,-1
 393 1028 l 1,4,-1
 405 709 l 1,5,-1
 772 725 l 1,6,-1
 762 487 l 1,7,-1
 409 498 l 1,8,-1
 393 0 l 1,9,-1
 178 -18 l 1,10,-1
 149 1196 l 1,0,1
EndSplineSet
EndChar

StartChar: G
Encoding: 71 71 40
Width: 1071
Flags: HMW
HStem: -17 218<647 675 629 778> 508 219 1313 20G<893 893>
VStem: 137 254<581.5 697.5>
LayerCount: 2
Fore
SplineSet
186 158 m 0,0,1
 137 394 137 394 137 621 c 0,2,3
 137 949.416666667 137 949.416666667 172 1069 c 0,4,5
 192 1135 192 1135 225 1153.5 c 128,-1,6
 258 1172 258 1172 358.5 1207 c 128,-1,7
 459 1242 459 1242 625.5 1280 c 128,-1,8
 792 1318 792 1318 893 1333 c 1,9,-1
 946 1092 l 1,10,11
 905 1084 905 1084 782 1063.5 c 0,12,13
 466.117647059 1010.85294118 466.117647059 1010.85294118 420 995 c 1,14,15
 391 880 391 880 391 635.5 c 128,-1,16
 391 391 391 391 426 244 c 1,17,18
 547.411764706 201 547.411764706 201 669 201 c 0,19,20
 695 201 695 201 704 203 c 1,21,-1
 733 504 l 1,22,-1
 573 512 l 1,23,-1
 598 727 l 1,24,25
 808 714 808 714 975 672 c 1,26,-1
 897 -6 l 1,27,28
 826 -17 826 -17 717 -17 c 128,-1,29
 608 -17 608 -17 455 14 c 128,-1,30
 302 45 302 45 262.5 67 c 128,-1,31
 223 89 223 89 208 107 c 128,-1,32
 193 125 193 125 186 158 c 0,0,1
EndSplineSet
EndChar

StartChar: H
Encoding: 72 72 41
Width: 1228
Flags: HMW
HStem: -18 21G<192 192 813 813> 0 21G<411 411 1030 1030> 468 219
VStem: 179 240 822 250
LayerCount: 2
Fore
SplineSet
192 -18 m 1,0,-1
 166 1268 l 1,1,-1
 409 1300 l 1,2,-1
 430 680 l 1,3,-1
 817 694 l 1,4,-1
 827 1264 l 1,5,-1
 1071 1298 l 1,6,-1
 1073 750 l 1,7,-1
 1030 0 l 1,8,-1
 813 -18 l 1,9,-1
 811 473 l 1,10,-1
 694 467 l 1,11,-1
 428 469 l 1,12,-1
 411 0 l 1,13,-1
 192 -18 l 1,0,-1
EndSplineSet
EndChar

StartChar: I
Encoding: 73 73 42
Width: 784
Flags: HMW
HStem: -25 210
VStem: 277 247
LayerCount: 2
Fore
SplineSet
663 -25 m 1,0,1
 339.617455493 -22.84411637 339.617455493 -22.84411637 92 18 c 1,2,-1
 112 205 l 1,3,-1
 285 198 l 1,4,-1
 270 1061 l 1,5,6
 207 1059 207 1059 86 1051 c 1,7,-1
 67 1243 l 1,8,9
 260 1273 260 1273 669 1298 c 1,10,-1
 696 1096 l 1,11,12
 549 1081 549 1081 524 1077 c 1,13,-1
 526 653 l 1,14,-1
 497 189 l 1,15,-1
 680 182 l 1,16,-1
 663 -25 l 1,0,1
EndSplineSet
EndChar

StartChar: J
Encoding: 74 74 43
Width: 716
Flags: HMW
HStem: -248 1563<104 164>
VStem: 311 252
LayerCount: 2
Fore
SplineSet
32 -55 m 1,0,1
 102 -18 102 -18 193 42 c 128,-1,2
 284 102 284 102 325 143 c 1,3,-1
 311 711 l 1,4,-1
 311 1063 l 1,5,-1
 67 1090 l 1,6,-1
 104 1315 l 1,7,8
 171 1308.3 171 1308.3 232 1299.15 c 128,-1,9
 293 1290 293 1290 350 1282 c 128,-1,10
 407 1274 407 1274 435.5 1268 c 0,11,12
 529.489361702 1248.21276596 529.489361702 1248.21276596 575 1235 c 1,13,-1
 551 113 l 2,14,15
 550 67 550 67 531.5 38 c 128,-1,16
 513 9 513 9 469 -33.5 c 128,-1,17
 425 -76 425 -76 330 -144.5 c 128,-1,18
 235 -213 235 -213 164 -248 c 1,19,-1
 32 -55 l 1,0,1
EndSplineSet
EndChar

StartChar: K
Encoding: 75 75 44
Width: 1099
Flags: HMW
HStem: -20 21G<170 170> 0 21G<393 393>
VStem: 166 248
LayerCount: 2
Fore
SplineSet
170 -20 m 1,0,-1
 162 1266 l 1,1,-1
 411 1300 l 1,2,-1
 418 653 l 1,3,-1
 465 645 l 1,4,-1
 841 1311 l 1,5,-1
 1059 1182 l 1,6,7
 998 1056 998 1056 869 870 c 128,-1,8
 740 684 740 684 647 586 c 1,9,10
 733 502 733 502 855 355.5 c 128,-1,11
 977 209 977 209 1046 92 c 1,12,-1
 841 -57 l 1,13,-1
 495 475 l 1,14,-1
 410 436 l 1,15,-1
 393 0 l 1,16,-1
 170 -20 l 1,0,-1
EndSplineSet
EndChar

StartChar: L
Encoding: 76 76 45
Width: 782
Flags: HMW
HStem: -27 21G<696 696>
VStem: 166 252<752 1260 1260 1260>
LayerCount: 2
Fore
SplineSet
166 84 m 1,0,-1
 166 1260 l 1,1,-1
 418 1300 l 1,2,-1
 418 752 l 1,3,-1
 387 264 l 1,4,5
 456 237 456 237 753 195 c 1,6,-1
 696 -27 l 1,7,8
 564 -11 564 -11 394.5 23 c 128,-1,9
 225 57 225 57 166 84 c 1,0,-1
EndSplineSet
EndChar

StartChar: M
Encoding: 77 77 46
Width: 1704
Flags: HMW
HStem: -19 21G -8 20
VStem: 86 1576<2 12> 214 186
LayerCount: 2
Fore
SplineSet
86 12 m 1,0,-1
 164 705 l 1,1,2
 171 847 171 847 191.5 1020.5 c 128,-1,3
 212 1194 212 1194 214 1221 c 1,4,5
 280 1239 280 1239 428 1265.5 c 128,-1,6
 576 1292 576 1292 658 1296 c 1,7,-1
 803 696 l 1,8,-1
 850 225 l 1,9,-1
 893 229 l 1,10,-1
 986 1223 l 1,11,12
 1077 1254 1077 1254 1209.5 1277 c 128,-1,13
 1342 1300 1342 1300 1446 1300 c 1,14,-1
 1572 676 l 1,15,-1
 1662 2 l 1,16,-1
 1403 -25 l 1,17,-1
 1324 653 l 1,18,-1
 1258 1086 l 1,19,-1
 1197 1078 l 1,20,-1
 1156 643 l 1,21,-1
 1059 29 l 1,22,23
 883.209125475 -5.62547528517 883.209125475 -5.62547528517 679 -8 c 1,24,-1
 470 1073 l 1,25,-1
 404 1063 l 1,26,-1
 396 662 l 1,27,-1
 336 -19 l 1,28,-1
 86 12 l 1,0,-1
EndSplineSet
EndChar

StartChar: N
Encoding: 78 78 47
Width: 1350
Flags: HMW
HStem: -18 21G<166 166 751 751>
VStem: 166 224 966 201
LayerCount: 2
Fore
SplineSet
166 -18 m 1,0,-1
 166 110 l 2,1,2
 166 393 166 393 175 780 c 1,3,-1
 156 1227 l 1,4,5
 439 1286 439 1286 590 1294 c 1,6,-1
 854 459 l 1,7,-1
 915 172 l 1,8,-1
 973 178 l 1,9,-1
 960 500 l 1,10,-1
 969 1278 l 1,11,-1
 1225 1300 l 1,12,13
 1216 985 1216 985 1175 518 c 1,14,-1
 1160 27 l 1,15,16
 1006.87070151 -3.12379642366 1006.87070151 -3.12379642366 751 -18 c 1,17,-1
 487 827 l 1,18,-1
 428 1091 l 1,19,-1
 375 1083 l 1,20,-1
 385 782 l 1,21,-1
 395 2 l 1,22,-1
 166 -18 l 1,0,-1
EndSplineSet
EndChar

StartChar: O
Encoding: 79 79 48
Width: 1161
Flags: HMW
HStem: -16 224<487 523> 1081 242<1005 1042> 1303 20G<1005 1005>
VStem: 129 256<669.5 781 662.5 830> 764 254<707.5 950>
LayerCount: 2
Fore
SplineSet
223 78 m 0,0,1
 178 197 178 197 153.5 396 c 128,-1,2
 129 595 129 595 129 769.5 c 128,-1,3
 129 944 129 944 145 1025.5 c 128,-1,4
 161 1107 161 1107 200 1155.5 c 0,5,6
 321.57766935 1306.69274265 321.57766935 1306.69274265 1005 1323 c 1,7,-1
 1042 1081 l 1,8,9
 869 1076 869 1076 673 1053.5 c 128,-1,10
 477 1031 477 1031 397 1001 c 1,11,12
 385 933 385 933 385 680 c 128,-1,13
 385 427 385 427 438 210 c 1,14,15
 456 208 456 208 533 208 c 128,-1,16
 610 208 610 208 714 231 c 1,17,18
 764 550.565217391 764 550.565217391 764 950 c 1,19,-1
 1013 934 l 1,20,21
 1018 872 1018 872 1018 772.5 c 128,-1,22
 1018 673 1018 673 994 479 c 128,-1,23
 970 285 970 285 952 192.5 c 128,-1,24
 934 100 934 100 918 70 c 128,-1,25
 902 40 902 40 859.5 21 c 128,-1,26
 817 2 817 2 698 -7 c 128,-1,27
 579 -16 579 -16 474.5 -16 c 128,-1,28
 370 -16 370 -16 309 -1.5 c 128,-1,29
 248 13 248 13 223 78 c 0,0,1
EndSplineSet
EndChar

StartChar: P
Encoding: 80 80 49
Width: 1081
Flags: HMW
HStem: -20 21G<194 194> 1077 236<78 116>
VStem: 185 247 735 255<866 942.5>
LayerCount: 2
Fore
SplineSet
194 -20 m 1,0,-1
 176 924 l 1,1,-1
 432 965 l 1,2,-1
 432 764 l 1,3,-1
 424 485 l 1,4,5
 563 509 563 509 688 555 c 1,6,7
 735 700 735 700 735 919 c 0,8,9
 735 997 735 997 727 1020 c 1,10,11
 596.344799345 1059.5004095 596.344799345 1059.5004095 204.5 1072.5 c 0,12,13
 99 1076 99 1076 78 1077 c 1,14,-1
 116 1313 l 1,15,16
 588 1295 588 1295 807 1243 c 0,17,18
 842 1235 842 1235 908.5 1168 c 128,-1,19
 975 1101 975 1101 982.5 1048.5 c 128,-1,20
 990 996 990 996 990 923 c 0,21,22
 990 657 990 657 884 408 c 0,23,24
 863 357 863 357 784 344 c 1,25,-1
 430 281 l 1,26,-1
 418 2 l 1,27,-1
 194 -20 l 1,0,-1
EndSplineSet
EndChar

StartChar: Q
Encoding: 81 81 50
Width: 1159
Flags: HMW
HStem: -526 21G<647 647> -16 21G<455.5 485 485 514> -16 227<455.5 543 489 514> -8 21G 1081 242<1005 1042> 1303 20G<1005 1005>
VStem: 129 258<669.5 781 662.5 829.5> 764 254<707.5 950>
LayerCount: 2
Fore
SplineSet
223 78 m 0,0,1
 178 197 178 197 153.5 396 c 128,-1,2
 129 595 129 595 129 721.5 c 0,3,4
 129 1055.88302091 129 1055.88302091 170.52912002 1125.009371 c 128,-1,5
 212.058240039 1194.1357211 212.058240039 1194.1357211 315 1231 c 0,6,7
 544 1312 544 1312 1005 1323 c 1,8,-1
 1042 1081 l 1,9,10
 869 1076 869 1076 674 1053.5 c 128,-1,11
 479 1031 479 1031 399 1001 c 1,12,13
 387 933 387 933 387 681.5 c 128,-1,14
 387 430 387 430 440 213 c 1,15,16
 458 211 458 211 541 211 c 128,-1,17
 624 211 624 211 714 231 c 1,18,19
 764 550.565217391 764 550.565217391 764 950 c 1,20,-1
 1013 934 l 1,21,22
 1018 872 1018 872 1018 811 c 0,23,24
 1018 527 1018 527 945 158 c 0,25,26
 934 100 934 100 918 70 c 128,-1,27
 902 40 902 40 859 20.5 c 128,-1,28
 816 1 816 1 683 -8 c 1,29,30
 713 -117 713 -117 751.5 -193 c 128,-1,31
 790 -269 790 -269 870 -395 c 1,32,-1
 647 -526 l 1,33,34
 569 -398 569 -398 540.5 -319.5 c 128,-1,35
 512 -241 512 -241 512 -152.5 c 128,-1,36
 512 -64 512 -64 514 -16 c 1,37,-1
 485 -16 l 2,38,39
 370 -16 370 -16 309 -1.5 c 128,-1,40
 248 13 248 13 223 78 c 0,0,1
EndSplineSet
EndChar

StartChar: R
Encoding: 82 82 51
Width: 1095
Flags: HMW
HStem: -18 21G<182 182> 1301 20G<116 116>
VStem: 173 234
LayerCount: 2
Fore
SplineSet
182 -18 m 1,0,-1
 164 932 l 1,1,-1
 407 973 l 1,2,-1
 407 772 l 1,3,-1
 401 530 l 1,4,-1
 688 600 l 1,5,6
 749 794 749 794 749 950 c 0,7,8
 749 983 749 983 745 1012 c 1,9,10
 569 1066 569 1066 78 1085 c 1,11,-1
 116 1321 l 1,12,13
 282 1315 282 1315 500.5 1291.5 c 128,-1,14
 719 1268 719 1268 856 1239 c 0,15,16
 884 1233 884 1233 943 1159.5 c 128,-1,17
 1002 1086 1002 1086 1003.5 1054 c 0,18,19
 1005 1022 1005 1022 1005 945.5 c 0,20,21
 1005 869 1005 869 972 728.5 c 128,-1,22
 939 588 939 588 895 500 c 0,23,24
 876 464 876 464 839 444 c 1,25,-1
 741 412 l 1,26,27
 888 252 888 252 1011 63 c 1,28,-1
 803 -78 l 1,29,-1
 553 362 l 1,30,-1
 407 354 l 1,31,-1
 399 0 l 1,32,-1
 182 -18 l 1,0,-1
EndSplineSet
EndChar

StartChar: S
Encoding: 83 83 52
Width: 901
Flags: HMW
HStem: -45 21G<141 141>
VStem: 95 261<813 996.5>
LayerCount: 2
Fore
SplineSet
141 -45 m 1,0,-1
 98 205 l 1,1,2
 386 227 386 227 547 272 c 1,3,4
 554 321 554 321 554 378.5 c 128,-1,5
 554 436 554 436 551 485 c 1,6,-1
 196 614 l 2,7,8
 161 626 161 626 142.5 660 c 128,-1,9
 124 694 124 694 109.5 783 c 128,-1,10
 95 872 95 872 95 956.5 c 128,-1,11
 95 1041 95 1041 102 1094 c 1,12,13
 105 1171 105 1171 205 1200 c 1,14,15
 433 1283 433 1283 739 1335 c 1,16,-1
 800 1094 l 1,17,18
 470 1046 470 1046 356 1016 c 1,19,20
 352 982 352 982 352 922 c 128,-1,21
 352 862 352 862 356 813 c 1,22,-1
 725 651 l 2,23,24
 765 634 765 634 789 596.5 c 128,-1,25
 813 559 813 559 813 539 c 128,-1,26
 813 519 813 519 811 480.5 c 0,27,28
 804.780590717 360.776371308 804.780590717 360.776371308 784 207 c 0,29,30
 775 141 775 141 727 109 c 0,31,32
 585 17 585 17 141 -45 c 1,0,-1
EndSplineSet
EndChar

StartChar: T
Encoding: 84 84 53
Width: 883
Flags: HMW
HStem: -18 21G<337 337> 1047 243<574 833>
VStem: 331 247
LayerCount: 2
Fore
SplineSet
325 1038 m 1,0,-1
 40 1028 l 1,1,-1
 58 1245 l 1,2,3
 404 1290 404 1290 833 1290 c 1,4,-1
 859 1065 l 1,5,6
 740 1060 740 1060 574 1047 c 1,7,-1
 583 631 l 1,8,-1
 560 0 l 1,9,-1
 337 -18 l 1,10,-1
 325 1038 l 1,0,-1
EndSplineSet
EndChar

StartChar: U
Encoding: 85 85 54
Width: 1151
Flags: HMW
HStem: -2 21G<438.5 453>
VStem: 125 934<1260 1272>
LayerCount: 2
Fore
SplineSet
193 248 m 0,0,1
 130 815 130 815 125 1260 c 1,2,-1
 379 1300 l 1,3,-1
 420 270 l 1,4,5
 501 222 501 222 662 222 c 0,6,7
 693 222 693 222 731 227 c 1,8,-1
 784 1307 l 1,9,-1
 1059 1272 l 1,10,-1
 966 285 l 1,11,12
 961.554252199 249.434017595 961.554252199 249.434017595 925.7771261 207.217008798 c 128,-1,13
 890 165 890 165 874.5 147.5 c 0,14,15
 843.5 112.5 843.5 112.5 815.25 84.25 c 2,16,-1
 781 50 l 2,17,18
 775 44 775 44 772.5 41 c 128,-1,19
 770 38 770 38 764.5 33 c 128,-1,20
 759 28 759 28 755.5 25.5 c 128,-1,21
 752 23 752 23 747.5 19.5 c 128,-1,22
 743 16 743 16 739.5 14.5 c 0,23,24
 729 10 729 10 723 10 c 2,25,-1
 453 -2 l 1,26,27
 422 -2 422 -2 311 95 c 2,28,-1
 279 123 l 2,29,30
 214.537572254 179.404624277 214.537572254 179.404624277 204.768786127 204.202312139 c 128,-1,31
 195 229 195 229 193 248 c 0,0,1
EndSplineSet
EndChar

StartChar: V
Encoding: 86 86 55
Width: 1092
Flags: HMW
HStem: -16 21G<368 425.5>
VStem: 72 964<1225 1233>
LayerCount: 2
Fore
SplineSet
368 -16 m 1,0,-1
 244 520 l 1,1,-1
 72 1225 l 1,2,-1
 326 1298 l 1,3,-1
 481 530 l 1,4,-1
 522 205 l 1,5,-1
 580 211 l 1,6,7
 716 912 716 912 778 1298 c 1,8,-1
 1036 1233 l 1,9,-1
 999 1071 l 2,10,11
 946 838 946 838 845.5 442.5 c 128,-1,12
 745 47 745 47 718 0 c 1,13,14
 468 -16 468 -16 368 -16 c 1,0,-1
EndSplineSet
EndChar

StartChar: W
Encoding: 87 87 56
Width: 1605
Flags: HMW
HStem: -16 195 -16 202
VStem: 60 1497<1239 1257>
LayerCount: 2
Fore
SplineSet
323 -16 m 1,0,-1
 232 430 l 1,1,-1
 60 1239 l 1,2,-1
 321 1300 l 1,3,-1
 467 446 l 1,4,-1
 488 180 l 1,5,-1
 533 178 l 1,6,-1
 710 754 l 1,7,-1
 634 1137 l 1,8,-1
 893 1182 l 1,9,-1
 1018 598 l 1,10,-1
 1088 184 l 1,11,-1
 1142 188 l 1,12,13
 1250.22033898 911.530266344 1250.22033898 911.530266344 1279 1298 c 1,14,-1
 1557 1257 l 1,15,16
 1482.77647059 737.435294118 1482.77647059 737.435294118 1404 434 c 2,17,-1
 1292 0 l 1,18,-1
 938 -16 l 1,19,-1
 828 422 l 1,20,-1
 802 422 l 1,21,-1
 687 0 l 1,22,-1
 323 -16 l 1,0,-1
EndSplineSet
EndChar

StartChar: X
Encoding: 88 88 57
Width: 1136
Flags: HMW
HStem: -16 21G<846 846> -2 21G<342 342> 1299 20G<317 317>
VStem: 86 983
LayerCount: 2
Fore
SplineSet
106 51 m 1,0,1
 123 185 123 185 191 367.5 c 128,-1,2
 259 550 259 550 309 631 c 1,3,-1
 413 690 l 1,4,5
 324 809 324 809 219 962.5 c 128,-1,6
 114 1116 114 1116 86 1176 c 1,7,-1
 317 1319 l 1,8,9
 510 975 510 975 607 772 c 1,10,-1
 610 774 l 1,11,12
 779 1224 779 1224 803 1313 c 1,13,-1
 1042 1243 l 1,14,15
 1026 1162 1026 1162 932.5 952.5 c 128,-1,16
 839 743 839 743 790 668 c 1,17,-1
 710 627 l 1,18,19
 798 520 798 520 918 356 c 128,-1,20
 1038 192 1038 192 1069 129 c 1,21,-1
 846 -16 l 1,22,23
 623 363 623 363 527 541 c 1,24,-1
 501 528 l 1,25,26
 383 178 383 178 342 -2 c 1,27,-1
 106 51 l 1,0,1
EndSplineSet
EndChar

StartChar: Y
Encoding: 89 89 58
Width: 1042
Flags: HMW
HStem: -16 21G<407 407>
VStem: 39 968<1245 1270>
LayerCount: 2
Fore
SplineSet
407 -16 m 1,0,-1
 404 439 l 1,1,2
 368 441 368 441 303 451 c 1,3,4
 223.330049261 651.650246305 223.330049261 651.650246305 137.665024631 928.325123153 c 128,-1,5
 52 1205 52 1205 39 1245 c 1,6,-1
 299 1311 l 1,7,-1
 347 1149 l 1,8,-1
 465 614 l 1,9,10
 480 613 480 613 518.5 613 c 128,-1,11
 557 613 557 613 600 621 c 1,12,-1
 737 1298 l 1,13,-1
 1007 1270 l 1,14,15
 945 1020 945 1020 891.5 853 c 128,-1,16
 838 686 838 686 746 451 c 1,17,18
 694 443 694 443 652 440 c 1,19,-1
 622 0 l 1,20,-1
 407 -16 l 1,0,-1
EndSplineSet
EndChar

StartChar: Z
Encoding: 90 90 59
Width: 929
Flags: HMW
HStem: 1307 20G<114 114>
VStem: 57 832<279 993>
LayerCount: 2
Fore
SplineSet
837 -57 m 1,0,-1
 121 10 l 1,1,-1
 57 279 l 1,2,-1
 626 1014 l 1,3,-1
 602 1061 l 1,4,-1
 575 1061 l 2,5,6
 332 1061 332 1061 75 1106 c 1,7,-1
 114 1327 l 1,8,9
 495.551020408 1279.30612245 495.551020408 1279.30612245 798 1270 c 1,10,-1
 889 993 l 1,11,12
 667 673 667 673 325 256 c 1,13,-1
 338 217 l 1,14,-1
 369 217 l 2,15,16
 607 217 607 217 874 170 c 1,17,-1
 837 -57 l 1,0,-1
EndSplineSet
EndChar

StartChar: bracketleft
Encoding: 91 91 60
Width: 639
Flags: HMW
HStem: -485 2097<567 569>
VStem: 180 231
LayerCount: 2
Fore
SplineSet
215 -403 m 1,0,1
 183 462 183 462 180 1544 c 1,2,-1
 569 1612 l 1,3,-1
 598 1395 l 1,4,-1
 422 1378 l 1,5,-1
 401 625 l 1,6,-1
 422 -240 l 1,7,-1
 618 -266 l 1,8,-1
 567 -485 l 1,9,-1
 215 -403 l 1,0,1
EndSplineSet
EndChar

StartChar: backslash
Encoding: 92 92 61
Width: 759
Flags: HMW
HStem: -174 1591<237 555>
VStem: 30 707
LayerCount: 2
Fore
SplineSet
555 -174 m 1,0,-1
 30 1333 l 1,1,-1
 237 1417 l 1,2,-1
 737 -119 l 1,3,-1
 555 -174 l 1,0,-1
EndSplineSet
EndChar

StartChar: bracketright
Encoding: 93 93 62
Width: 565
Flags: HMW
HStem: -481 2095<69 94>
VStem: 244 214
LayerCount: 2
Fore
SplineSet
45 -264 m 1,0,-1
 239 -252 l 1,1,-1
 250 502 l 1,2,-1
 239 1366 l 1,3,-1
 39 1397 l 1,4,-1
 94 1614 l 1,5,-1
 452 1526 l 1,6,7
 459 1128 459 1128 459 638 c 0,8,9
 459 148 459 148 450 -422 c 1,10,-1
 69 -481 l 1,11,-1
 45 -264 l 1,0,-1
EndSplineSet
EndChar

StartChar: asciicircum
Encoding: 94 94 63
Width: 940
Flags: HMW
HStem: 483 807<186 575 575 764>
VStem: 26 893<563 569>
LayerCount: 2
Fore
SplineSet
186 483 m 1,0,-1
 26 563 l 1,1,-1
 331 1264 l 1,2,-1
 575 1290 l 1,3,-1
 919 569 l 1,4,-1
 764 483 l 1,5,-1
 458 1010 l 1,6,-1
 186 483 l 1,0,-1
EndSplineSet
EndChar

StartChar: underscore
Encoding: 95 95 64
Width: 1255
Flags: HMW
HStem: -174 174<6 1252 -23 1268>
VStem: -23 1291<-174 0>
LayerCount: 2
Fore
SplineSet
6 0 m 1,0,-1
 1268 0 l 1,1,-1
 1252 -174 l 1,2,-1
 -23 -174 l 1,3,-1
 6 0 l 1,0,-1
EndSplineSet
EndChar

StartChar: quoteleft
Encoding: 8216 8216 65
Width: 520
Flags: HW
LayerCount: 2
Fore
SplineSet
147 748 m 1,0,1
 118 828 118 828 118 923.5 c 0,2,3
 118 1131.16666667 118 1131.16666667 239 1298 c 1,4,-1
 407 1327 l 1,5,6
 367 1259 367 1259 344 1176 c 128,-1,7
 321 1093 321 1093 319 1028 c 1,8,-1
 395 1016 l 1,9,-1
 418 782 l 1,10,-1
 147 748 l 1,0,1
EndSplineSet
EndChar

StartChar: a
Encoding: 97 97 66
Width: 914
Flags: HMW
HStem: -72 1110<181 795>
VStem: 90 229 573 212
LayerCount: 2
Fore
SplineSet
149 53 m 0,0,1
 125 62 125 62 110.5 121 c 0,2,3
 87.3319559229 215.269972452 87.3319559229 215.269972452 90.1659779614 307.134986226 c 0,4,5
 97.3767119247 540.871409529 97.3767119247 540.871409529 156 556 c 0,6,7
 300.4 594.876923077 300.4 594.876923077 562 615 c 1,8,-1
 558 756 l 1,9,10
 475 772 475 772 322 792.5 c 128,-1,11
 169 813 169 813 128 819 c 1,12,-1
 181 1038 l 1,13,-1
 207 1034 l 1,14,15
 569.381679389 983.435114504 569.381679389 983.435114504 719 930 c 0,16,17
 785 906 785 906 785 833 c 2,18,-1
 789 285 l 1,19,-1
 576 264 l 1,20,-1
 570 435 l 1,21,22
 413 408 413 408 330 384 c 1,23,24
 319 325 319 325 319 283.5 c 128,-1,25
 319 242 319 242 323 217 c 1,26,27
 473 184 473 184 758 152 c 2,28,-1
 840 143 l 1,29,-1
 795 -72 l 1,30,31
 375 -28 375 -28 149 53 c 0,0,1
EndSplineSet
EndChar

StartChar: b
Encoding: 98 98 67
Width: 995
Flags: HMW
HStem: -20 21G<148 148>
VStem: 146 242
LayerCount: 2
Fore
SplineSet
148 -20 m 1,0,-1
 145 1427 l 1,1,-1
 387 1473 l 1,2,-1
 391 752 l 1,3,-1
 368 188 l 1,4,5
 381 187 381 187 447 187 c 128,-1,6
 513 187 513 187 585 211 c 1,7,8
 645 426 645 426 645 656 c 0,9,10
 645 727 645 727 639 766 c 1,11,12
 589.560885609 781.730627306 589.560885609 781.730627306 494.5 794.5 c 2,13,-1
 461 799 l 1,14,-1
 512 1022 l 1,15,16
 706 993 706 993 807 960 c 0,17,18
 871.558704453 937.865587045 871.558704453 937.865587045 880.279352227 874.432793522 c 128,-1,19
 889 811 889 811 889 695.5 c 128,-1,20
 889 580 889 580 883 494 c 1,21,22
 866 286 866 286 801 84 c 1,23,24
 781.261029412 27.6029411765 781.261029412 27.6029411765 749 19 c 0,25,26
 580 -27 580 -27 351 -27 c 0,27,28
 247 -27 247 -27 148 -20 c 1,0,-1
EndSplineSet
EndChar

StartChar: c
Encoding: 99 99 68
Width: 799
Flags: HMW
HStem: -63 1087<694 704>
VStem: 116 245<395 477 389 515>
LayerCount: 2
Fore
SplineSet
136 131 m 0,0,1
 116 273 116 273 116 467.5 c 0,2,3
 116 662 116 662 149 840 c 0,4,5
 158 893 158 893 174 913 c 128,-1,6
 190 933 190 933 222.5 942.5 c 0,7,8
 255 952 255 952 299 961 c 128,-1,9
 343 970 343 970 405 980 c 128,-1,10
 467 990 467 990 507 996 c 128,-1,11
 547 1002 547 1002 619.5 1012 c 128,-1,12
 692 1022 692 1022 704 1024 c 1,13,-1
 739 799 l 1,14,15
 435 766 435 766 389 754 c 1,16,17
 380 714 380 714 370.5 605.5 c 128,-1,18
 361 497 361 497 361 396 c 0,19,20
 361 295 361 295 371 223 c 1,21,-1
 753 152 l 1,22,-1
 694 -63 l 1,23,24
 571 -43 571 -43 410.5 -8 c 128,-1,25
 250 27 250 27 200 47 c 1,26,27
 146 65 146 65 136 131 c 0,0,1
EndSplineSet
EndChar

StartChar: d
Encoding: 100 100 69
Width: 994
Flags: HMW
HStem: -72 1545<844 851>
VStem: 117 244<357.5 525.5> 619 235 621 225
LayerCount: 2
Fore
SplineSet
134 135 m 1,0,1
 117 302 117 302 117 480 c 128,-1,2
 117 658 117 658 158 872 c 0,3,4
 169 926 169 926 208 938 c 1,5,6
 436 997 436 997 619 1020 c 1,7,-1
 619 1430 l 1,8,-1
 851 1473 l 1,9,-1
 857 1012 l 1,10,-1
 836 309 l 1,11,-1
 625 289 l 1,12,-1
 617 803 l 1,13,14
 486 792 486 792 390 754 c 1,15,16
 361 575.65 361 575.65 361 434.825 c 128,-1,17
 361 294 361 294 369 233 c 1,18,19
 486.894736842 202.377990431 486.894736842 202.377990431 667.947368421 177.688995215 c 128,-1,20
 849 153 849 153 906 143 c 1,21,-1
 844 -72 l 1,22,23
 802 -65 802 -65 682.5 -46.5 c 128,-1,24
 563 -28 563 -28 507 -18.5 c 0,25,26
 327.038834951 12.0291262136 327.038834951 12.0291262136 195 49 c 1,27,28
 167 55 167 55 154 76 c 128,-1,29
 141 97 141 97 134 135 c 1,0,1
EndSplineSet
EndChar

StartChar: e
Encoding: 101 101 70
Width: 948
Flags: HMW
HStem: -72 1084<556.5 782>
VStem: 118 226<666 686.5> 602 225<369 584 369 620>
LayerCount: 2
Fore
SplineSet
125 150 m 2,0,-1
 118 666 l 1,1,2
 118 799 118 799 149 823 c 0,3,4
 230 886 230 886 380 949 c 128,-1,5
 530 1012 530 1012 608.5 1012 c 0,6,7
 780.622222222 1012 780.622222222 1012 794 926 c 1,8,9
 827 686 827 686 827 428 c 2,10,-1
 827 369 l 1,11,-1
 348 363 l 1,12,-1
 348 233 l 1,13,14
 429 214 429 214 598.5 187.5 c 128,-1,15
 768 161 768 161 841 147 c 1,16,-1
 782 -72 l 1,17,18
 522 -32 522 -32 198 67 c 0,19,20
 126 90 126 90 125 150 c 2,0,-1
344 535 m 1,21,-1
 602 563 l 1,22,-1
 602 584 l 2,23,24
 602 672 602 672 583 782 c 1,25,26
 507.642857143 782 507.642857143 782 433.821428571 755.5 c 128,-1,27
 360 729 360 729 344 715 c 1,28,-1
 344 535 l 1,21,-1
EndSplineSet
EndChar

StartChar: f
Encoding: 102 102 71
Width: 597
Flags: HMW
HStem: -16 21G<130 130> 0 21G<343 343>
VStem: 101 483<758 1193.5>
LayerCount: 2
Fore
SplineSet
130 -16 m 1,0,1
 101 1164 101 1164 101 1174.5 c 0,2,3
 101 1185 101 1185 111 1205.5 c 128,-1,4
 121 1226 121 1226 132 1239 c 128,-1,5
 143 1252 143 1252 174 1285 c 128,-1,6
 205 1318 205 1318 224 1339 c 2,7,-1
 347 1477 l 1,8,-1
 506 1309 l 1,9,-1
 345 1130 l 1,10,-1
 355 942 l 1,11,-1
 562 985 l 1,12,-1
 584 758 l 1,13,-1
 355 741 l 1,14,-1
 343 0 l 1,15,-1
 130 -16 l 1,0,1
EndSplineSet
EndChar

StartChar: g
Encoding: 103 103 72
Width: 977
Flags: HMW
HStem: -549 21G<299 299> 0 211<271 437 406 437 406 474>
VStem: 109 242<560 645 560 671>
LayerCount: 2
Fore
SplineSet
200 78 m 0,0,1
 109 298 109 298 109 638 c 0,2,3
 109 840.25 109 840.25 139 886.5 c 0,4,5
 151 905 151 905 184.5 915 c 128,-1,6
 218 925 218 925 261.5 936.5 c 128,-1,7
 305 948 305 948 338 956 c 128,-1,8
 371 964 371 964 426 975.5 c 128,-1,9
 481 987 481 987 505 992 c 128,-1,10
 529 997 529 997 595 1009.5 c 128,-1,11
 661 1022 661 1022 675 1024.5 c 0,12,13
 819.666666667 1050.33333333 819.666666667 1050.33333333 843 1055 c 1,14,-1
 892 825 l 1,15,16
 841 817 841 817 738.5 801 c 128,-1,17
 636 785 636 785 573.5 775 c 0,18,19
 403.592592593 747.814814815 403.592592593 747.814814815 361 733 c 1,20,21
 351 693 351 693 351 622 c 0,22,23
 351 363 351 363 406 211 c 1,24,25
 539 211 539 211 613 221 c 1,26,-1
 609 647 l 1,27,-1
 832 688 l 1,28,29
 848 -134 848 -134 848 -154 c 0,30,31
 848 -206 848 -206 772 -259 c 0,32,33
 549 -417 549 -417 299 -549 c 1,34,-1
 177 -330 l 1,35,36
 474 -194 474 -194 632 -103 c 1,37,-1
 617 125 l 1,38,-1
 474 0 l 1,39,-1
 308 0 l 2,40,41
 243.111111111 0 243.111111111 0 219.5 37.5 c 0,42,43
 211 51 211 51 200 78 c 0,0,1
EndSplineSet
EndChar

StartChar: h
Encoding: 104 104 73
Width: 1022
Flags: HMW
HStem: 0 21G<153 153> 764 219<544 563 563 633>
VStem: 153 224 645 248<555 733.5>
LayerCount: 2
Fore
SplineSet
153 0 m 1,0,1
 150 385 150 385 135 698 c 1,2,3
 130 875 130 875 130 1037.5 c 128,-1,4
 130 1200 130 1200 135 1425 c 1,5,-1
 374 1475 l 1,6,-1
 385 842 l 1,7,-1
 544 983 l 1,8,-1
 766 983 l 2,9,10
 802 983 802 983 846 943.5 c 128,-1,11
 890 904 890 904 891.5 858.5 c 128,-1,12
 893 813 893 813 893 702.5 c 128,-1,13
 893 592 893 592 889 516 c 2,14,-1
 858 -35 l 1,15,-1
 636 -72 l 1,16,-1
 645 555 l 1,17,18
 645 694 645 694 633 764 c 1,19,-1
 563 764 l 2,20,21
 484.473684211 764 484.473684211 764 385 719 c 1,22,-1
 370 12 l 1,23,-1
 153 0 l 1,0,1
EndSplineSet
EndChar

StartChar: i
Encoding: 105 105 74
Width: 529
Flags: HMW
HStem: -18 21G<157 157> 0 21G<370 370>
VStem: 147 234 164 246<1358.5 1478>
LayerCount: 2
Fore
SplineSet
147 1197 m 1,0,1
 164 1292 164 1292 164 1478 c 1,2,-1
 399 1505 l 1,3,4
 410 1466 410 1466 410 1402 c 128,-1,5
 410 1338 410 1338 400 1274 c 128,-1,6
 390 1210 390 1210 377 1187 c 1,7,-1
 147 1197 l 1,0,1
157 -18 m 1,8,-1
 137 969 l 1,9,-1
 391 1001 l 1,10,11
 396 911 396 911 396 834.5 c 0,12,13
 396 758 396 758 393 664 c 2,14,-1
 370 0 l 1,15,-1
 157 -18 l 1,8,-1
EndSplineSet
EndChar

StartChar: j
Encoding: 106 106 75
Width: 524
Flags: HMW
HStem: -551 21G<68 68>
VStem: 68 342 148 238
LayerCount: 2
Fore
SplineSet
148 1197 m 1,0,1
 164 1293 164 1293 164 1478 c 1,2,-1
 400 1505 l 1,3,4
 410 1465 410 1465 410 1401.5 c 0,5,6
 410 1338 410 1338 400 1274 c 128,-1,7
 390 1210 390 1210 377 1187 c 1,8,-1
 148 1197 l 1,0,1
158 -178 m 1,9,-1
 138 967 l 1,10,-1
 390 999 l 1,11,12
 395 909 395 909 395 833.5 c 0,13,14
 395 758 395 758 392 664 c 1,15,-1
 380 -188 l 1,16,17
 374 -284 374 -284 296 -352 c 2,18,-1
 68 -551 l 1,19,-1
 -87 -372 l 1,20,-1
 158 -178 l 1,9,-1
EndSplineSet
EndChar

StartChar: k
Encoding: 107 107 76
Width: 975
Flags: HMW
HStem: -8 21G<134 134>
VStem: 132 242
LayerCount: 2
Fore
SplineSet
919 903 m 1,0,1
 818.943661972 752.915492958 818.943661972 752.915492958 585 553 c 1,2,3
 642 502 642 502 778.5 340.5 c 128,-1,4
 915 179 915 179 972 74 c 1,5,-1
 775 -66 l 1,6,7
 538 289 538 289 431 453 c 1,8,-1
 362 420 l 1,9,-1
 345 8 l 1,10,-1
 134 -8 l 1,11,-1
 130 1427 l 1,12,-1
 372 1473 l 1,13,-1
 376 812 l 1,14,-1
 370 611 l 1,15,-1
 404 604 l 1,16,-1
 742 1040 l 1,17,-1
 919 903 l 1,0,1
EndSplineSet
EndChar

StartChar: l
Encoding: 108 108 77
Width: 502
Flags: HMW
HStem: -18 21G<141 141>
VStem: 134 245
LayerCount: 2
Fore
SplineSet
141 -18 m 1,0,-1
 128 1427 l 1,1,-1
 376 1473 l 1,2,-1
 383 752 l 1,3,-1
 352 0 l 1,4,-1
 141 -18 l 1,0,-1
EndSplineSet
EndChar

StartChar: m
Encoding: 109 109 78
Width: 1550
Flags: HMW
HStem: -20 21G<661 661 1163 1163> -8 21G<155 155> -2 21G<876 876 1386 1386> 751 232<591.5 622 1093.5 1124>
VStem: 146 241 659 232 1161 260
LayerCount: 2
Fore
SplineSet
155 -8 m 1,0,-1
 137 956 l 1,1,-1
 350 983 l 1,2,-1
 385 831 l 1,3,-1
 561 983 l 1,4,-1
 759 983 l 2,5,6
 795 983 795 983 842.5 935 c 128,-1,7
 890 887 890 887 895 850 c 2,8,-1
 897 834 l 1,9,-1
 1069 983 l 1,10,-1
 1310 983 l 2,11,12
 1323.33333333 983 1323.33333333 983 1378 942 c 1,13,14
 1421 907 1421 907 1421 870 c 1,15,-1
 1386 -2 l 1,16,-1
 1163 -20 l 1,17,-1
 1159 747 l 1,18,19
 1143 751 1143 751 1089.5 751 c 128,-1,20
 1036 751 1036 751 977 729 c 2,21,-1
 907 703 l 1,22,-1
 876 -2 l 1,23,-1
 661 -20 l 1,24,-1
 657 747 l 1,25,26
 641 751 641 751 584.5 751 c 128,-1,27
 528 751 528 751 469 729 c 1,28,-1
 401 705 l 1,29,-1
 374 6 l 1,30,-1
 155 -8 l 1,0,-1
EndSplineSet
EndChar

StartChar: n
Encoding: 110 110 79
Width: 1046
Flags: HMW
HStem: -20 21G<659 659> -8 21G<155 155> 756 227<597.5 620>
VStem: 146 235 657 260
LayerCount: 2
Fore
SplineSet
155 -8 m 1,0,-1
 137 956 l 1,1,-1
 350 983 l 1,2,-1
 385 831 l 1,3,-1
 561 983 l 1,4,-1
 807 983 l 2,5,6
 828 983 828 983 872.5 945 c 128,-1,7
 917 907 917 907 917 870 c 1,8,-1
 882 -2 l 1,9,-1
 659 -20 l 1,10,-1
 655 752 l 1,11,12
 639 756 639 756 613.5 756 c 0,13,14
 542.636363636 756 542.636363636 756 469 729 c 2,15,-1
 395 702 l 1,16,-1
 368 8 l 1,17,-1
 155 -8 l 1,0,-1
EndSplineSet
EndChar

StartChar: o
Encoding: 111 111 80
Width: 989
Flags: HMW
HStem: -31 210 -4 21G 778 236<256.5 298>
VStem: 139 231<416.5 592> 646 238<534.5 633>
LayerCount: 2
Fore
SplineSet
172 100 m 0,0,1
 139 279 139 279 139 479 c 0,2,3
 139 530 139 530 143 628 c 1,4,-1
 370 673 l 1,5,-1
 370 592 l 2,6,7
 370 350 370 350 395 174 c 1,8,-1
 592 184 l 1,9,10
 646 398 646 398 646 602 c 0,11,12
 646 687 646 687 635 748 c 1,13,14
 612 760 612 760 478.5 769 c 128,-1,15
 345 778 345 778 246 778 c 128,-1,16
 147 778 147 778 114 776 c 1,17,-1
 157 1008 l 1,18,19
 224 1014 224 1014 282 1014 c 0,20,21
 533 1014 533 1014 766 961 c 0,22,23
 819 948 819 948 839 924.5 c 0,24,25
 884 871.625 884 871.625 884 611.3125 c 128,-1,26
 884 351 884 351 791 63 c 0,27,28
 770.785714286 2.35714285714 770.785714286 2.35714285714 739 -4 c 0,29,30
 607 -31 607 -31 452 -31 c 128,-1,31
 297 -31 297 -31 252 -15 c 128,-1,32
 207 1 207 1 194 26.5 c 128,-1,33
 181 52 181 52 172 100 c 0,0,1
EndSplineSet
EndChar

StartChar: p
Encoding: 112 112 81
Width: 971
Flags: HMW
HStem: -20 21G<387 387> 778 235<235.5 297.5>
VStem: 154 234 631 248<571 631.5>
LayerCount: 2
Fore
SplineSet
387 -20 m 1,0,-1
 369 -508 l 1,1,-1
 158 -522 l 1,2,-1
 150 625 l 1,3,-1
 383 670 l 1,4,-1
 393 178 l 1,5,-1
 575 213 l 1,6,7
 631 446 631 446 631 567 c 128,-1,8
 631 688 631 688 621 750 c 1,9,10
 599 762 599 762 472.5 770 c 128,-1,11
 346 778 346 778 238.5 778 c 128,-1,12
 131 778 131 778 97 776 c 1,13,-1
 141 1008 l 1,14,15
 198 1013 198 1013 291 1013 c 128,-1,16
 384 1013 384 1013 539 996.5 c 128,-1,17
 694 980 694 980 788 952 c 0,18,19
 852 933 852 933 865.5 853.5 c 128,-1,20
 879 774 879 774 879 669 c 0,21,22
 879 393 879 393 781 90 c 0,23,24
 760.744186047 29.2325581395 760.744186047 29.2325581395 729 25 c 2,25,-1
 387 -20 l 1,0,-1
EndSplineSet
EndChar

StartChar: q
Encoding: 113 113 82
Width: 966
Flags: HMW
HStem: -524 21G<610 610> -37 21G<602 602> 1055 20G<825 825>
VStem: 102 254<538 602 512 694.5> 609 225
LayerCount: 2
Fore
SplineSet
229 24 m 128,-1,1
 209 41 209 41 184 99.5 c 128,-1,2
 159 158 159 158 130.5 324 c 128,-1,3
 102 490 102 490 102 628 c 128,-1,4
 102 766 102 766 111 827.5 c 128,-1,5
 120 889 120 889 132 907.5 c 128,-1,6
 144 926 144 926 174 935 c 0,7,8
 387 997 387 997 803 1071 c 1,9,-1
 825 1075 l 1,10,-1
 874 848 l 1,11,12
 774 828 774 828 657.5 809 c 0,13,14
 418.003717472 769.940520446 418.003717472 769.940520446 372 756 c 1,15,16
 356 694 356 694 356 514 c 128,-1,17
 356 334 356 334 403 205 c 1,18,19
 481 186 481 186 604 178 c 1,20,-1
 614 700 l 1,21,-1
 850 690 l 1,22,-1
 819 -510 l 1,23,-1
 610 -524 l 1,24,-1
 602 -37 l 1,25,-1
 301 0 l 2,26,0
 249 7 249 7 229 24 c 128,-1,1
EndSplineSet
EndChar

StartChar: r
Encoding: 114 114 83
Width: 702
Flags: HMW
HStem: -8 21G<153 153>
VStem: 145 241
LayerCount: 2
Fore
SplineSet
153 -8 m 1,0,-1
 137 776 l 1,1,-1
 135 961 l 1,2,-1
 348 983 l 1,3,-1
 383 831 l 1,4,-1
 536 999 l 1,5,-1
 655 999 l 1,6,-1
 705 765 l 1,7,8
 566.25 737.25 566.25 737.25 393 696 c 1,9,-1
 379 12 l 1,10,-1
 153 -8 l 1,0,-1
EndSplineSet
EndChar

StartChar: s
Encoding: 115 115 84
Width: 836
Flags: HW
LayerCount: 2
Fore
SplineSet
123 -63 m 1,0,-1
 95 160 l 1,1,2
 405.59602649 177.748344371 405.59602649 177.748344371 508 193 c 1,3,-1
 515 319 l 1,4,-1
 164 457 l 2,5,6
 135 468 135 468 118 502 c 128,-1,7
 101 536 101 536 101 557 c 128,-1,8
 101 578 101 578 103 596 c 128,-1,9
 105 614 105 614 107 630.5 c 0,10,11
 117.705882353 718.823529412 117.705882353 718.823529412 123.852941176 773.911764706 c 128,-1,12
 130 829 130 829 141.5 852 c 128,-1,13
 153 875 153 875 173 889 c 0,14,15
 205.432432432 911.702702703 205.432432432 911.702702703 240.216216216 924.851351351 c 128,-1,16
 275 938 275 938 428.5 972.5 c 128,-1,17
 582 1007 582 1007 682 1024 c 1,18,-1
 728 795 l 1,19,-1
 338 737 l 1,20,-1
 322 641 l 1,21,-1
 691 469 l 2,22,23
 758 437 758 437 748 350 c 2,24,-1
 721 109 l 2,25,26
 712 35 712 35 596 6 c 1,27,28
 509 -17 509 -17 365 -37.5 c 128,-1,29
 221 -58 221 -58 123 -63 c 1,0,-1
EndSplineSet
EndChar

StartChar: t
Encoding: 116 116 85
Width: 714
Flags: HMW
HStem: -72 1340<379 604>
VStem: 147 232
LayerCount: 2
Fore
SplineSet
147 131 m 2,0,-1
 135 1221 l 1,1,-1
 379 1268 l 1,2,-1
 379 954 l 1,3,-1
 630 1001 l 1,4,-1
 649 774 l 1,5,-1
 383 754 l 1,6,-1
 364 213 l 1,7,8
 424.745283019 193.613207547 424.745283019 193.613207547 523.372641509 169.806603774 c 128,-1,9
 622 146 622 146 657 137 c 1,10,-1
 604 -72 l 1,11,12
 376 -21 376 -21 215 41 c 0,13,14
 147 67 147 67 147 131 c 2,0,-1
EndSplineSet
EndChar

StartChar: u
Encoding: 117 117 86
Width: 1022
Flags: HMW
HStem: -10 21G<714 714> 6 203
VStem: 134 236 652 235
LayerCount: 2
Fore
SplineSet
257 10 m 1,0,1
 232 12 232 12 189 58 c 128,-1,2
 146 104 146 104 144 153 c 2,3,-1
 124 975 l 1,4,-1
 358 1000 l 1,5,-1
 382 226 l 1,6,7
 414 209 414 209 464.5 209 c 128,-1,8
 515 209 515 209 641 270 c 1,9,-1
 664 985 l 1,10,-1
 895 985 l 1,11,-1
 880 10 l 1,12,-1
 714 -10 l 1,13,-1
 671 150 l 1,14,-1
 462 2 l 1,15,-1
 257 10 l 1,0,1
EndSplineSet
EndChar

StartChar: v
Encoding: 118 118 87
Width: 966
Flags: HMW
HStem: -12 21G<421.5 475.5> -12 200
VStem: 49 888<948 971>
LayerCount: 2
Fore
SplineSet
332 -6 m 1,0,1
 267.243301955 226.774076756 267.243301955 226.774076756 170.121650978 546.887038378 c 128,-1,2
 73 867 73 867 49 948 c 1,3,-1
 313 1012 l 1,4,-1
 446 403 l 1,5,-1
 469 186 l 1,6,-1
 522 190 l 1,7,-1
 535 246 l 2,8,9
 601 534 601 534 620 645 c 2,10,-1
 682 999 l 1,11,-1
 937 971 l 1,12,13
 846 528 846 528 655 4 c 1,14,15
 538 -12 538 -12 463 -12 c 128,-1,16
 388 -12 388 -12 332 -6 c 1,0,1
EndSplineSet
EndChar

StartChar: w
Encoding: 119 119 88
Width: 1514
Flags: HMW
HStem: -16 201 -16 206
VStem: 73 1375<950 967>
LayerCount: 2
Fore
SplineSet
307 -16 m 1,0,-1
 211 395 l 1,1,-1
 73 950 l 1,2,-1
 325 1010 l 1,3,-1
 432 446 l 1,4,-1
 450 186 l 1,5,-1
 497 184 l 1,6,-1
 649 727 l 1,7,-1
 600 954 l 1,8,-1
 866 999 l 1,9,-1
 1036 188 l 1,10,-1
 1079 193 l 1,11,12
 1099 320 1099 320 1149 696 c 1,13,-1
 1188 999 l 1,14,-1
 1448 967 l 1,15,16
 1442 938 1442 938 1420.5 820 c 128,-1,17
 1399 702 1399 702 1391.5 662.5 c 128,-1,18
 1384 623 1384 623 1362.5 521 c 128,-1,19
 1341 419 1341 419 1324 354 c 0,20,21
 1273 159 1273 159 1220 0 c 1,22,-1
 897 -16 l 1,23,-1
 774 422 l 1,24,-1
 751 422 l 1,25,-1
 639 0 l 1,26,-1
 307 -16 l 1,0,-1
EndSplineSet
EndChar

StartChar: x
Encoding: 120 120 89
Width: 942
Flags: HMW
HStem: -14 21G<295 295> 1055 20G<245 245>
VStem: 47 858<78 930>
LayerCount: 2
Fore
SplineSet
324 541 m 1,0,1
 101.48 812.968888889 101.48 812.968888889 47 930 c 1,2,-1
 245 1075 l 1,3,4
 405 797 405 797 500 624 c 1,5,-1
 522 636 l 1,6,7
 529 655 529 655 564.5 748 c 0,8,9
 657.30941704 991.134529148 657.30941704 991.134529148 675 1056 c 1,10,-1
 901 979 l 1,11,12
 884 900 884 900 812.5 752.5 c 128,-1,13
 741 605 741 605 688 526 c 1,14,-1
 611 487 l 1,15,16
 689 392 689 392 782 265.5 c 128,-1,17
 875 139 875 139 905 78 c 1,18,-1
 706 -68 l 1,19,20
 534 232 534 232 441 401 c 1,21,-1
 415 389 l 1,22,23
 385 311 385 311 344 181.5 c 128,-1,24
 303 52 303 52 295 -14 c 1,25,-1
 63 20 l 1,26,27
 80 152 80 152 131 284 c 128,-1,28
 182 416 182 416 235 494 c 1,29,-1
 324 541 l 1,0,1
EndSplineSet
EndChar

StartChar: y
Encoding: 121 121 90
Width: 1021
Flags: HMW
HStem: -549 21G<299 299> 0 209<435.5 471 435.5 505 249 471>
VStem: 140 228 642 243
LayerCount: 2
Fore
SplineSet
140 113 m 2,0,-1
 122 981 l 1,1,-1
 359 1030 l 1,2,-1
 378 223 l 1,3,4
 417 209 417 209 454 209 c 0,5,6
 542 209 542 209 638 256 c 1,7,-1
 646 971 l 1,8,-1
 873 999 l 1,9,-1
 885 -126 l 2,10,11
 885 -178 885 -178 809 -231 c 0,12,13
 539 -422 539 -422 299 -549 c 1,14,-1
 177 -330 l 1,15,16
 507 -181 507 -181 669 -82 c 1,17,-1
 654 164 l 1,18,-1
 505 0 l 1,19,-1
 249 0 l 1,20,21
 219 3 219 3 179.5 35 c 0,22,23
 140 67 140 67 140 113 c 2,0,-1
EndSplineSet
EndChar

StartChar: z
Encoding: 122 122 91
Width: 860
Flags: HMW
HStem: -66 1108<120 749>
VStem: 67 733<164 823>
LayerCount: 2
Fore
SplineSet
118 41 m 1,0,1
 84 170 84 170 77 322 c 1,2,-1
 544 729 l 1,3,-1
 526 793 l 1,4,5
 487 791 487 791 338 791 c 0,6,7
 189 791 189 791 67 823 c 1,8,-1
 120 1042 l 1,9,10
 501 991 501 991 753 969 c 1,11,-1
 796 690 l 1,12,13
 655 525 655 525 347.989265011 286.766643585 c 0,14,15
 344 283 344 283 341.5 281.5 c 128,-1,16
 339 280 339 280 335.5 277 c 128,-1,17
 332 274 332 274 329 272 c 1,18,-1
 342 215 l 1,19,20
 454 215 454 215 585 200 c 128,-1,21
 716 185 716 185 800 164 c 1,22,-1
 749 -66 l 1,23,24
 448 10 448 10 118 41 c 1,0,1
EndSplineSet
EndChar

StartChar: braceleft
Encoding: 123 123 92
Width: 680
Flags: HMW
HStem: -485 2101<518 587>
VStem: 194 248<-238 -226> 276 228<302 366.5> 291 223<750 835>
LayerCount: 2
Fore
SplineSet
276 362 m 1,0,-1
 274 385 l 1,1,-1
 112 530 l 1,2,-1
 137 657 l 1,3,-1
 291 750 l 1,4,5
 291 847 291 847 235.5 1102 c 128,-1,6
 180 1357 180 1357 180 1384 c 0,7,8
 180 1470 180 1470 237 1491 c 1,9,-1
 518 1616 l 1,10,-1
 606 1421 l 1,11,-1
 436 1354 l 1,12,13
 436 1335 436 1335 475 1101.5 c 128,-1,14
 514 868 514 868 514 795 c 128,-1,15
 514 722 514 722 505 692.5 c 128,-1,16
 496 663 496 663 463 645 c 2,17,-1
 352 584 l 1,18,-1
 352 567 l 1,19,-1
 458 498 l 2,20,21
 504 469 504 469 504 374 c 128,-1,22
 504 279 504 279 473 73.5 c 128,-1,23
 442 -132 442 -132 442 -238 c 1,24,-1
 643 -279 l 1,25,-1
 587 -485 l 1,26,-1
 284 -416 l 1,27,28
 232 -396 232 -396 213 -359 c 128,-1,29
 194 -322 194 -322 194 -276.5 c 128,-1,30
 194 -231 194 -231 235 33 c 128,-1,31
 276 297 276 297 276 362 c 1,0,-1
EndSplineSet
EndChar

StartChar: bar
Encoding: 124 124 93
Width: 626
Flags: HMW
HStem: -604 2117<215 426>
VStem: 213 213
LayerCount: 2
Fore
SplineSet
215 -604 m 1,0,-1
 211 1468 l 1,1,-1
 426 1513 l 1,2,-1
 426 752 l 1,3,-1
 395 -588 l 1,4,-1
 215 -604 l 1,0,-1
EndSplineSet
EndChar

StartChar: braceright
Encoding: 125 125 94
Width: 680
Flags: HMW
HStem: -486 2101<79 148>
VStem: 148 324 152 223<295 380 295 382.5> 162 228<763.5 828 763.5 853.5>
LayerCount: 2
Fore
SplineSet
390 768 m 1,0,-1
 392 745 l 1,1,-1
 554 600 l 1,2,-1
 529 473 l 1,3,-1
 375 380 l 1,4,5
 375 283 375 283 430.5 28 c 128,-1,6
 486 -227 486 -227 486 -254 c 0,7,8
 486 -340 486 -340 429 -361 c 1,9,-1
 148 -486 l 1,10,-1
 60 -291 l 1,11,-1
 230 -224 l 1,12,13
 230 -205 230 -205 191 28.5 c 128,-1,14
 152 262 152 262 152 335 c 128,-1,15
 152 408 152 408 161 437.5 c 128,-1,16
 170 467 170 467 203 485 c 2,17,-1
 314 546 l 1,18,-1
 314 563 l 1,19,-1
 208 632 l 2,20,21
 162 661 162 661 162 756 c 128,-1,22
 162 851 162 851 193 1056.5 c 128,-1,23
 224 1262 224 1262 224 1368 c 1,24,-1
 23 1409 l 1,25,-1
 79 1615 l 1,26,-1
 382 1546 l 1,27,28
 434 1526 434 1526 453 1489 c 128,-1,29
 472 1452 472 1452 472 1406.5 c 128,-1,30
 472 1361 472 1361 431 1097 c 128,-1,31
 390 833 390 833 390 768 c 1,0,-1
EndSplineSet
EndChar

StartChar: asciitilde
Encoding: 126 126 95
Width: 1007
Flags: HMW
HStem: 455 354<291.5 743>
VStem: 43 932<584 694>
LayerCount: 2
Fore
SplineSet
106 492 m 1,0,-1
 43 584 l 1,1,2
 81 641 81 641 180.5 725 c 128,-1,3
 280 809 280 809 320.5 809 c 128,-1,4
 361 809 361 809 530 739.5 c 128,-1,5
 699 670 699 670 711 670 c 128,-1,6
 723 670 723 670 893 791 c 1,7,-1
 975 694 l 1,8,9
 937.160048135 634.252707581 937.160048135 634.252707581 876.080024067 571.626353791 c 0,10,11
 762.333333333 455 762.333333333 455 696 455 c 0,12,13
 654 455 654 455 490 525.5 c 128,-1,14
 326 596 326 596 323 596 c 128,-1,15
 320 596 320 596 300.5 585.5 c 0,16,17
 221.441860465 542.930232558 221.441860465 542.930232558 106 492 c 1,0,-1
EndSplineSet
EndChar

StartChar: exclamdown
Encoding: 161 161 96
Width: 589
Flags: HMW
HStem: -410 1402<145 186>
VStem: 153 240<705 832>
LayerCount: 2
Fore
SplineSet
164 693 m 1,0,1
 153 732 153 732 153 791.5 c 128,-1,2
 153 851 153 851 163 910 c 128,-1,3
 173 969 173 969 186 992 c 1,4,-1
 409 967 l 1,5,6
 401.808988764 900.483146067 401.808988764 900.483146067 397.904494382 812.241573034 c 128,-1,7
 394 724 394 724 393 705 c 1,8,-1
 164 693 l 1,0,1
141 -126 m 1,9,-1
 188 513 l 1,10,-1
 379 501 l 1,11,-1
 389 -365 l 1,12,-1
 145 -410 l 1,13,-1
 141 -126 l 1,9,-1
EndSplineSet
EndChar

StartChar: cent
Encoding: 162 162 97
Width: 796
Flags: HMW
HStem: -26 21G<497 497>
VStem: 116 248<388 432 380 450.5>
LayerCount: 2
Fore
SplineSet
137 131 m 1,0,1
 116 268 116 268 116 369 c 0,2,3
 116 674.64516129 116 674.64516129 153 868 c 1,4,5
 160 923 160 923 200 936 c 0,6,7
 266 957 266 957 401 978 c 1,8,-1
 418 1278 l 1,9,-1
 612 1284 l 1,10,-1
 573 1003 l 1,11,12
 709 1021 709 1021 732 1024 c 1,13,-1
 766 805 l 1,14,15
 466 772 466 772 389 752 c 1,16,17
 364 596.444444444 364 596.444444444 364 449.222222222 c 128,-1,18
 364 302 364 302 374 229 c 1,19,20
 507 198 507 198 753 147 c 1,21,-1
 694 -63 l 1,22,23
 597 -47 597 -47 497 -26 c 1,24,-1
 481 -273 l 1,25,-1
 296 -257 l 1,26,-1
 330 8 l 1,27,-1
 337 8 l 1,28,29
 234 33 234 33 200 47 c 1,30,31
 145 65 145 65 137 131 c 1,0,1
EndSplineSet
EndChar

StartChar: sterling
Encoding: 163 163 98
Width: 839
Flags: HMW
HStem: 410 181 424 164<255 324>
VStem: 36 763<137 231>
LayerCount: 2
Fore
SplineSet
92 33 m 1,0,1
 51 116 51 116 36 231 c 1,2,-1
 255 424 l 1,3,4
 173 431 173 431 92 445 c 1,5,-1
 112 594 l 1,6,7
 205 588 205 588 324 588 c 1,8,-1
 233 871 l 1,9,10
 256 935 256 935 270 951 c 1,11,12
 435 1038 435 1038 761 1079 c 1,13,-1
 786 838 l 1,14,15
 736 838 736 838 624.5 823.5 c 128,-1,16
 513 809 513 809 467 797 c 1,17,18
 476 725 476 725 515 591 c 1,19,20
 636 594 636 594 717 600 c 1,21,-1
 708 414 l 1,22,23
 661 410 661 410 578.5 410 c 128,-1,24
 496 410 496 410 465 411 c 1,25,-1
 334 226 l 1,26,27
 340 195 340 195 347 188 c 1,28,29
 595 188 595 188 799 137 c 1,30,-1
 753 -88 l 1,31,-1
 92 33 l 1,0,1
EndSplineSet
EndChar

StartChar: yen
Encoding: 165 165 99
Width: 942
Flags: HMW
HStem: -17 21G<364 364> 0 21G<569 569> 181 152<590 809> 192 144<362 363> 452 154
VStem: 361 236 363 211
LayerCount: 2
Fore
SplineSet
871 182 m 1,0,-1
 795 181 l 1,1,2
 698 181 698 181 581 184 c 1,3,-1
 569 0 l 1,4,-1
 364 -17 l 1,5,-1
 363 192 l 1,6,7
 141 204 141 204 46 223 c 1,8,-1
 67 350 l 1,9,10
 170 339 170 339 362 336 c 1,11,-1
 361 455 l 1,12,13
 138 460 138 460 48 479 c 1,14,-1
 63 607 l 1,15,16
 133 601 133 601 260 601 c 1,17,18
 249 626 249 626 172.5 786.5 c 128,-1,19
 96 947 96 947 62 1033 c 1,20,-1
 309 1090 l 1,21,-1
 450 631 l 1,22,-1
 478 631 l 2,23,24
 491 631 491 631 513 635 c 1,25,-1
 658 1085 l 1,26,-1
 897 1048 l 1,27,28
 858.426966292 932.280898876 858.426966292 932.280898876 789.213483146 794.640449438 c 128,-1,29
 720 657 720 657 697 606 c 1,30,31
 859 609 859 609 899 612 c 1,32,-1
 883 458 l 1,33,34
 778 452 778 452 598 452 c 1,35,-1
 598 446 l 1,36,-1
 590 333 l 1,37,-1
 704 333 l 2,38,39
 861 333 861 333 891 334 c 1,40,-1
 871 182 l 1,0,-1
EndSplineSet
EndChar

StartChar: section
Encoding: 167 167 100
Width: 932
Flags: HMW
HStem: -332 1667<116 723>
VStem: 65 725
LayerCount: 2
Fore
SplineSet
65 -113 m 1,0,1
 119 -106 119 -106 268.5 -82 c 128,-1,2
 418 -58 418 -58 479 -49 c 1,3,-1
 499 47 l 1,4,5
 233.545454545 232.454545455 233.545454545 232.454545455 229 237 c 0,6,7
 185 272 185 272 172 315 c 0,8,9
 121 482 121 482 106 610 c 1,10,-1
 307 664 l 1,11,12
 325 498 325 498 366 406 c 1,13,14
 439 423 439 423 544 471 c 1,15,-1
 555 635 l 1,16,-1
 205 768 l 2,17,18
 176 779 176 779 158.5 813.5 c 128,-1,19
 141 848 141 848 141 868.578408686 c 128,-1,20
 141 889.156817372 141 889.156817372 142.657861516 902.992716352 c 2,21,-1
 166 1110 l 1,22,23
 176.285714286 1187.14285714 176.285714286 1187.14285714 246 1222 c 0,24,25
 286.081871345 1242.04093567 286.081871345 1242.04093567 457.040935673 1280.52046784 c 128,-1,26
 628 1319 628 1319 723 1335 c 1,27,-1
 768 1106 l 1,28,-1
 379 1049 l 1,29,-1
 362 952 l 1,30,-1
 731 780 l 2,31,32
 790 753 790 753 790 684 c 0,33,34
 790 682 790 682 782.5 619 c 128,-1,35
 775 556 775 556 764.5 465.5 c 128,-1,36
 754 375 754 375 745.5 360.5 c 128,-1,37
 737 346 737 346 726.5 336 c 128,-1,38
 716 326 716 326 699.5 317 c 0,39,40
 674.911764706 303.588235294 674.911764706 303.588235294 641.455882353 293.294117647 c 128,-1,41
 608 283 608 283 590.5 277.5 c 128,-1,42
 573 272 573 272 553 266 c 1,43,-1
 587 242 l 1,44,45
 674 182 674 182 699.5 156 c 128,-1,46
 725 130 725 130 725 109 c 128,-1,47
 725 88 725 88 688 -119 c 1,48,49
 678.355223881 -199.373134328 678.355223881 -199.373134328 559 -242 c 0,50,51
 467.75862069 -274.586206897 467.75862069 -274.586206897 331.879310345 -300.293103448 c 128,-1,52
 196 -326 196 -326 116 -332 c 1,53,-1
 65 -113 l 1,0,1
EndSplineSet
EndChar

StartChar: currency
Encoding: 164 164 101
Width: 1058
Flags: HMW
HStem: 180 170<536.5 580.5 536.5 590.5> 659 181<530.5 562>
VStem: 209 174<508.5 540> 684 176<505.5 548.5>
LayerCount: 2
Fore
SplineSet
830 716 m 1,0,1
 860 652 860 652 860 534.538461538 c 128,-1,2
 860 417.076923077 860 417.076923077 801 290 c 1,3,4
 934 155 934 155 962 109 c 1,5,-1
 831 -18 l 1,6,7
 754 89 754 89 683 189 c 1,8,9
 642 180 642 180 551.5 180 c 128,-1,10
 461 180 461 180 375 211 c 1,11,12
 266 65 266 65 219 23 c 1,13,-1
 78 137 l 1,14,15
 167 224 167 224 252 310 c 1,16,17
 209 419.888888889 209 419.888888889 209 529.444444444 c 128,-1,18
 209 639 209 639 231 701 c 1,19,20
 101 833 101 833 73 879 c 1,21,-1
 207 1004 l 1,22,23
 281 904 281 904 351 806 c 1,24,25
 434.692307692 840 434.692307692 840 536.346153846 840 c 128,-1,26
 638 840 638 840 711 817 c 1,27,28
 818 961 818 961 862 999 c 1,29,-1
 995 885 l 1,30,31
 911 800 911 800 830 716 c 1,0,1
409 633 m 1,32,33
 383 600 383 600 383 516 c 128,-1,34
 383 432 383 432 416.5 391 c 128,-1,35
 450 350 450 350 567 350 c 0,36,37
 618 350 618 350 639 360 c 1,38,39
 684 429 684 429 684 518 c 128,-1,40
 684 607 684 607 651 645 c 1,41,42
 619 659 619 659 534.5 659 c 128,-1,43
 450 659 450 659 409 633 c 1,32,33
EndSplineSet
EndChar

StartChar: quotesingle
Encoding: 39 39 102
Width: 430
Flags: HMW
HStem: 1309 20G<313 313>
VStem: 94 245<1085.5 1292>
LayerCount: 2
Fore
SplineSet
137 793 m 1,0,1
 140 836 140 836 140 881 c 0,2,3
 140 1086 140 1086 94 1292 c 1,4,-1
 313 1329 l 1,5,6
 339 1252 339 1252 339 1119.5 c 0,7,8
 339 987 339 987 297 821 c 1,9,-1
 137 793 l 1,0,1
EndSplineSet
EndChar

StartChar: quotedblleft
Encoding: 8220 8220 103
Width: 954
Flags: HW
LayerCount: 2
Fore
SplineSet
581 748 m 1,0,1
 552 828 552 828 552 923.5 c 0,2,3
 552 1131.16666667 552 1131.16666667 673 1298 c 1,4,-1
 841 1327 l 1,5,6
 801 1259 801 1259 778 1176 c 128,-1,7
 755 1093 755 1093 753 1028 c 1,8,-1
 829 1016 l 1,9,-1
 852 782 l 1,10,-1
 581 748 l 1,0,1
147 748 m 1,11,12
 118 828 118 828 118 923.5 c 0,13,14
 118 1131.16666667 118 1131.16666667 239 1298 c 1,15,-1
 407 1327 l 1,16,17
 367 1259 367 1259 344 1176 c 128,-1,18
 321 1093 321 1093 319 1028 c 1,19,-1
 395 1016 l 1,20,-1
 418 782 l 1,21,-1
 147 748 l 1,11,12
EndSplineSet
EndChar

StartChar: guillemotleft
Encoding: 171 171 104
Width: 1206
Flags: HMW
HStem: 41 950<436 444 436 966>
VStem: 80 1027<157 446>
LayerCount: 2
Fore
SplineSet
602 446 m 1,0,-1
 624 587 l 1,1,-1
 958 991 l 1,2,-1
 1103 872 l 1,3,-1
 870 516 l 1,4,-1
 1107 157 l 1,5,-1
 966 41 l 1,6,-1
 602 446 l 1,0,-1
444 41 m 1,7,-1
 80 446 l 1,8,-1
 102 587 l 1,9,-1
 436 991 l 1,10,-1
 581 872 l 1,11,-1
 348 516 l 1,12,-1
 585 157 l 1,13,-1
 444 41 l 1,7,-1
EndSplineSet
EndChar

StartChar: guilsinglleft
Encoding: 8249 8249 105
Width: 684
Flags: HMW
HStem: 23 950<436 444>
VStem: 80 505<139 428>
LayerCount: 2
Fore
SplineSet
80 428 m 1,0,-1
 102 569 l 1,1,-1
 436 973 l 1,2,-1
 581 854 l 1,3,-1
 348 498 l 1,4,-1
 585 139 l 1,5,-1
 444 23 l 1,6,-1
 80 428 l 1,0,-1
EndSplineSet
EndChar

StartChar: guilsinglright
Encoding: 8250 8250 106
Width: 684
Flags: HMW
HStem: 35 950<226 234>
VStem: 85 505<580 869>
LayerCount: 2
Fore
SplineSet
89 154 m 1,0,-1
 322 510 l 1,1,-1
 85 869 l 1,2,-1
 226 985 l 1,3,-1
 590 580 l 1,4,-1
 568 439 l 1,5,-1
 234 35 l 1,6,-1
 89 154 l 1,0,-1
EndSplineSet
EndChar

StartChar: endash
Encoding: 8211 8211 107
Width: 1298
Flags: HMW
HStem: 420 209<453.5 632.5>
VStem: 125 1058<430 629>
LayerCount: 2
Fore
SplineSet
125 430 m 1,0,-1
 153 629 l 1,1,-1
 1183 629 l 1,2,-1
 1165 438 l 1,3,4
 722 420 722 420 504 420 c 0,5,6
 286 420 286 420 125 430 c 1,0,-1
EndSplineSet
EndChar

StartChar: periodcentered
Encoding: 183 183 108
Width: 588
Flags: HW
LayerCount: 2
Fore
SplineSet
417 744 m 1,0,1
 428 703 428 703 428 593.884615385 c 128,-1,2
 428 484.769230769 428 484.769230769 398 434 c 1,3,-1
 169 457 l 1,4,5
 177 589 177 589 177 634 c 128,-1,6
 177 679 177 679 175 719 c 1,7,-1
 417 744 l 1,0,1
EndSplineSet
EndChar

StartChar: paragraph
Encoding: 182 182 109
Width: 1175
Flags: HMW
HStem: -551 21G<458 458> 207 190 1313 20G<981 981>
VStem: 651 235
LayerCount: 2
Fore
SplineSet
262.5 238 m 128,-1,1
 241 256 241 256 216 318 c 128,-1,2
 191 380 191 380 163 584 c 128,-1,3
 135 788 135 788 135 926.5 c 128,-1,4
 135 1065 135 1065 150 1123 c 128,-1,5
 165 1181 165 1181 213 1195 c 0,6,7
 351.525423729 1235.9279661 351.525423729 1235.9279661 631.762711864 1278.46398305 c 128,-1,8
 912 1321 912 1321 981 1333 c 1,9,-1
 1030 1104 l 1,10,11
 959 1092 959 1092 827.5 1073 c 0,12,13
 539.714659686 1031.41884817 539.714659686 1031.41884817 495 1016 c 1,14,15
 485 968 485 968 485 875 c 128,-1,16
 485 782 485 782 497 636.5 c 128,-1,17
 509 491 509 491 534 410 c 1,18,19
 590 397 590 397 651 397 c 1,20,-1
 651 926 l 1,21,-1
 870 967 l 1,22,-1
 886 -164 l 2,23,24
 886 -195.083333333 886 -195.083333333 862.5 -220.541666667 c 128,-1,25
 839 -246 839 -246 797.5 -287.5 c 128,-1,26
 756 -329 756 -329 653.5 -409 c 128,-1,27
 551 -489 551 -489 458 -551 c 1,28,-1
 331 -346 l 1,29,30
 512 -233 512 -233 671 -98 c 1,31,-1
 657 197 l 1,32,-1
 334 217 l 2,33,0
 284 220 284 220 262.5 238 c 128,-1,1
EndSplineSet
EndChar

StartChar: bullet
Encoding: 8226 8226 110
Width: 721
Flags: HMW
HStem: 395 405<501 522>
VStem: 193 343<423 683.5>
LayerCount: 2
Fore
SplineSet
193 423 m 1,0,1
 203 561 203 561 203 642 c 0,2,3
 203 723 203 723 201 769 c 1,4,-1
 522 800 l 1,5,6
 536 748 536 748 536 661.5 c 0,7,8
 536 575 536 575 525.5 498 c 128,-1,9
 515 421 515 421 501 395 c 1,10,-1
 193 423 l 1,0,1
EndSplineSet
EndChar

StartChar: quotesinglbase
Encoding: 8218 8218 111
Width: 520
Flags: HW
LayerCount: 2
Fore
SplineSet
141 35 m 1,0,-1
 118 268 l 1,1,-1
 389 303 l 1,2,3
 418 223 418 223 418 145 c 0,4,5
 418 -92 418 -92 295 -262 c 1,6,-1
 291 -262 l 1,7,-1
 155 -238 l 1,8,9
 211.926618705 -113.981294964 211.926618705 -113.981294964 217 23 c 1,10,-1
 141 35 l 1,0,-1
EndSplineSet
EndChar

StartChar: quotedblbase
Encoding: 8222 8222 112
Width: 954
Flags: HW
LayerCount: 2
Fore
SplineSet
551 28 m 1,0,-1
 528 262 l 1,1,-1
 799 296 l 1,2,3
 828 216 828 216 828 120.5 c 0,4,5
 828 -87.1666666667 828 -87.1666666667 707 -254 c 1,6,-1
 539 -283 l 1,7,8
 579 -215 579 -215 602 -132 c 128,-1,9
 625 -49 625 -49 627 16 c 1,10,-1
 551 28 l 1,0,-1
117 28 m 1,11,-1
 94 262 l 1,12,-1
 365 296 l 1,13,14
 394 216 394 216 394 120.5 c 0,15,16
 394 -87.1666666667 394 -87.1666666667 273 -254 c 1,17,-1
 105 -283 l 1,18,19
 145 -215 145 -215 168 -132 c 128,-1,20
 191 -49 191 -49 193 16 c 1,21,-1
 117 28 l 1,11,-1
EndSplineSet
EndChar

StartChar: quotedblright
Encoding: 8221 8221 113
Width: 954
Flags: HW
LayerCount: 2
Fore
SplineSet
539 748 m 1,0,1
 579 816 579 816 602 899 c 128,-1,2
 625 982 625 982 627 1047 c 1,3,-1
 551 1059 l 1,4,-1
 528 1293 l 1,5,-1
 799 1327 l 1,6,7
 828 1247 828 1247 828 1151.5 c 0,8,9
 828 943.833333333 828 943.833333333 707 777 c 1,10,-1
 539 748 l 1,0,1
105 748 m 1,11,12
 145 816 145 816 168 899 c 128,-1,13
 191 982 191 982 193 1047 c 1,14,-1
 117 1059 l 1,15,-1
 94 1293 l 1,16,-1
 365 1327 l 1,17,18
 394 1247 394 1247 394 1151.5 c 0,19,20
 394 943.833333333 394 943.833333333 273 777 c 1,21,-1
 105 748 l 1,11,12
EndSplineSet
EndChar

StartChar: guillemotright
Encoding: 187 187 114
Width: 1209
Flags: HMW
HStem: 35 950<226 234 226 759>
VStem: 85 1030<580 869>
LayerCount: 2
Fore
SplineSet
614 154 m 1,0,-1
 847 510 l 1,1,-1
 610 869 l 1,2,-1
 751 985 l 1,3,-1
 1115 580 l 1,4,-1
 1093 439 l 1,5,-1
 759 35 l 1,6,-1
 614 154 l 1,0,-1
89 154 m 1,7,-1
 322 510 l 1,8,-1
 85 869 l 1,9,-1
 226 985 l 1,10,-1
 590 580 l 1,11,-1
 568 439 l 1,12,-1
 234 35 l 1,13,-1
 89 154 l 1,7,-1
EndSplineSet
EndChar

StartChar: questiondown
Encoding: 191 191 115
Width: 723
Flags: HMW
HStem: -424 1405<336 616>
VStem: 51 226<52 200.5> 336 230<926 981>
LayerCount: 2
Fore
SplineSet
336 671 m 1,0,1
 316 730 316 730 316 836.5 c 0,2,3
 316 943 316 943 336 981 c 1,4,-1
 566 972 l 1,5,6
 566 800 566 800 576 710 c 1,7,-1
 336 671 l 1,0,1
51 188 m 1,8,9
 51 216 51 216 90 249 c 2,10,-1
 337 455 l 1,11,12
 358 476 358 476 358 539 c 1,13,-1
 562 503 l 1,14,15
 569 467 569 467 569 435 c 128,-1,16
 569 403 569 403 554.5 382 c 0,17,18
 540 361 540 361 492 319.5 c 128,-1,19
 444 278 444 278 376 225.5 c 128,-1,20
 308 173 308 173 281 149 c 1,21,22
 277 105 277 105 277 43.5 c 0,23,24
 277 -18 277 -18 295 -115 c 1,25,26
 449 -133 449 -133 649 -184 c 1,27,-1
 616 -424 l 1,28,-1
 85 -321 l 1,29,30
 28 -312 28 -312 31 -251 c 2,31,-1
 51 188 l 1,8,9
EndSplineSet
EndChar

StartChar: grave
Encoding: 96 96 116
Width: 528
Flags: HMW
HStem: 1117 474<217 395>
VStem: 22 482<1220 1455>
LayerCount: 2
Fore
SplineSet
395 1117 m 1,0,1
 305 1168 305 1168 219.5 1242.5 c 0,2,3
 61.9693773392 1379.76352501 61.9693773392 1379.76352501 22 1455 c 1,4,-1
 217 1591 l 1,5,-1
 504 1220 l 1,6,-1
 395 1117 l 1,0,1
EndSplineSet
EndChar

StartChar: acute
Encoding: 180 180 117
Width: 553
Flags: HMW
HStem: 1117 472<153 334>
VStem: 45 463<1220 1425>
LayerCount: 2
Fore
SplineSet
153 1117 m 1,0,-1
 45 1220 l 1,1,-1
 334 1589 l 1,2,-1
 508 1425 l 1,3,4
 462 1356 462 1356 349 1259.5 c 0,5,6
 236 1163 236 1163 153 1117 c 1,0,-1
EndSplineSet
EndChar

StartChar: circumflex
Encoding: 710 710 118
Width: 692
Flags: HMW
HStem: 1134 401<135 440 440 547>
VStem: 26 645<1230 1232>
LayerCount: 2
Fore
SplineSet
135 1134 m 1,0,-1
 26 1232 l 1,1,-1
 250 1529 l 1,2,-1
 440 1535 l 1,3,-1
 671 1230 l 1,4,-1
 547 1134 l 1,5,6
 429 1229 429 1229 338 1316 c 1,7,8
 244 1213 244 1213 135 1134 c 1,0,-1
EndSplineSet
EndChar

StartChar: tilde
Encoding: 732 732 119
Width: 807
Flags: HW
LayerCount: 2
Fore
SplineSet
127 1152 m 1,0,-1
 63 1244 l 1,1,2
 103 1305 103 1305 177.5 1373 c 128,-1,3
 252 1441 252 1441 292 1441 c 128,-1,4
 332 1441 332 1441 419 1396 c 128,-1,5
 506 1351 506 1351 516.5 1351 c 128,-1,6
 527 1351 527 1351 671 1453 c 1,7,-1
 747 1359 l 1,8,9
 639.784 1198.176 639.784 1198.176 573.5 1155.5 c 0,10,11
 537 1132 537 1132 505 1132 c 128,-1,12
 473 1132 473 1132 425 1155 c 128,-1,13
 377 1178 377 1178 339 1201 c 128,-1,14
 301 1224 301 1224 293.5 1224 c 128,-1,15
 286 1224 286 1224 127 1152 c 1,0,-1
EndSplineSet
EndChar

StartChar: macron
Encoding: 175 175 120
Width: 807
Flags: HMW
HStem: 1167 215<96 96 96 721>
VStem: 82 653<1382 1382>
LayerCount: 2
Fore
SplineSet
96 1167 m 1,0,-1
 82 1382 l 1,1,-1
 735 1382 l 1,2,-1
 721 1167 l 1,3,-1
 96 1167 l 1,0,-1
EndSplineSet
EndChar

StartChar: dieresis
Encoding: 168 168 121
Width: 708
Flags: HMW
HStem: 1142 311
VStem: 39 625<1313.5 1398>
LayerCount: 2
Fore
SplineSet
80 1156 m 1,0,1
 64 1296 64 1296 39 1398 c 1,2,-1
 256 1453 l 1,3,4
 291 1395 291 1395 291 1293 c 0,5,6
 291 1191 291 1191 278 1167 c 1,7,-1
 80 1156 l 1,0,1
413 1177 m 1,8,9
 431 1254 431 1254 431 1322 c 0,10,11
 431 1390 431 1390 426 1427 c 1,12,-1
 649 1443 l 1,13,14
 664 1412 664 1412 664 1353.5 c 0,15,16
 664 1295 664 1295 649 1232 c 128,-1,17
 634 1169 634 1169 616 1142 c 1,18,-1
 413 1177 l 1,8,9
EndSplineSet
EndChar

StartChar: ring
Encoding: 730 730 122
Width: 672
Flags: HMW
HStem: 1115 164<306.5 352.5 306.5 408.5> 1421 157<317.5 360.5>
VStem: 100 167 405 166
LayerCount: 2
Fore
SplineSet
507 1186 m 128,-1,1
 443 1115 443 1115 337 1115 c 128,-1,2
 231 1115 231 1115 165.5 1183.5 c 128,-1,3
 100 1252 100 1252 100 1360 c 128,-1,4
 100 1468 100 1468 166 1523 c 128,-1,5
 232 1578 232 1578 337.5 1578 c 128,-1,6
 443 1578 443 1578 507 1524.5 c 128,-1,7
 571 1471 571 1471 571 1364 c 128,-1,0
 571 1257 571 1257 507 1186 c 128,-1,1
284.5 1298.5 m 128,-1,9
 298 1279 298 1279 330.5 1279 c 0,10,11
 391.756756757 1279 391.756756757 1279 405 1349 c 1,12,13
 410.684210526 1421 410.684210526 1421 337 1421 c 0,14,15
 304 1421 304 1421 282.5 1403.5 c 128,-1,16
 261 1386 261 1386 266 1352 c 128,-1,8
 271 1318 271 1318 284.5 1298.5 c 128,-1,9
EndSplineSet
EndChar

StartChar: cedilla
Encoding: 184 184 123
Width: 575
Flags: HMW
HStem: -532 21G<143 143>
VStem: 98 371<-375 -206>
LayerCount: 2
Fore
SplineSet
182 53 m 1,0,-1
 323 74 l 1,1,-1
 291 -102 l 1,2,3
 410 -134 410 -134 442 -150 c 1,4,5
 469 -161 469 -161 469 -209.5 c 0,6,7
 469 -258 469 -258 452.5 -329 c 128,-1,8
 436 -400 436 -400 420 -424 c 0,9,10
 390 -467 390 -467 143 -532 c 1,11,-1
 98 -375 l 1,12,13
 105 -373 105 -373 274 -322 c 1,14,-1
 280 -264 l 1,15,16
 208 -242 208 -242 100 -223 c 1,17,-1
 182 53 l 1,0,-1
EndSplineSet
EndChar

StartChar: caron
Encoding: 711 711 124
Width: 682
Flags: HMW
HStem: 1124 401<143 250>
VStem: 18 643<1429 1429>
LayerCount: 2
Fore
SplineSet
250 1124 m 1,0,-1
 18 1429 l 1,1,-1
 143 1525 l 1,2,3
 261 1430 261 1430 352 1343 c 1,4,5
 446 1446 446 1446 555 1525 c 1,6,-1
 661 1429 l 1,7,-1
 432 1142 l 1,8,-1
 250 1124 l 1,0,-1
EndSplineSet
EndChar

StartChar: emdash
Encoding: 8212 8212 125
Width: 2320
Flags: HMW
HStem: 420 209<606 955.5>
VStem: 125 2080<436 629>
LayerCount: 2
Fore
SplineSet
125 436 m 1,0,-1
 153 629 l 1,1,-1
 2205 629 l 1,2,-1
 2187 438 l 1,3,4
 1616 420 1616 420 1118.5 420 c 0,5,6
 621 420 621 420 516 422.5 c 128,-1,7
 411 425 411 425 284.5 430 c 128,-1,8
 158 435 158 435 125 436 c 1,0,-1
EndSplineSet
EndChar

StartChar: AE
Encoding: 198 198 126
Width: 1591
Flags: HMW
HStem: -16 21G<325 325> 331 213 515 219
VStem: 782 229
LayerCount: 2
Fore
SplineSet
1008 225 m 1,0,1
 1086.76530612 211.448979592 1086.76530612 211.448979592 1493 152 c 1,2,-1
 1440 -68 l 1,3,4
 1185.33333333 -36.1666666667 1185.33333333 -36.1666666667 1106.16666667 -21.5833333333 c 128,-1,5
 1027 -7 1027 -7 972 3 c 0,6,7
 856.11627907 24.0697674419 856.11627907 24.0697674419 789 43 c 1,8,-1
 776 1075 l 1,9,-1
 536 1051 l 1,10,-1
 461 547 l 1,11,-1
 699 541 l 1,12,-1
 670 332 l 1,13,14
 656 331 656 331 603 331 c 128,-1,15
 550 331 550 331 424 354 c 1,16,-1
 325 -16 l 1,17,-1
 84 49 l 1,18,-1
 231 594 l 1,19,-1
 344 1227 l 1,20,21
 458 1253 458 1253 656 1279.5 c 128,-1,22
 854 1306 854 1306 1002 1317 c 1,23,-1
 1444 1354 l 1,24,-1
 1477 1124 l 1,25,26
 1472 1129 1472 1129 1004 1092 c 1,27,-1
 1014 725 l 1,28,-1
 1444 743 l 1,29,-1
 1428 508 l 1,30,-1
 1016 522 l 1,31,-1
 1008 225 l 1,0,1
EndSplineSet
EndChar

StartChar: ordfeminine
Encoding: 170 170 127
Width: 786
Flags: HMW
HStem: 48 1238<166 678>
VStem: 102 194<718.5 732 718.5 763> 444 193<965 1141.5 1036 1141.5>
LayerCount: 2
Fore
SplineSet
147 531 m 0,0,1
 102 547.875 102 547.875 102 738 c 0,2,3
 102 789 102 789 115 851.5 c 128,-1,4
 128 914 128 914 151 920 c 0,5,6
 217.795298727 938.640548482 217.795298727 938.640548482 322.397649363 950.820274241 c 128,-1,7
 427 963 427 963 444 965 c 1,8,-1
 444 1036 l 1,9,10
 341.543859649 1055.21052632 341.543859649 1055.21052632 249.271929825 1067.60526316 c 128,-1,11
 157 1080 157 1080 125 1085 c 1,12,-1
 166 1286 l 1,13,14
 269.25 1271.25 269.25 1271.25 292.625 1267.125 c 128,-1,15
 316 1263 316 1263 358.5 1256 c 128,-1,16
 401 1249 401 1249 422.5 1244.5 c 128,-1,17
 444 1240 444 1240 477 1233 c 0,18,19
 535.325581395 1220.62790698 535.325581395 1220.62790698 586.162790698 1202.31395349 c 128,-1,20
 637 1184 637 1184 637 1128 c 2,21,-1
 639 733 l 1,22,-1
 456 719 l 1,23,-1
 450 813 l 1,24,25
 388 803 388 803 303 776 c 1,26,27
 296 736 296 736 296 723 c 128,-1,28
 296 710 296 710 299 688 c 1,29,30
 405 665 405 665 684 633 c 1,31,-1
 649 438 l 1,32,33
 312 470 312 470 147 531 c 0,0,1
100 138 m 1,34,-1
 123 316 l 1,35,36
 249 290 249 290 425 271.5 c 128,-1,37
 601 253 601 253 702 249 c 1,38,-1
 678 48 l 1,39,40
 338 61 338 61 100 138 c 1,34,-1
EndSplineSet
EndChar

StartChar: Lslash
Encoding: 321 321 128
Width: 782
Flags: HMW
HStem: -27 21G<696 696>
VStem: 166 252<821 1260 1260 1260>
LayerCount: 2
Fore
SplineSet
166 84 m 1,0,-1
 166 513 l 1,1,2
 120 493 120 493 61 473 c 1,3,-1
 35 632 l 1,4,-1
 166 692 l 1,5,-1
 166 1260 l 1,6,-1
 418 1300 l 1,7,-1
 418 821 l 1,8,9
 419 821 419 821 420 822 c 2,10,-1
 619 936 l 1,11,-1
 689 750 l 1,12,13
 624 702 624 702 409 613 c 1,14,-1
 387 264 l 1,15,16
 456 237 456 237 753 195 c 1,17,-1
 696 -27 l 1,18,19
 564 -11 564 -11 394.5 23 c 128,-1,20
 225 57 225 57 166 84 c 1,0,-1
EndSplineSet
EndChar

StartChar: Oslash
Encoding: 216 216 129
Width: 1218
Flags: HMW
HStem: -16 227<514 516 516 539> 1090 233<1063 1099> 1298 20G<928 928> 1303 20G<1063 1063>
VStem: 137 250<714.5 772 714.5 884.5> 821 250<707.5 950>
LayerCount: 2
Fore
SplineSet
232 78 m 0,0,1
 187 197 187 197 162 396.5 c 128,-1,2
 137 596 137 596 137 721 c 128,-1,3
 137 846 137 846 138.5 884.5 c 128,-1,4
 140 923 140 923 146 973.5 c 128,-1,5
 152 1024 152 1024 165 1059 c 128,-1,6
 178 1094 178 1094 198.5 1129.5 c 0,7,8
 238.022449783 1197.94131548 238.022449783 1197.94131548 331 1231 c 0,9,10
 482 1285 482 1285 787 1309 c 1,11,-1
 866 1521 l 1,12,-1
 986 1474 l 1,13,-1
 928 1318 l 1,14,15
 1017 1322 1017 1322 1063 1323 c 1,16,-1
 1099 1090 l 1,17,18
 964 1084 964 1084 835 1071 c 1,19,-1
 514 211 l 1,20,-1
 516 211 l 2,21,22
 690.857142857 211 690.857142857 211 788 231 c 1,23,24
 821 440 821 440 821 950 c 1,25,-1
 1067 934 l 1,26,27
 1071 860 1071 860 1071 757 c 128,-1,28
 1071 654 1071 654 1055 470 c 128,-1,29
 1039 286 1039 286 1021 193 c 128,-1,30
 1003 100 1003 100 987.5 69.5 c 128,-1,31
 972 39 972 39 929.5 20.5 c 128,-1,32
 887 2 887 2 746 -7 c 128,-1,33
 605 -16 605 -16 541 -16 c 128,-1,34
 477 -16 477 -16 429 -14 c 1,35,-1
 350 -228 l 1,36,-1
 229 -187 l 1,37,-1
 301 7 l 1,38,39
 251 27 251 27 232 78 c 0,0,1
412 303 m 1,40,-1
 692 1055 l 1,41,42
 482 1029 482 1029 407 1001 c 1,43,44
 387 912 387 912 387 717 c 128,-1,45
 387 522 387 522 412 303 c 1,40,-1
EndSplineSet
EndChar

StartChar: OE
Encoding: 338 338 130
Width: 1577
Flags: HMW
HStem: -16 21G<455.5 527.5> 511 223 1048 234<530 696.5> 1297 20G<1434 1434>
VStem: 129 260<684 795.5 677 899> 773 224
LayerCount: 2
Fore
SplineSet
993 225 m 1,0,-1
 1479 152 l 1,1,-1
 1425 -68 l 1,2,3
 1027 -13 1027 -13 848 38 c 1,4,5
 780 17 780 17 665 0.5 c 128,-1,6
 550 -16 550 -16 460 -16 c 128,-1,7
 370 -16 370 -16 309.5 -1.5 c 128,-1,8
 249 13 249 13 224 78 c 0,9,10
 179 197 179 197 154 403 c 128,-1,11
 129 609 129 609 129 732.5 c 128,-1,12
 129 856 129 856 129.5 885.5 c 128,-1,13
 130 915 130 915 133.5 962.5 c 128,-1,14
 137 1010 137 1010 144 1038.5 c 128,-1,15
 151 1067 151 1067 164.5 1104 c 128,-1,16
 178 1141 178 1141 197.5 1164.5 c 0,17,18
 244.199374511 1220.77873339 244.199374511 1220.77873339 329.599687256 1251.38936669 c 128,-1,19
 415 1282 415 1282 633 1282 c 128,-1,20
 851 1282 851 1282 907 1207 c 1,21,22
 1197 1296 1197 1296 1434 1317 c 1,23,-1
 1468 1079 l 1,24,-1
 989 1016 l 1,25,-1
 999 725 l 1,26,-1
 1446 743 l 1,27,-1
 1436 500 l 1,28,-1
 1001 522 l 1,29,-1
 993 225 l 1,0,-1
442 213 m 1,30,31
 461 211 461 211 535 211 c 128,-1,32
 609 211 609 211 766 242 c 1,33,34
 773 415 773 415 773 610 c 128,-1,35
 773 805 773 805 750 1038 c 1,36,37
 620 1048 620 1048 537 1048 c 128,-1,38
 454 1048 454 1048 401 1028 c 1,39,40
 389 960 389 960 389 695 c 128,-1,41
 389 430 389 430 442 213 c 1,30,31
EndSplineSet
EndChar

StartChar: ordmasculine
Encoding: 186 186 131
Width: 800
Flags: HMW
HStem: 54 201<632 666> 475 184 1050 191<221.5 250.5>
VStem: 133 197<796 931> 499 207<886 958.5>
LayerCount: 2
Fore
SplineSet
331 987 m 1,0,-1
 330 920 l 1,1,2
 330 788 330 788 346 655 c 1,3,-1
 461 664 l 1,4,5
 499 826 499 826 499 912.5 c 128,-1,6
 499 999 499 999 493 1026 c 1,7,8
 477 1036 477 1036 381 1043 c 128,-1,9
 285 1050 285 1050 210.5 1050 c 128,-1,10
 136 1050 136 1050 114 1049 c 1,11,-1
 137 1237 l 1,12,13
 180 1241 180 1241 240 1241 c 0,14,15
 432 1241 432 1241 637 1199 c 0,16,17
 684 1190 684 1190 692 1130 c 1,18,19
 706 1037 706 1037 706 954 c 0,20,21
 706 751 706 751 638 543 c 0,22,23
 624 498 624 498 600 494 c 1,24,25
 518 475 518 475 383 475 c 128,-1,26
 248 475 248 475 219.5 485 c 128,-1,27
 191 495 191 495 180.5 508.5 c 0,28,29
 165.96969697 527.181818182 165.96969697 527.181818182 149.484848485 613.590909091 c 128,-1,30
 133 700 133 700 133 790 c 128,-1,31
 133 880 133 880 137 954 c 1,32,-1
 331 987 l 1,0,-1
106 124 m 1,33,-1
 120 300 l 1,34,35
 248 278 248 278 415.5 266.5 c 128,-1,36
 583 255 583 255 684 255 c 1,37,-1
 666 54 l 1,38,39
 359 54 359 54 106 124 c 1,33,-1
EndSplineSet
EndChar

StartChar: ae
Encoding: 230 230 132
Width: 1368
Flags: HMW
HStem: -25 21G<463 463> 372 190
VStem: 90 229<280 294.5 265.5 320> 562 227 571 223<127 375> 1048 226<369 588 369 624>
LayerCount: 2
Fore
SplineSet
149 53 m 0,0,1
 118 67 118 67 104 152 c 128,-1,2
 90 237 90 237 91 314 c 128,-1,3
 92 391 92 391 108 469 c 128,-1,4
 124 547 124 547 157.5 555.5 c 128,-1,5
 191 564 191 564 230 572 c 128,-1,6
 269 580 269 580 316.5 586 c 128,-1,7
 364 592 364 592 394.5 595.5 c 0,8,9
 444.0625 601.1875 444.0625 601.1875 563 612 c 1,10,-1
 561 754 l 1,11,12
 450.222222222 775.100529101 450.222222222 775.100529101 319.111111111 793.05026455 c 128,-1,13
 188 811 188 811 139 819 c 1,14,-1
 192 1038 l 1,15,16
 383 1011 383 1011 508.5 984 c 128,-1,17
 634 957 634 957 744 911 c 1,18,19
 948 1012 948 1012 1069 1012 c 0,20,21
 1145 1012 1145 1012 1186.5 993 c 128,-1,22
 1228 974 1228 974 1243 915 c 0,23,24
 1274 791 1274 791 1274 428 c 2,25,-1
 1274 369 l 1,26,-1
 794 375 l 1,27,-1
 794 233 l 1,28,29
 875 214 875 214 1044.5 187.5 c 128,-1,30
 1214 161 1214 161 1288 147 c 1,31,-1
 1229 -72 l 1,32,33
 964 -31 964 -31 645 67 c 0,34,35
 571 90 571 90 571 150 c 2,36,-1
 567 431 l 1,37,38
 398 402 398 402 329 383 c 1,39,40
 319 321 319 321 319 281.5 c 128,-1,41
 319 242 319 242 323 217 c 1,42,43
 375 205 375 205 508 182 c 1,44,-1
 463 -25 l 1,45,46
 401 -20 401 -20 298.5 6.5 c 128,-1,47
 196 33 196 33 149 53 c 0,0,1
790 557 m 1,48,-1
 1048 567 l 1,49,-1
 1048 588 l 2,50,51
 1048 666 1048 666 1030 782 c 1,52,53
 982 782 982 782 953.5 776.5 c 128,-1,54
 925 771 925 771 866 750 c 128,-1,55
 807 729 807 729 790 715 c 1,56,-1
 789 676 l 1,57,-1
 790 557 l 1,48,-1
EndSplineSet
EndChar

StartChar: dotlessi
Encoding: 305 305 133
Width: 596
Flags: HMW
HStem: -18 21G<186 186>
VStem: 176 234
LayerCount: 2
Fore
SplineSet
186 -18 m 1,0,-1
 166 969 l 1,1,-1
 420 1001 l 1,2,3
 425 911 425 911 425 834.5 c 0,4,5
 425 758 425 758 422 664 c 2,6,-1
 399 0 l 1,7,-1
 186 -18 l 1,0,-1
EndSplineSet
EndChar

StartChar: lslash
Encoding: 322 322 134
Width: 659
Flags: HMW
HStem: -18 21G<209 209> 0 21G<420 420>
VStem: 200 243 206 228
LayerCount: 2
Fore
SplineSet
209 -18 m 1,0,-1
 204 631 l 1,1,2
 97 574 97 574 49 559 c 1,3,-1
 16 735 l 1,4,-1
 202 823 l 1,5,-1
 198 1427 l 1,6,-1
 440 1473 l 1,7,-1
 447 949 l 1,8,-1
 598 1042 l 1,9,-1
 674 866 l 1,10,11
 556 791 556 791 450 748 c 1,12,-1
 420 0 l 1,13,-1
 209 -18 l 1,0,-1
EndSplineSet
EndChar

StartChar: oslash
Encoding: 248 248 135
Width: 1035
Flags: HMW
HStem: -29 21G<515.5 576> -19 21G<388 388> -4 21G 795 229<265.5 272.5>
VStem: 138 210<447.5 473 392 521> 695 227<540.5 643>
LayerCount: 2
Fore
SplineSet
357 674 m 1,0,-1
 348 415 l 1,1,2
 348 317 348 317 352 258 c 1,3,-1
 540 776 l 1,4,5
 379 795 379 795 262.5 795 c 128,-1,6
 146 795 146 795 113 793 c 1,7,-1
 146 1018 l 1,8,9
 213 1024 213 1024 342.5 1024 c 128,-1,10
 472 1024 472 1024 621 997 c 1,11,-1
 699 1212 l 1,12,-1
 820 1165 l 1,13,-1
 748 967 l 1,14,-1
 793 952 l 2,15,16
 835 937 835 937 852 920 c 0,17,18
 922 850 922 850 922 593.5 c 128,-1,19
 922 337 922 337 835 63 c 0,20,21
 814.785714286 2.35714285714 814.785714286 2.35714285714 783 -4 c 0,22,23
 661 -29 661 -29 564.5 -29 c 128,-1,24
 468 -29 468 -29 388 -19 c 1,25,-1
 312 -228 l 1,26,-1
 190 -187 l 1,27,-1
 261 9 l 1,28,29
 199.187919463 33.7248322148 199.187919463 33.7248322148 180.593959732 107.862416107 c 128,-1,30
 162 182 162 182 150 301.5 c 128,-1,31
 138 421 138 421 138 476 c 128,-1,32
 138 531 138 531 142 629 c 1,33,-1
 357 674 l 1,0,-1
458 172 m 1,34,35
 549 175 549 175 629 193 c 1,36,37
 695 455 695 455 695 580.5 c 128,-1,38
 695 706 695 706 676 750 c 1,39,-1
 669 752 l 1,40,-1
 458 172 l 1,34,35
EndSplineSet
EndChar

StartChar: oe
Encoding: 339 339 136
Width: 1449
Flags: HMW
HStem: -14 21G<470.5 511.5> -14 218 778 229<248 297>
VStem: 140 234<420 601.5> 629 220<559 559 559 629.5> 1103 225<387 645>
LayerCount: 2
Fore
SplineSet
375 670 m 1,0,-1
 374 588 l 1,1,2
 374 373 374 373 398 199 c 1,3,-1
 578 209 l 1,4,5
 629 393 629 393 629 600 c 0,6,7
 629 688 629 688 619 750 c 1,8,9
 597 762 597 762 471 770 c 128,-1,10
 345 778 345 778 238 778 c 128,-1,11
 131 778 131 778 97 776 c 1,12,-1
 128 1001 l 1,13,14
 197 1007 197 1007 273 1007 c 0,15,16
 495 1007 495 1007 672 971 c 1,17,18
 740 956 740 956 787 902 c 1,19,20
 997 1012 997 1012 1123 1012 c 0,21,22
 1188 1012 1188 1012 1238 991.5 c 128,-1,23
 1288 971 1288 971 1295 926 c 0,24,25
 1328 686 1328 686 1328 446 c 2,26,-1
 1328 387 l 1,27,-1
 835 383 l 1,28,29
 833 350 833 350 825 288 c 1,30,31
 1095 193 1095 193 1313 147 c 1,32,-1
 1254 -72 l 1,33,34
 1053 -35 1053 -35 745 94 c 1,35,36
 729 48 729 48 710.5 28.5 c 0,37,38
 670.179487179 -14 670.179487179 -14 482.08974359 -14 c 128,-1,39
 294 -14 294 -14 250 0.5 c 128,-1,40
 206 15 206 15 194 39.5 c 128,-1,41
 182 64 182 64 173 113 c 0,42,43
 140 281 140 281 140 421.5 c 128,-1,44
 140 562 140 562 144 625 c 1,45,-1
 375 670 l 1,0,-1
1102 586 m 1,46,-1
 1103 612 l 1,47,48
 1103 664 1103 664 1084 782 c 1,49,50
 1036 782 1036 782 1006.5 776.5 c 128,-1,51
 977 771 977 771 921 752 c 128,-1,52
 865 733 865 733 849 719 c 1,53,-1
 849 559 l 1,54,-1
 1102 586 l 1,46,-1
EndSplineSet
EndChar

StartChar: germandbls
Encoding: 223 223 137
Width: 1134
Flags: HMW
HStem: -16 21G<168 168> 1254 208
VStem: 139 257
LayerCount: 2
Fore
SplineSet
704 1100 m 1,0,-1
 706 1156 l 1,1,2
 706 1207 706 1207 698 1236 c 1,3,4
 641 1251 641 1251 518 1254 c 1,5,6
 449 1251 449 1251 388 1229 c 1,7,-1
 402 741 l 1,8,-1
 390 0 l 1,9,-1
 168 -16 l 1,10,-1
 139 1173 l 1,11,12
 139 1246.94117647 139 1246.94117647 200 1290 c 0,13,14
 230 1311 230 1311 269.5 1340.5 c 128,-1,15
 309 1370 309 1370 325.5 1381.5 c 128,-1,16
 342 1393 342 1393 366.5 1410.5 c 128,-1,17
 391 1428 391 1428 401.5 1433.5 c 128,-1,18
 412 1439 412 1439 428 1447 c 128,-1,19
 444 1455 444 1455 455 1457 c 0,20,21
 482.5 1462 482.5 1462 546.75 1462 c 128,-1,22
 611 1462 611 1462 737 1433 c 0,23,24
 773 1425 773 1425 846 1358 c 128,-1,25
 919 1291 919 1291 925.5 1247 c 128,-1,26
 932 1203 932 1203 932 1138.5 c 128,-1,27
 932 1074 932 1074 917 959 c 1,28,-1
 714 831 l 1,29,-1
 724 763 l 1,30,-1
 981 628 l 2,31,32
 1039 598 1039 598 1039 521 c 0,33,34
 1039 476 1039 476 1006 147 c 0,35,36
 1000.81696429 93.4419642857 1000.81696429 93.4419642857 907 58 c 1,37,38
 710 -21 710 -21 528 -43 c 1,39,-1
 490 194 l 1,40,41
 663 215 663 215 786 243 c 1,42,-1
 793 466 l 1,43,-1
 559 599 l 2,44,45
 501.332439678 631.678284182 501.332439678 631.678284182 496 701 c 2,46,-1
 481 912 l 1,47,48
 503.549707602 943.005847953 503.549707602 943.005847953 589.274853801 1009.50292398 c 128,-1,49
 675 1076 675 1076 704 1100 c 1,0,-1
EndSplineSet
EndChar

StartChar: onesuperior
Encoding: 185 185 138
Width: 661
Flags: HMW
HStem: 586 192
VStem: 249 213
LayerCount: 2
Fore
SplineSet
55 633 m 1,0,-1
 76 801 l 1,1,-1
 253 792 l 1,2,-1
 246 1174 l 1,3,4
 129 1174 129 1174 33 1188 c 1,5,-1
 71 1386 l 1,6,-1
 246 1356 l 1,7,-1
 246 1481 l 1,8,-1
 448 1509 l 1,9,10
 463 1427 463 1427 463 1334 c 0,11,12
 463 1241 463 1241 459 1171 c 1,13,-1
 431 783 l 1,14,-1
 608 774 l 1,15,-1
 596 586 l 1,16,17
 278 595 278 595 55 633 c 1,0,-1
EndSplineSet
EndChar

StartChar: logicalnot
Encoding: 172 172 139
Width: 1271
Flags: HMW
HStem: 522 193<125 1157 139 960>
VStem: 960 197<98 522 522 522>
LayerCount: 2
Fore
SplineSet
125 522 m 1,0,-1
 139 715 l 1,1,-1
 1157 715 l 1,2,-1
 1157 98 l 1,3,-1
 960 78 l 1,4,-1
 960 522 l 1,5,-1
 125 522 l 1,0,-1
EndSplineSet
EndChar

StartChar: mu
Encoding: 181 181 140
AltUni2: 0003bc.ffffffff.0
Width: 1265
Flags: HMW
HStem: -524 21G<186 186> -1 21G<545.5 577> 0 21G<950 1017>
VStem: 758 234
LayerCount: 2
Fore
SplineSet
370 147 m 1,0,-1
 432 -498 l 1,1,-1
 186 -524 l 1,2,3
 179 -331 179 -331 179 -118 c 128,-1,4
 179 95 179 95 195.5 462 c 128,-1,5
 212 829 212 829 215 979 c 1,6,-1
 446 1004 l 1,7,-1
 465 250 l 1,8,9
 518 221 518 221 581.5 221 c 128,-1,10
 645 221 645 221 745 270 c 1,11,-1
 772 985 l 1,12,-1
 999 985 l 1,13,-1
 987 193 l 1,14,-1
 1007 184 l 1,15,-1
 1163 246 l 1,16,-1
 1222 55 l 1,17,18
 1114 0 1114 0 973 0 c 0,19,20
 901 0 901 0 841 18 c 1,21,-1
 764 170 l 1,22,-1
 630 2 l 1,23,24
 609 -1 609 -1 551 -1 c 128,-1,25
 493 -1 493 -1 485 6 c 0,26,27
 447 36 447 36 383 150 c 1,28,-1
 370 147 l 1,0,-1
EndSplineSet
EndChar

StartChar: Eth
Encoding: 208 208 141
Width: 1210
Flags: HMW
HStem: -18 21G<201 201> 523 180 530 197 1081 242<70 136 70 136>
VStem: 201 235 201 248<-18 721 523 721 721 721 721 940 721 940> 798 253<756.5 870>
LayerCount: 2
Fore
SplineSet
431 209 m 1,0,-1
 452 211 l 1,1,2
 644.008645533 236.213256484 644.008645533 236.213256484 732 264 c 1,3,4
 798 539 798 539 798 836 c 0,5,6
 798 948 798 948 787 1030 c 1,7,8
 684 1049 684 1049 481.5 1065 c 128,-1,9
 279 1081 279 1081 97 1081 c 2,10,-1
 70 1081 l 1,11,-1
 115 1323 l 1,12,-1
 136 1323 l 2,13,14
 329 1323 329 1323 557.5 1299 c 128,-1,15
 786 1275 786 1275 887 1237 c 1,16,17
 922 1225 922 1225 981 1153.5 c 128,-1,18
 1040 1082 1040 1082 1043 1047 c 0,19,20
 1051 967 1051 967 1051 827 c 128,-1,21
 1051 687 1051 687 1018.5 479 c 128,-1,22
 986 271 986 271 930 133 c 0,23,24
 918 102 918 102 903.5 88 c 128,-1,25
 889 74 889 74 819.5 52 c 0,26,27
 674.644959099 6.14660575799 674.644959099 6.14660575799 201 -18 c 1,28,-1
 201 523 l 1,29,30
 140 526 140 526 80 532 c 1,31,-1
 98 700 l 1,32,-1
 201 706 l 1,33,-1
 201 940 l 1,34,-1
 447 993 l 1,35,-1
 451 778 l 1,36,-1
 449 721 l 1,37,-1
 651 733 l 1,38,-1
 637 545 l 1,39,40
 550 535 550 535 442 530 c 1,41,-1
 431 209 l 1,0,-1
EndSplineSet
EndChar

StartChar: onehalf
Encoding: 189 189 142
Width: 1814
Flags: HMW
HStem: -14 20 586 192 1307 20G<1370 1370>
VStem: 288 213 1098 203 1489 218
LayerCount: 2
Fore
SplineSet
94 633 m 1,0,-1
 114 801 l 1,1,-1
 292 792 l 1,2,-1
 284 1174 l 1,3,4
 169 1174 169 1174 71 1188 c 1,5,-1
 110 1386 l 1,6,-1
 284 1356 l 1,7,-1
 284 1481 l 1,8,-1
 487 1509 l 1,9,10
 501 1423 501 1423 501 1321 c 128,-1,11
 501 1219 501 1219 497 1171 c 2,12,-1
 469 783 l 1,13,-1
 647 774 l 1,14,-1
 635 586 l 1,15,16
 317 595 317 595 94 633 c 1,0,-1
418 -14 m 1,17,-1
 1177 1436 l 1,18,-1
 1370 1327 l 1,19,-1
 567 -98 l 1,20,-1
 418 -14 l 1,17,-1
1298 51 m 1,21,22
 1427.82158787 19.7466547725 1427.82158787 19.7466547725 1722 6 c 1,23,-1
 1689 -199 l 1,24,25
 1343.83867101 -182.999143689 1343.83867101 -182.999143689 1106 -92 c 1,26,27
 1098 -31 1098 -31 1098 51.5 c 128,-1,28
 1098 134 1098 134 1116 225 c 1,29,30
 1202 251 1202 251 1316.5 307 c 128,-1,31
 1431 363 1431 363 1491 408 c 1,32,-1
 1487 483 l 1,33,34
 1325.04365904 539.332640333 1325.04365904 539.332640333 1118 561 c 1,35,-1
 1177 760 l 1,36,37
 1417.56774037 721.755897685 1417.56774037 721.755897685 1491.37981852 702.632625584 c 128,-1,38
 1565.19189667 683.509353483 1565.19189667 683.509353483 1632 660 c 0,39,40
 1677 644 1677 644 1692 581 c 128,-1,41
 1707 518 1707 518 1707 441.5 c 128,-1,42
 1707 365 1707 365 1700 309 c 1,43,44
 1695 282 1695 282 1659 264 c 1,45,46
 1598 224 1598 224 1492.5 181.5 c 128,-1,47
 1387 139 1387 139 1304 119 c 1,48,-1
 1298 51 l 1,21,22
EndSplineSet
EndChar

StartChar: plusminus
Encoding: 177 177 143
Width: 1153
Flags: HMW
HStem: -47 193 -37 21G<125 125> 530 190 549 178
VStem: 471 203<522 530 530 530> 472 215
LayerCount: 2
Fore
SplineSet
473 240 m 1,0,-1
 471 522 l 1,1,-1
 471 530 l 1,2,-1
 450 530 l 2,3,4
 303 530 303 530 145 541 c 1,5,-1
 166 719 l 1,6,-1
 476 722 l 1,7,-1
 469 977 l 1,8,-1
 688 1022 l 1,9,-1
 688 860 l 1,10,-1
 682 725 l 1,11,-1
 1018 729 l 1,12,-1
 1007 549 l 1,13,14
 953 547 953 547 843.5 541.5 c 128,-1,15
 734 536 734 536 674 534 c 1,16,-1
 674 522 l 1,17,-1
 657 256 l 1,18,-1
 473 240 l 1,0,-1
125 -37 m 1,19,-1
 145 141 l 1,20,-1
 1038 152 l 1,21,-1
 1028 -29 l 1,22,23
 632 -47 632 -47 459 -47 c 128,-1,24
 286 -47 286 -47 125 -37 c 1,19,-1
EndSplineSet
EndChar

StartChar: Thorn
Encoding: 222 222 144
Width: 1104
Flags: HMW
HStem: -14 21G<217 217> 1313 20G<454 454>
VStem: 207 246 762 249<747.5 805>
LayerCount: 2
Fore
SplineSet
217 -14 m 1,0,-1
 198 1292 l 1,1,-1
 454 1333 l 1,2,-1
 454 772 l 1,3,-1
 446 428 l 1,4,5
 578 450 578 450 710 498 c 1,6,7
 729 551 729 551 745.5 640 c 128,-1,8
 762 729 762 729 762 777 c 128,-1,9
 762 825 762 825 757 862 c 1,10,11
 685 890 685 890 510 905 c 1,12,-1
 557 1130 l 1,13,14
 699 1115 699 1115 874 1070 c 0,15,16
 912 1060 912 1060 953 1016.5 c 128,-1,17
 994 973 994 973 1002.5 933.5 c 128,-1,18
 1011 894 1011 894 1011 794.5 c 128,-1,19
 1011 695 1011 695 986 573 c 128,-1,20
 961 451 961 451 917 350 c 1,21,22
 901.725685786 310.72319202 901.725685786 310.72319202 817 287 c 1,23,-1
 438 223 l 1,24,-1
 426 8 l 1,25,-1
 217 -14 l 1,0,-1
EndSplineSet
EndChar

StartChar: onequarter
Encoding: 188 188 145
Width: 1895
Flags: HMW
HStem: -14 21G<418 418> 23 184<1790.5 1831> 586 192 1307 20G<1370 1370>
VStem: 288 213 1499 186 1506 203
LayerCount: 2
Fore
SplineSet
94 633 m 1,0,-1
 114 801 l 1,1,-1
 292 792 l 1,2,-1
 284 1174 l 1,3,4
 169 1174 169 1174 71 1188 c 1,5,-1
 110 1386 l 1,6,-1
 284 1356 l 1,7,-1
 284 1481 l 1,8,-1
 487 1509 l 1,9,10
 501 1423 501 1423 501 1321 c 0,11,12
 501 1219 501 1219 497 1171 c 2,13,-1
 469 783 l 1,14,-1
 647 774 l 1,15,-1
 635 586 l 1,16,17
 317 595 317 595 94 633 c 1,0,-1
418 -14 m 1,18,-1
 1177 1436 l 1,19,-1
 1370 1327 l 1,20,-1
 567 -98 l 1,21,-1
 418 -14 l 1,18,-1
1077 104 m 1,22,-1
 1075 225 l 1,23,24
 1157 477 1157 477 1196 668 c 2,25,-1
 1224 805 l 1,26,-1
 1421 778 l 1,27,28
 1421 654 1421 654 1353 451 c 2,29,-1
 1284 248 l 1,30,31
 1321 238 1321 238 1504 224 c 1,32,-1
 1509 541 l 1,33,-1
 1710 571 l 1,34,35
 1715 533 1715 533 1715 469.5 c 0,36,37
 1715 406 1715 406 1710 324 c 2,38,-1
 1703 211 l 1,39,40
 1801 207 1801 207 1831 207 c 1,41,-1
 1808 23 l 1,42,43
 1754 23 1754 23 1692 26 c 1,44,-1
 1679 -186 l 1,45,-1
 1497 -201 l 1,46,-1
 1501 39 l 1,47,48
 1214 65 1214 65 1077 104 c 1,22,-1
EndSplineSet
EndChar

StartChar: divide
Encoding: 247 247 146
Width: 957
Flags: HMW
HStem: -45 21G<607 607> -23 21G<367 367> 415 202
VStem: 370 267 378 260<154 180.5 116.5 197.5>
LayerCount: 2
Fore
SplineSet
380 788 m 1,0,-1
 361 1057 l 1,1,-1
 615 1087 l 1,2,3
 638 1006 638 1006 638 926.5 c 128,-1,4
 638 847 638 847 625 782 c 1,5,-1
 380 788 l 1,0,-1
67 426 m 1,6,-1
 95 612 l 1,7,-1
 900 622 l 1,8,-1
 890 434 l 1,9,10
 830 432 830 432 726.5 426 c 0,11,12
 536.75 415 536.75 415 390.375 415 c 128,-1,13
 244 415 244 415 67 426 c 1,6,-1
625 276 m 1,14,15
 638 230 638 230 638 119.923076923 c 128,-1,16
 638 9.84615384615 638 9.84615384615 607 -45 c 1,17,-1
 367 -23 l 1,18,19
 378 89 378 89 378 150.5 c 128,-1,20
 378 212 378 212 376 250 c 1,21,-1
 625 276 l 1,14,15
EndSplineSet
EndChar

StartChar: brokenbar
Encoding: 166 166 147
Width: 626
Flags: HMW
HStem: -604 2117<217 426>
VStem: 214 214
LayerCount: 2
Fore
SplineSet
215 645 m 1,0,-1
 213 1468 l 1,1,-1
 426 1513 l 1,2,-1
 430 989 l 1,3,-1
 415 680 l 1,4,-1
 215 645 l 1,0,-1
215 236 m 1,5,-1
 422 270 l 1,6,-1
 399 -588 l 1,7,-1
 217 -604 l 1,8,-1
 215 236 l 1,5,-1
EndSplineSet
EndChar

StartChar: degree
Encoding: 176 176 148
Width: 682
Flags: HMW
HStem: 729 184<297 370.5 297 445.5> 1139 184<318.5 380.5>
VStem: 43 188<1010 1083.5 1010 1148> 454 191<987 1078>
LayerCount: 2
Fore
SplineSet
567 826.5 m 128,-1,1
 489 729 489 729 347.5 729 c 128,-1,2
 206 729 206 729 124.5 819.5 c 128,-1,3
 43 910 43 910 43 1048.5 c 128,-1,4
 43 1187 43 1187 128 1255 c 128,-1,5
 213 1323 213 1323 345 1323 c 128,-1,6
 477 1323 477 1323 561 1258.5 c 128,-1,7
 645 1194 645 1194 645 1059 c 128,-1,0
 645 924 645 924 567 826.5 c 128,-1,1
338 913 m 0,8,9
 394 913 394 913 424 940 c 128,-1,10
 454 967 454 967 454 1031 c 128,-1,11
 454 1095 454 1095 427.5 1117 c 128,-1,12
 401 1139 401 1139 349.5 1139 c 0,13,14
 231 1139 231 1139 231 1049 c 0,15,16
 231 913 231 913 338 913 c 0,8,9
EndSplineSet
EndChar

StartChar: thorn
Encoding: 254 254 149
Width: 1005
Flags: HMW
HStem: -23 21G<397 397>
VStem: 153 235 165 223 645 245<582.5 672>
LayerCount: 2
Fore
SplineSet
162 328 m 1,0,-1
 145 1427 l 1,1,-1
 387 1473 l 1,2,-1
 391 764 l 1,3,-1
 372 188 l 1,4,-1
 585 219 l 1,5,6
 645 440 645 440 645 651 c 0,7,8
 645 717 645 717 639 756 c 1,9,10
 590.995271868 771.274231678 590.995271868 771.274231678 486.5 777 c 2,11,-1
 450 779 l 1,12,-1
 501 1004 l 1,13,14
 811.822882158 987.321699006 811.822882158 987.321699006 858.5 926.5 c 0,15,16
 890 885.454545455 890 885.454545455 890 678 c 0,17,18
 890 364 890 364 801 90 c 0,19,20
 781 31 781 31 737 25 c 2,21,-1
 397 -23 l 1,22,-1
 379 -508 l 1,23,-1
 168 -522 l 1,24,-1
 162 328 l 1,0,-1
EndSplineSet
EndChar

StartChar: threequarters
Encoding: 190 190 150
Width: 1822
Flags: HMW
HStem: -14 21G<418 418> 586 192 1307 20G<1370 1370>
VStem: 288 213 1446 216<406 447.5 396.5 481 396.5 481>
LayerCount: 2
Fore
SplineSet
94 633 m 1,0,-1
 114 801 l 1,1,-1
 292 792 l 1,2,-1
 284 1174 l 1,3,4
 169 1174 169 1174 71 1188 c 1,5,-1
 110 1386 l 1,6,-1
 284 1356 l 1,7,-1
 284 1481 l 1,8,-1
 487 1509 l 1,9,10
 501 1423 501 1423 501 1321 c 128,-1,11
 501 1219 501 1219 497 1171 c 2,12,-1
 469 783 l 1,13,-1
 647 774 l 1,14,-1
 635 586 l 1,15,16
 317 595 317 595 94 633 c 1,0,-1
418 -14 m 1,17,-1
 1177 1436 l 1,18,-1
 1370 1327 l 1,19,-1
 567 -98 l 1,20,-1
 418 -14 l 1,17,-1
1110 -16 m 1,21,22
 1304 2 1304 2 1452 39 c 1,23,24
 1453 46 1453 46 1453 85 c 128,-1,25
 1453 124 1453 124 1444 156 c 1,26,-1
 1358 199 l 1,27,28
 1311 179 1311 179 1192 145 c 1,29,-1
 1138 340 l 1,30,31
 1310 364 1310 364 1446 406 c 1,32,-1
 1446 481 l 1,33,34
 1366.30674847 512.877300613 1366.30674847 512.877300613 1249.15337423 528.938650307 c 128,-1,35
 1132 545 1132 545 1120 547 c 1,36,-1
 1175 743 l 1,37,38
 1465.66519581 699.854384997 1465.66519581 699.854384997 1620 647 c 1,39,40
 1662 558 1662 558 1662 404 c 0,41,42
 1662 373 1662 373 1661 358 c 1,43,44
 1581 303 1581 303 1530 276 c 1,45,-1
 1530 264 l 1,46,-1
 1661 199 l 1,47,48
 1681 180 1681 180 1681 128 c 128,-1,49
 1681 76 1681 76 1676.5 33.5 c 0,50,51
 1664.69411765 -78 1664.69411765 -78 1659 -78 c 1,52,53
 1563 -141 1563 -141 1398.5 -176 c 128,-1,54
 1234 -211 1234 -211 1134 -211 c 1,55,-1
 1110 -16 l 1,21,22
EndSplineSet
EndChar

StartChar: twosuperior
Encoding: 178 178 151
Width: 751
Flags: HW
LayerCount: 2
Fore
SplineSet
278 836 m 1,0,1
 395.639215686 804.925490196 395.639215686 804.925490196 702 791 c 1,2,-1
 669 586 l 1,3,4
 331.47848537 599.683304647 331.47848537 599.683304647 86 692 c 1,5,6
 79 744 79 744 79 829 c 128,-1,7
 79 914 79 914 96 1010 c 1,8,9
 181 1035 181 1035 295.5 1091 c 128,-1,10
 410 1147 410 1147 471 1192 c 1,11,-1
 467 1268 l 1,12,13
 309 1321 309 1321 98 1346 c 1,14,-1
 157 1544 l 1,15,16
 397.567740366 1505.75589769 397.567740366 1505.75589769 471.379818517 1486.63262558 c 128,-1,17
 545.191896668 1467.50935348 545.191896668 1467.50935348 612 1444 c 0,18,19
 656 1429 656 1429 671 1373 c 1,20,21
 687 1341 687 1341 687 1245.5 c 128,-1,22
 687 1150 687 1150 680 1094 c 1,23,24
 676 1074 676 1074 627 1042.5 c 128,-1,25
 578 1011 578 1011 472 967.5 c 128,-1,26
 366 924 366 924 284 903 c 1,27,-1
 278 836 l 1,0,1
EndSplineSet
EndChar

StartChar: registered
Encoding: 174 174 152
Width: 1687
Flags: HMW
HStem: -53 192<864 946> 462 117 818 169<557 602> 1094 209<843.5 939>
VStem: 192 204<615 689> 611 160 962 181<704 824> 1304 209<577.5 738.5>
LayerCount: 2
Fore
SplineSet
323 123 m 1,0,1
 268 197 268 197 230 352.5 c 128,-1,2
 192 508 192 508 192 614 c 0,3,4
 192 937 192 937 270 1065 c 0,5,6
 328 1161 328 1161 452 1222 c 0,7,8
 508 1250 508 1250 651.5 1276.5 c 128,-1,9
 795 1303 795 1303 912 1303 c 128,-1,10
 1029 1303 1029 1303 1144.5 1275.5 c 128,-1,11
 1260 1248 1260 1248 1319 1212 c 0,12,13
 1418 1152 1418 1152 1465.5 1024 c 128,-1,14
 1513 896 1513 896 1513 678 c 0,15,16
 1513 577 1513 577 1483 439 c 128,-1,17
 1453 301 1453 301 1401.5 179.5 c 128,-1,18
 1350 58 1350 58 1296 18 c 0,19,20
 1208 -48 1208 -48 946 -53 c 1,21,22
 742 -53 742 -53 579 -1 c 128,-1,23
 416 51 416 51 323 123 c 1,0,1
479 256 m 1,24,25
 542 203 542 203 678 171 c 128,-1,26
 814 139 814 139 955.5 139 c 128,-1,27
 1097 139 1097 139 1177 174 c 1,28,29
 1233 256 1233 256 1268.5 391 c 128,-1,30
 1304 526 1304 526 1304 655.5 c 0,31,32
 1304 935.5 1304 935.5 1216 1040 c 1,33,34
 1155 1066 1155 1066 1062.5 1080 c 128,-1,35
 970 1094 970 1094 886.5 1094 c 128,-1,36
 803 1094 803 1094 676 1072 c 128,-1,37
 549 1050 549 1050 467 1012 c 1,38,39
 431 960 431 960 413.5 863.5 c 128,-1,40
 396 767 396 767 396 681 c 0,41,42
 396 409 396 409 479 256 c 1,24,25
621 281 m 1,43,-1
 602 755 l 1,44,-1
 774 774 l 1,45,-1
 774 657 l 1,46,-1
 772 580 l 1,47,48
 884 587 884 587 942 619 c 1,49,50
 962 676 962 676 962 708 c 128,-1,51
 962 740 962 740 960 757 c 1,52,53
 904 777 904 777 775.5 795.5 c 128,-1,54
 647 814 647 814 557 818 c 1,55,-1
 602 987 l 1,56,57
 701 982 701 982 830.5 962 c 128,-1,58
 960 942 960 942 1021.5 920 c 128,-1,59
 1083 898 1083 898 1113 865 c 128,-1,60
 1143 832 1143 832 1143 812 c 0,61,62
 1143 759 1143 759 1129.5 681 c 128,-1,63
 1116 603 1116 603 1094 560.5 c 128,-1,64
 1072 518 1072 518 1059 513 c 2,65,-1
 996 489 l 1,66,67
 1009 479 1009 479 1052 439.5 c 128,-1,68
 1095 400 1095 400 1129 342 c 1,69,-1
 981 251 l 1,70,-1
 863 465 l 1,71,-1
 774 460 l 1,72,-1
 770 290 l 1,73,-1
 621 281 l 1,43,-1
EndSplineSet
EndChar

StartChar: eth
Encoding: 240 240 153
Width: 1032
Flags: HMW
HStem: -32 220 1297 20G<139 139>
VStem: 121 245<431.5 662> 663 244<602 729 602 730>
LayerCount: 2
Fore
SplineSet
370 610 m 1,0,1
 366 536 366 536 366 450.818181818 c 128,-1,2
 366 365.636363636 366 365.636363636 403 184 c 1,3,-1
 602 193 l 1,4,5
 663 403.111111111 663 403.111111111 663 688 c 0,6,7
 663 825 663 825 643 909 c 1,8,9
 568 991 568 991 455 1090 c 1,10,11
 340 1007 340 1007 260 963 c 1,12,-1
 157 1083 l 1,13,-1
 307 1207 l 1,14,15
 213 1275 213 1275 139 1317 c 1,16,-1
 252 1477 l 1,17,18
 374 1413 374 1413 470 1348 c 1,19,20
 558 1426 558 1426 602 1477 c 1,21,-1
 745 1341 l 1,22,23
 708 1293 708 1293 632 1227 c 1,24,25
 748 1130 748 1130 817.5 1042 c 128,-1,26
 887 954 887 954 897 894 c 128,-1,27
 907 834 907 834 907 700.5 c 128,-1,28
 907 567 907 567 871.5 345 c 128,-1,29
 836 123 836 123 815.5 70.5 c 128,-1,30
 795 18 795 18 764 1 c 0,31,32
 703.823529412 -32 703.823529412 -32 536.911764706 -32 c 128,-1,33
 370 -32 370 -32 308.5 -23 c 128,-1,34
 247 -14 247 -14 222.5 6.5 c 128,-1,35
 198 27 198 27 188 76 c 0,36,37
 121 393 121 393 121 612 c 0,38,39
 121 693 121 693 142 734 c 128,-1,40
 163 775 163 775 248 815 c 128,-1,41
 333 855 333 855 501 882 c 1,42,-1
 567 708 l 1,43,44
 467 663 467 663 370 610 c 1,0,1
EndSplineSet
EndChar

StartChar: multiply
Encoding: 215 215 154
Width: 1104
Flags: HMW
HStem: 77 927<303 315>
VStem: 134 849<860 860>
LayerCount: 2
Fore
SplineSet
134 860 m 1,0,-1
 303 1004 l 1,1,2
 451 804 451 804 553 660 c 1,3,4
 731 910 731 910 814 994 c 1,5,-1
 983 860 l 1,6,7
 796 666 796 666 672 541 c 1,8,9
 910 327 910 327 975 232 c 1,10,11
 856 128 856 128 805 85 c 1,12,13
 667 257 667 257 565 392 c 1,14,15
 389 144 389 144 315 77 c 1,16,-1
 142 211 l 1,17,18
 322 396 322 396 447 520 c 1,19,20
 375 588 375 588 275.5 694.5 c 128,-1,21
 176 801 176 801 134 860 c 1,0,-1
EndSplineSet
EndChar

StartChar: threesuperior
Encoding: 179 179 155
Width: 747
Flags: HMW
HStem: 588 954<149 149 149 158.5>
VStem: 420 216<1204 1246.5 1195.5 1280 1195.5 1280>
LayerCount: 2
Fore
SplineSet
108 588 m 1,0,-1
 84 782 l 1,1,2
 283 803 283 803 426 838 c 1,3,4
 427 845 427 845 427 884 c 128,-1,5
 427 923 427 923 418 954 c 1,6,-1
 332 997 l 1,7,8
 286 979 286 979 166 944 c 1,9,-1
 112 1139 l 1,10,11
 290 1164 290 1164 420 1204 c 1,12,-1
 420 1280 l 1,13,14
 340.306748466 1311.87730061 340.306748466 1311.87730061 223.153374233 1327.93865031 c 128,-1,15
 106 1344 106 1344 94 1346 c 1,16,-1
 149 1542 l 1,17,18
 162 1540 162 1540 205 1533.5 c 128,-1,19
 248 1527 248 1527 258 1525 c 128,-1,20
 268 1523 268 1523 303 1517.5 c 128,-1,21
 338 1512 338 1512 348.5 1510 c 128,-1,22
 359 1508 359 1508 388 1502.5 c 128,-1,23
 417 1497 417 1497 430 1493.5 c 128,-1,24
 443 1490 443 1490 467.5 1484.5 c 128,-1,25
 492 1479 492 1479 509.5 1473.5 c 0,26,27
 565.888888889 1455.77777778 565.888888889 1455.77777778 594 1446 c 1,28,29
 636 1357 636 1357 636 1203 c 0,30,31
 636 1172 636 1172 635 1157 c 1,32,33
 571 1112 571 1112 504 1075 c 1,34,-1
 504 1063 l 1,35,-1
 635 997 l 1,36,37
 655 979 655 979 655 898 c 128,-1,38
 655 817 655 817 633 721 c 1,39,40
 537 658 537 658 372.5 623 c 128,-1,41
 208 588 208 588 108 588 c 1,0,-1
EndSplineSet
EndChar

StartChar: copyright
Encoding: 169 169 156
Width: 1687
Flags: HMW
HStem: -53 192<864 946> 1094 209<843.5 939>
VStem: 192 204<615 689> 620 185<596.5 634.5> 1304 209<577.5 738.5>
LayerCount: 2
Fore
SplineSet
323 123 m 1,0,1
 268 197 268 197 230 352.5 c 128,-1,2
 192 508 192 508 192 614 c 0,3,4
 192 937 192 937 270 1065 c 0,5,6
 328 1161 328 1161 452 1222 c 0,7,8
 508 1250 508 1250 651.5 1276.5 c 128,-1,9
 795 1303 795 1303 912 1303 c 128,-1,10
 1029 1303 1029 1303 1144.5 1275.5 c 128,-1,11
 1260 1248 1260 1248 1319 1212 c 0,12,13
 1418 1152 1418 1152 1465.5 1024 c 128,-1,14
 1513 896 1513 896 1513 678 c 0,15,16
 1513 577 1513 577 1483 439 c 128,-1,17
 1453 301 1453 301 1401.5 179.5 c 128,-1,18
 1350 58 1350 58 1296 18 c 0,19,20
 1208 -48 1208 -48 946 -53 c 1,21,22
 742 -53 742 -53 579 -1 c 128,-1,23
 416 51 416 51 323 123 c 1,0,1
479 256 m 1,24,25
 542 203 542 203 678 171 c 128,-1,26
 814 139 814 139 955.5 139 c 128,-1,27
 1097 139 1097 139 1177 174 c 1,28,29
 1233 256 1233 256 1268.5 391 c 128,-1,30
 1304 526 1304 526 1304 655.5 c 0,31,32
 1304 935.5 1304 935.5 1216 1040 c 1,33,34
 1155 1066 1155 1066 1062.5 1080 c 128,-1,35
 970 1094 970 1094 886.5 1094 c 128,-1,36
 803 1094 803 1094 676 1072 c 128,-1,37
 549 1050 549 1050 467 1012 c 1,38,39
 431 960 431 960 413.5 863.5 c 128,-1,40
 396 767 396 767 396 681 c 0,41,42
 396 409 396 409 479 256 c 1,24,25
630 412 m 1,43,44
 620 498 620 498 620 605.5 c 128,-1,45
 620 713 620 713 633 791 c 128,-1,46
 646 869 646 869 658 883 c 128,-1,47
 670 897 670 897 698 909 c 1,48,49
 832 941 832 941 1040 965 c 1,50,-1
 1065 793 l 1,51,52
 859 773 859 773 819 762 c 1,53,54
 805 690 805 690 805 606 c 128,-1,55
 805 522 805 522 809 492 c 1,56,-1
 1071 432 l 1,57,-1
 1030 270 l 1,58,59
 769.720481928 312.371084337 769.720481928 312.371084337 678 350 c 1,60,61
 640 364 640 364 630 412 c 1,43,44
EndSplineSet
EndChar

StartChar: Aacute
Encoding: 193 193 157
Width: 1151
Flags: HMW
HStem: -16 21G<323 323> 331 213
VStem: 85 1010<10 37>
LayerCount: 2
Fore
SplineSet
446 1396 m 1,0,-1
 366 1519 l 1,1,-1
 719 1820 l 1,2,-1
 868 1634 l 1,3,4
 815 1569 815 1569 683 1494 c 128,-1,5
 551 1419 551 1419 446 1396 c 1,0,-1
85 37 m 1,6,-1
 202 557 l 1,7,-1
 338 1237 l 1,8,9
 577 1279 577 1279 815 1298 c 1,10,-1
 973 612 l 1,11,-1
 1095 10 l 1,12,-1
 852 -29 l 1,13,14
 834 72 834 72 798 266.5 c 128,-1,15
 762 461 762 461 745 561 c 1,16,-1
 641 1059 l 1,17,18
 582 1059 582 1059 522 1040 c 1,19,-1
 436 547 l 1,20,-1
 694 541 l 1,21,-1
 663 332 l 1,22,23
 649 331 649 331 587.5 331 c 0,24,25
 526 331 526 331 399 354 c 1,26,-1
 323 -16 l 1,27,-1
 85 37 l 1,6,-1
EndSplineSet
EndChar

StartChar: Acircumflex
Encoding: 194 194 158
Width: 1151
Flags: HMW
HStem: -16 21G<323 323> 331 213
VStem: 85 1010<10 37>
LayerCount: 2
Fore
SplineSet
336 1398 m 1,0,-1
 227 1496 l 1,1,-1
 451 1793 l 1,2,-1
 641 1799 l 1,3,-1
 872 1494 l 1,4,-1
 748 1398 l 1,5,6
 630 1493 630 1493 539 1580 c 1,7,8
 445 1477 445 1477 336 1398 c 1,0,-1
85 37 m 1,9,-1
 202 557 l 1,10,-1
 338 1237 l 1,11,12
 577 1279 577 1279 815 1298 c 1,13,-1
 973 612 l 1,14,-1
 1095 10 l 1,15,-1
 852 -29 l 1,16,17
 834 72 834 72 798 266.5 c 128,-1,18
 762 461 762 461 745 561 c 1,19,-1
 641 1059 l 1,20,21
 582 1059 582 1059 522 1040 c 1,22,-1
 436 547 l 1,23,-1
 694 541 l 1,24,-1
 663 332 l 1,25,26
 649 331 649 331 587.5 331 c 0,27,28
 526 331 526 331 399 354 c 1,29,-1
 323 -16 l 1,30,-1
 85 37 l 1,9,-1
EndSplineSet
EndChar

StartChar: Adieresis
Encoding: 196 196 159
Width: 1151
Flags: HMW
HStem: -16 21G<323 323> 331 213
VStem: 852 15
LayerCount: 2
Fore
SplineSet
266 1477 m 1,0,1
 251 1619 251 1619 225 1719 c 1,2,-1
 442 1774 l 1,3,4
 477 1716 477 1716 477 1613 c 0,5,6
 477 1510 477 1510 465 1488 c 1,7,-1
 266 1477 l 1,0,1
617 1498 m 1,8,9
 634 1571 634 1571 634 1640.5 c 0,10,11
 634 1710 634 1710 629 1748 c 1,12,-1
 852 1764 l 1,13,14
 867 1733 867 1733 867 1674.5 c 0,15,16
 867 1616 867 1616 852 1553 c 128,-1,17
 837 1490 837 1490 819 1463 c 1,18,-1
 617 1498 l 1,8,9
85 37 m 1,19,-1
 202 557 l 1,20,-1
 338 1237 l 1,21,22
 577 1279 577 1279 815 1298 c 1,23,-1
 973 612 l 1,24,-1
 1095 10 l 1,25,-1
 852 -29 l 1,26,27
 834 72 834 72 798 266.5 c 128,-1,28
 762 461 762 461 745 561 c 1,29,-1
 641 1059 l 1,30,31
 582 1059 582 1059 522 1040 c 1,32,-1
 436 547 l 1,33,-1
 694 541 l 1,34,-1
 663 332 l 1,35,36
 649 331 649 331 587.5 331 c 0,37,38
 526 331 526 331 399 354 c 1,39,-1
 323 -16 l 1,40,-1
 85 37 l 1,19,-1
EndSplineSet
EndChar

StartChar: Agrave
Encoding: 192 192 160
Width: 1151
Flags: HMW
HStem: -16 21G<323 323> 331 213
VStem: 85 1010<10 37>
LayerCount: 2
Fore
SplineSet
677 1404 m 1,0,1
 572 1427 572 1427 437 1504 c 128,-1,2
 302 1581 302 1581 249 1646 c 1,3,-1
 413 1820 l 1,4,-1
 757 1527 l 1,5,-1
 677 1404 l 1,0,1
85 37 m 1,6,-1
 202 557 l 1,7,-1
 338 1237 l 1,8,9
 577 1279 577 1279 815 1298 c 1,10,-1
 973 612 l 1,11,-1
 1095 10 l 1,12,-1
 852 -29 l 1,13,14
 834 72 834 72 798 266.5 c 128,-1,15
 762 461 762 461 745 561 c 1,16,-1
 641 1059 l 1,17,18
 582 1059 582 1059 522 1040 c 1,19,-1
 436 547 l 1,20,-1
 694 541 l 1,21,-1
 663 332 l 1,22,23
 649 331 649 331 587.5 331 c 0,24,25
 526 331 526 331 399 354 c 1,26,-1
 323 -16 l 1,27,-1
 85 37 l 1,6,-1
EndSplineSet
EndChar

StartChar: Aring
Encoding: 197 197 161
Width: 1151
Flags: HMW
HStem: -16 21G<323 323> 331 213 1367 160<518.5 562.5 518.5 615.5> 1664 154<528.5 570.5>
VStem: 315 165 614 160
LayerCount: 2
Fore
SplineSet
711.5 1436.5 m 128,-1,1
 649 1367 649 1367 546 1367 c 128,-1,2
 443 1367 443 1367 379 1434 c 128,-1,3
 315 1501 315 1501 315 1605.5 c 128,-1,4
 315 1710 315 1710 380 1764 c 128,-1,5
 445 1818 445 1818 547 1818 c 128,-1,6
 649 1818 649 1818 711.5 1766.5 c 128,-1,7
 774 1715 774 1715 774 1610.5 c 128,-1,0
 774 1506 774 1506 711.5 1436.5 c 128,-1,1
542 1527 m 0,8,9
 601 1527 601 1527 614 1595 c 1,10,11
 619 1664 619 1664 548 1664 c 0,12,13
 515 1664 515 1664 494.5 1647.5 c 128,-1,14
 474 1631 474 1631 479 1597.5 c 128,-1,15
 484 1564 484 1564 497 1545.5 c 128,-1,16
 510 1527 510 1527 542 1527 c 0,8,9
85 37 m 1,17,-1
 202 557 l 1,18,-1
 338 1237 l 1,19,20
 577 1279 577 1279 815 1298 c 1,21,-1
 973 612 l 1,22,-1
 1095 10 l 1,23,-1
 852 -29 l 1,24,25
 834 72 834 72 798 266.5 c 128,-1,26
 762 461 762 461 745 561 c 1,27,-1
 641 1059 l 1,28,29
 582 1059 582 1059 522 1040 c 1,30,-1
 436 547 l 1,31,-1
 694 541 l 1,32,-1
 663 332 l 1,33,34
 649 331 649 331 587.5 331 c 128,-1,35
 526 331 526 331 399 354 c 1,36,-1
 323 -16 l 1,37,-1
 85 37 l 1,17,-1
EndSplineSet
EndChar

StartChar: Atilde
Encoding: 195 195 162
Width: 1151
Flags: HMW
HStem: -16 21G<323 323> 331 213 1423 219<634.5 654 634.5 684>
VStem: 85 1010<10 37>
LayerCount: 2
Fore
SplineSet
260 1443 m 1,0,-1
 196 1535 l 1,1,2
 236 1596 236 1596 310.5 1664 c 128,-1,3
 385 1732 385 1732 420.5 1732 c 128,-1,4
 456 1732 456 1732 505.5 1709.5 c 128,-1,5
 555 1687 555 1687 596.5 1664.5 c 128,-1,6
 638 1642 638 1642 649 1642 c 128,-1,7
 660 1642 660 1642 804 1744 c 1,8,-1
 880 1650 l 1,9,10
 772.784 1489.176 772.784 1489.176 706.5 1446.5 c 0,11,12
 670 1423 670 1423 638 1423 c 128,-1,13
 606 1423 606 1423 558 1446 c 128,-1,14
 510 1469 510 1469 472 1492 c 128,-1,15
 434 1515 434 1515 426.5 1515 c 128,-1,16
 419 1515 419 1515 260 1443 c 1,0,-1
85 37 m 1,17,-1
 202 557 l 1,18,-1
 338 1237 l 1,19,20
 577 1279 577 1279 815 1298 c 1,21,-1
 973 612 l 1,22,-1
 1095 10 l 1,23,-1
 852 -29 l 1,24,25
 834 72 834 72 798 266.5 c 128,-1,26
 762 461 762 461 745 561 c 1,27,-1
 641 1059 l 1,28,29
 582 1059 582 1059 522 1040 c 1,30,-1
 436 547 l 1,31,-1
 694 541 l 1,32,-1
 663 332 l 1,33,34
 649 331 649 331 587.5 331 c 128,-1,35
 526 331 526 331 399 354 c 1,36,-1
 323 -16 l 1,37,-1
 85 37 l 1,17,-1
EndSplineSet
EndChar

StartChar: Ccedilla
Encoding: 199 199 163
Width: 884
Flags: HMW
HStem: -550 21G<387 387> -51 21G<763 763> -7 21G<557 557> 1302 20G<784 784>
VStem: 137 254<590 729 590 748.5>
LayerCount: 2
Fore
SplineSet
181 180 m 0,0,1
 137 385 137 385 137 670 c 0,2,3
 137 786 137 786 147.5 906 c 128,-1,4
 158 1026 158 1026 168.5 1059 c 128,-1,5
 179 1092 179 1092 184.5 1104.5 c 128,-1,6
 190 1117 190 1117 208 1135.5 c 128,-1,7
 226 1154 226 1154 276.5 1174.5 c 128,-1,8
 327 1195 327 1195 505 1247.5 c 128,-1,9
 683 1300 683 1300 784 1322 c 1,10,-1
 838 1079 l 1,11,12
 791 1068 791 1068 621 1036 c 128,-1,13
 451 1004 451 1004 419 995 c 1,14,15
 391 877 391 877 391 640 c 128,-1,16
 391 403 391 403 425 260 c 1,17,18
 561 227 561 227 819 180 c 1,19,-1
 763 -51 l 1,20,21
 679 -36 679 -36 557 -7 c 1,22,-1
 539 -109 l 1,23,24
 659 -140 659 -140 694 -158 c 1,25,26
 722 -169 722 -169 722 -219 c 128,-1,27
 722 -269 722 -269 705 -342 c 128,-1,28
 688 -415 688 -415 672 -439 c 0,29,30
 641 -484 641 -484 387 -550 c 1,31,-1
 341 -389 l 1,32,33
 405.428571429 -371.428571429 405.428571429 -371.428571429 522 -335 c 1,34,-1
 528 -275 l 1,35,36
 445 -250 445 -250 343 -233 c 1,37,-1
 420 26 l 1,38,39
 305 54 305 54 263 69.5 c 128,-1,40
 221 85 221 85 206.5 107 c 128,-1,41
 192 129 192 129 181 180 c 0,0,1
EndSplineSet
EndChar

StartChar: Eacute
Encoding: 201 201 164
Width: 979
Flags: HMW
HStem: 515 219 1297 20G<837 837>
VStem: 171 229
LayerCount: 2
Fore
SplineSet
395 1396 m 1,0,-1
 315 1519 l 1,1,-1
 668 1820 l 1,2,-1
 817 1634 l 1,3,4
 764 1569 764 1569 632 1494 c 128,-1,5
 500 1419 500 1419 395 1396 c 1,0,-1
397 223 m 1,6,7
 475.765306122 209.448979592 475.765306122 209.448979592 882 150 c 1,8,-1
 829 -68 l 1,9,10
 574.333333333 -36.1666666667 574.333333333 -36.1666666667 495.166666667 -21.5833333333 c 128,-1,11
 416 -7 416 -7 361 3 c 0,12,13
 245.11627907 24.0697674419 245.11627907 24.0697674419 178 43 c 1,14,-1
 165 1196 l 1,15,16
 270 1224 270 1224 470.5 1262 c 128,-1,17
 671 1300 671 1300 837 1317 c 1,18,-1
 872 1079 l 1,19,-1
 393 1024 l 1,20,-1
 403 725 l 1,21,-1
 833 743 l 1,22,-1
 817 508 l 1,23,-1
 405 522 l 1,24,-1
 397 223 l 1,6,7
EndSplineSet
EndChar

StartChar: Ecircumflex
Encoding: 202 202 165
Width: 979
Flags: HMW
HStem: 515 219 1297 20G<837 837>
VStem: 171 229
LayerCount: 2
Fore
SplineSet
301 1400 m 1,0,-1
 192 1498 l 1,1,-1
 416 1795 l 1,2,-1
 606 1801 l 1,3,-1
 837 1496 l 1,4,-1
 713 1400 l 1,5,6
 595 1495 595 1495 504 1582 c 1,7,8
 410 1479 410 1479 301 1400 c 1,0,-1
397 223 m 1,9,10
 475.765306122 209.448979592 475.765306122 209.448979592 882 150 c 1,11,-1
 829 -68 l 1,12,13
 574.333333333 -36.1666666667 574.333333333 -36.1666666667 495.166666667 -21.5833333333 c 128,-1,14
 416 -7 416 -7 361 3 c 0,15,16
 245.11627907 24.0697674419 245.11627907 24.0697674419 178 43 c 1,17,-1
 165 1196 l 1,18,19
 270 1224 270 1224 470.5 1262 c 128,-1,20
 671 1300 671 1300 837 1317 c 1,21,-1
 872 1079 l 1,22,-1
 393 1024 l 1,23,-1
 403 725 l 1,24,-1
 833 743 l 1,25,-1
 817 508 l 1,26,-1
 405 522 l 1,27,-1
 397 223 l 1,9,10
EndSplineSet
EndChar

StartChar: Edieresis
Encoding: 203 203 166
Width: 979
Flags: HMW
HStem: 515 219 1297 20G<837 837>
VStem: 171 229 603 226 829 7
LayerCount: 2
Fore
SplineSet
235 1479 m 1,0,1
 220 1621 220 1621 194 1721 c 1,2,-1
 411 1776 l 1,3,4
 446 1718 446 1718 446 1615 c 128,-1,5
 446 1512 446 1512 434 1490 c 1,6,-1
 235 1479 l 1,0,1
586 1500 m 1,7,8
 603 1573 603 1573 603 1642.5 c 128,-1,9
 603 1712 603 1712 598 1750 c 1,10,-1
 821 1766 l 1,11,12
 836 1735 836 1735 836 1676.5 c 128,-1,13
 836 1618 836 1618 821 1555 c 128,-1,14
 806 1492 806 1492 788 1465 c 1,15,-1
 586 1500 l 1,7,8
397 223 m 1,16,17
 475.765306122 209.448979592 475.765306122 209.448979592 882 150 c 1,18,-1
 829 -68 l 1,19,20
 574.333333333 -36.1666666667 574.333333333 -36.1666666667 495.166666667 -21.5833333333 c 128,-1,21
 416 -7 416 -7 361 3 c 0,22,23
 245.11627907 24.0697674419 245.11627907 24.0697674419 178 43 c 1,24,-1
 165 1196 l 1,25,26
 270 1224 270 1224 470.5 1262 c 128,-1,27
 671 1300 671 1300 837 1317 c 1,28,-1
 872 1079 l 1,29,-1
 393 1024 l 1,30,-1
 403 725 l 1,31,-1
 833 743 l 1,32,-1
 817 508 l 1,33,-1
 405 522 l 1,34,-1
 397 223 l 1,16,17
EndSplineSet
EndChar

StartChar: Egrave
Encoding: 200 200 167
Width: 979
Flags: HMW
HStem: 515 219 1297 20G<837 837>
VStem: 171 229
LayerCount: 2
Fore
SplineSet
643 1404 m 1,0,1
 538 1427 538 1427 403 1504 c 128,-1,2
 268 1581 268 1581 215 1646 c 1,3,-1
 379 1820 l 1,4,-1
 723 1527 l 1,5,-1
 643 1404 l 1,0,1
397 223 m 1,6,7
 475.765306122 209.448979592 475.765306122 209.448979592 882 150 c 1,8,-1
 829 -68 l 1,9,10
 574.333333333 -36.1666666667 574.333333333 -36.1666666667 495.166666667 -21.5833333333 c 128,-1,11
 416 -7 416 -7 361 3 c 0,12,13
 245.11627907 24.0697674419 245.11627907 24.0697674419 178 43 c 1,14,-1
 165 1196 l 1,15,16
 270 1224 270 1224 470.5 1262 c 128,-1,17
 671 1300 671 1300 837 1317 c 1,18,-1
 872 1079 l 1,19,-1
 393 1024 l 1,20,-1
 403 725 l 1,21,-1
 833 743 l 1,22,-1
 817 508 l 1,23,-1
 405 522 l 1,24,-1
 397 223 l 1,6,7
EndSplineSet
EndChar

StartChar: Iacute
Encoding: 205 205 168
Width: 784
Flags: HMW
HStem: -25 210
VStem: 277 247 569 102
LayerCount: 2
Fore
SplineSet
296 1396 m 1,0,-1
 216 1519 l 1,1,-1
 569 1820 l 1,2,-1
 718 1634 l 1,3,4
 665 1569 665 1569 533 1494 c 128,-1,5
 401 1419 401 1419 296 1396 c 1,0,-1
663 -25 m 1,6,7
 339.617455493 -22.84411637 339.617455493 -22.84411637 92 18 c 1,8,-1
 112 205 l 1,9,-1
 285 198 l 1,10,-1
 270 1061 l 1,11,12
 207 1059 207 1059 86 1051 c 1,13,-1
 67 1243 l 1,14,15
 260 1273 260 1273 669 1298 c 1,16,-1
 696 1096 l 1,17,18
 549 1081 549 1081 524 1077 c 1,19,-1
 526 653 l 1,20,-1
 497 189 l 1,21,-1
 680 182 l 1,22,-1
 663 -25 l 1,6,7
EndSplineSet
EndChar

StartChar: Icircumflex
Encoding: 206 206 169
Width: 784
Flags: HMW
HStem: -25 210
VStem: 277 247 487 184
LayerCount: 2
Fore
SplineSet
182 1398 m 1,0,-1
 73 1496 l 1,1,-1
 297 1793 l 1,2,-1
 487 1799 l 1,3,-1
 718 1494 l 1,4,-1
 594 1398 l 1,5,6
 476 1493 476 1493 385 1580 c 1,7,8
 291 1477 291 1477 182 1398 c 1,0,-1
663 -25 m 1,9,10
 339.617455493 -22.84411637 339.617455493 -22.84411637 92 18 c 1,11,-1
 112 205 l 1,12,-1
 285 198 l 1,13,-1
 270 1061 l 1,14,15
 207 1059 207 1059 86 1051 c 1,16,-1
 67 1243 l 1,17,18
 260 1273 260 1273 669 1298 c 1,19,-1
 696 1096 l 1,20,21
 549 1081 549 1081 524 1077 c 1,22,-1
 526 653 l 1,23,-1
 497 189 l 1,24,-1
 680 182 l 1,25,-1
 663 -25 l 1,9,10
EndSplineSet
EndChar

StartChar: Idieresis
Encoding: 207 207 170
Width: 784
Flags: HMW
HStem: -25 210
VStem: 484 179 663 54
LayerCount: 2
Fore
SplineSet
116 1477 m 1,0,1
 101 1619 101 1619 75 1719 c 1,2,-1
 292 1774 l 1,3,4
 327 1716 327 1716 327 1613 c 128,-1,5
 327 1510 327 1510 315 1488 c 1,6,-1
 116 1477 l 1,0,1
467 1498 m 1,7,8
 484 1571 484 1571 484 1640.5 c 128,-1,9
 484 1710 484 1710 479 1748 c 1,10,-1
 702 1764 l 1,11,12
 717 1733 717 1733 717 1674.5 c 128,-1,13
 717 1616 717 1616 702 1553 c 128,-1,14
 687 1490 687 1490 669 1463 c 1,15,-1
 467 1498 l 1,7,8
663 -25 m 1,16,17
 339.617455493 -22.84411637 339.617455493 -22.84411637 92 18 c 1,18,-1
 112 205 l 1,19,-1
 285 198 l 1,20,-1
 270 1061 l 1,21,22
 207 1059 207 1059 86 1051 c 1,23,-1
 67 1243 l 1,24,25
 260 1273 260 1273 669 1298 c 1,26,-1
 696 1096 l 1,27,28
 549 1081 549 1081 524 1077 c 1,29,-1
 526 653 l 1,30,-1
 497 189 l 1,31,-1
 680 182 l 1,32,-1
 663 -25 l 1,16,17
EndSplineSet
EndChar

StartChar: Igrave
Encoding: 204 204 171
Width: 784
Flags: HMW
HStem: -25 210
VStem: 277 247
LayerCount: 2
Fore
SplineSet
514 1404 m 1,0,1
 409 1427 409 1427 274 1504 c 128,-1,2
 139 1581 139 1581 86 1646 c 1,3,-1
 250 1820 l 1,4,-1
 594 1527 l 1,5,-1
 514 1404 l 1,0,1
663 -25 m 1,6,7
 339.617455493 -22.84411637 339.617455493 -22.84411637 92 18 c 1,8,-1
 112 205 l 1,9,-1
 285 198 l 1,10,-1
 270 1061 l 1,11,12
 207 1059 207 1059 86 1051 c 1,13,-1
 67 1243 l 1,14,15
 260 1273 260 1273 669 1298 c 1,16,-1
 696 1096 l 1,17,18
 549 1081 549 1081 524 1077 c 1,19,-1
 526 653 l 1,20,-1
 497 189 l 1,21,-1
 680 182 l 1,22,-1
 663 -25 l 1,6,7
EndSplineSet
EndChar

StartChar: Ntilde
Encoding: 209 209 172
Width: 1345
Flags: HMW
HStem: -18 21G<168 168 753 753> 1400 219<818.5 838 818.5 868>
VStem: 168 224 968 201
LayerCount: 2
Fore
SplineSet
444 1420 m 1,0,-1
 380 1512 l 1,1,2
 420 1573 420 1573 494.5 1641 c 128,-1,3
 569 1709 569 1709 604.5 1709 c 128,-1,4
 640 1709 640 1709 689.5 1686.5 c 128,-1,5
 739 1664 739 1664 780.5 1641.5 c 128,-1,6
 822 1619 822 1619 833 1619 c 128,-1,7
 844 1619 844 1619 988 1721 c 1,8,-1
 1064 1627 l 1,9,10
 956.784 1466.176 956.784 1466.176 890.5 1423.5 c 0,11,12
 854 1400 854 1400 822 1400 c 128,-1,13
 790 1400 790 1400 742 1423 c 128,-1,14
 694 1446 694 1446 656 1469 c 128,-1,15
 618 1492 618 1492 610.5 1492 c 128,-1,16
 603 1492 603 1492 444 1420 c 1,0,-1
168 -18 m 1,17,-1
 168 110 l 2,18,19
 168 393 168 393 177 780 c 1,20,-1
 158 1227 l 1,21,22
 441 1286 441 1286 592 1294 c 1,23,-1
 856 459 l 1,24,-1
 917 172 l 1,25,-1
 975 178 l 1,26,-1
 962 500 l 1,27,-1
 971 1278 l 1,28,-1
 1227 1300 l 1,29,30
 1218 985 1218 985 1177 518 c 1,31,-1
 1162 27 l 1,32,33
 1008.87070151 -3.12379642366 1008.87070151 -3.12379642366 753 -18 c 1,34,-1
 489 827 l 1,35,-1
 430 1091 l 1,36,-1
 377 1083 l 1,37,-1
 387 782 l 1,38,-1
 397 2 l 1,39,-1
 168 -18 l 1,17,-1
EndSplineSet
EndChar

StartChar: Oacute
Encoding: 211 211 173
Width: 1169
Flags: HMW
HStem: -16 224<495 531> 1081 242<1013 1050> 1303 20G<1013 1013>
VStem: 137 256<669.5 781 662.5 830> 772 254<707.5 950>
LayerCount: 2
Fore
SplineSet
495 1396 m 1,0,-1
 415 1519 l 1,1,-1
 768 1820 l 1,2,-1
 917 1634 l 1,3,4
 864 1569 864 1569 732 1494 c 128,-1,5
 600 1419 600 1419 495 1396 c 1,0,-1
231 78 m 0,6,7
 186 197 186 197 161.5 396 c 128,-1,8
 137 595 137 595 137 769.5 c 128,-1,9
 137 944 137 944 153 1025.5 c 128,-1,10
 169 1107 169 1107 208 1155.5 c 0,11,12
 329.57766935 1306.69274265 329.57766935 1306.69274265 1013 1323 c 1,13,-1
 1050 1081 l 1,14,15
 877 1076 877 1076 681 1053.5 c 128,-1,16
 485 1031 485 1031 405 1001 c 1,17,18
 393 933 393 933 393 680 c 128,-1,19
 393 427 393 427 446 210 c 1,20,21
 464 208 464 208 541 208 c 128,-1,22
 618 208 618 208 722 231 c 1,23,24
 772 550.565217391 772 550.565217391 772 950 c 1,25,-1
 1021 934 l 1,26,27
 1026 872 1026 872 1026 772.5 c 128,-1,28
 1026 673 1026 673 1002 479 c 128,-1,29
 978 285 978 285 960 192.5 c 128,-1,30
 942 100 942 100 926 70 c 128,-1,31
 910 40 910 40 867.5 21 c 128,-1,32
 825 2 825 2 706 -7 c 128,-1,33
 587 -16 587 -16 482.5 -16 c 128,-1,34
 378 -16 378 -16 317 -1.5 c 128,-1,35
 256 13 256 13 231 78 c 0,6,7
EndSplineSet
EndChar

StartChar: Ocircumflex
Encoding: 212 212 174
Width: 1169
Flags: HMW
HStem: -16 224<495 531> 1081 242<1013 1050> 1303 20G<1013 1013>
VStem: 137 256<669.5 781 662.5 830> 772 254<707.5 950>
LayerCount: 2
Fore
SplineSet
387 1398 m 1,0,-1
 278 1496 l 1,1,-1
 502 1793 l 1,2,-1
 692 1799 l 1,3,-1
 923 1494 l 1,4,-1
 799 1398 l 1,5,6
 681 1493 681 1493 590 1580 c 1,7,8
 496 1477 496 1477 387 1398 c 1,0,-1
231 78 m 0,9,10
 186 197 186 197 161.5 396 c 128,-1,11
 137 595 137 595 137 769.5 c 128,-1,12
 137 944 137 944 153 1025.5 c 128,-1,13
 169 1107 169 1107 208 1155.5 c 0,14,15
 329.57766935 1306.69274265 329.57766935 1306.69274265 1013 1323 c 1,16,-1
 1050 1081 l 1,17,18
 877 1076 877 1076 681 1053.5 c 128,-1,19
 485 1031 485 1031 405 1001 c 1,20,21
 393 933 393 933 393 680 c 128,-1,22
 393 427 393 427 446 210 c 1,23,24
 464 208 464 208 541 208 c 128,-1,25
 618 208 618 208 722 231 c 1,26,27
 772 550.565217391 772 550.565217391 772 950 c 1,28,-1
 1021 934 l 1,29,30
 1026 872 1026 872 1026 772.5 c 128,-1,31
 1026 673 1026 673 1002 479 c 128,-1,32
 978 285 978 285 960 192.5 c 128,-1,33
 942 100 942 100 926 70 c 128,-1,34
 910 40 910 40 867.5 21 c 128,-1,35
 825 2 825 2 706 -7 c 128,-1,36
 587 -16 587 -16 482.5 -16 c 128,-1,37
 378 -16 378 -16 317 -1.5 c 128,-1,38
 256 13 256 13 231 78 c 0,9,10
EndSplineSet
EndChar

StartChar: Odieresis
Encoding: 214 214 175
Width: 1169
Flags: HMW
HStem: -16 224<495 531> 1081 242<1013 1050> 1303 20G<1013 1013>
VStem: 137 256<669.5 781 662.5 830> 683 233<1639.5 1683.5> 772 254<707.5 950>
LayerCount: 2
Fore
SplineSet
315 1477 m 1,0,1
 300 1619 300 1619 274 1719 c 1,2,-1
 491 1774 l 1,3,4
 526 1716 526 1716 526 1613 c 128,-1,5
 526 1510 526 1510 514 1488 c 1,6,-1
 315 1477 l 1,0,1
666 1498 m 1,7,8
 683 1571 683 1571 683 1640.5 c 128,-1,9
 683 1710 683 1710 678 1748 c 1,10,-1
 901 1764 l 1,11,12
 916 1733 916 1733 916 1674.5 c 128,-1,13
 916 1616 916 1616 901 1553 c 128,-1,14
 886 1490 886 1490 868 1463 c 1,15,-1
 666 1498 l 1,7,8
231 78 m 0,16,17
 186 197 186 197 161.5 396 c 128,-1,18
 137 595 137 595 137 769.5 c 128,-1,19
 137 944 137 944 153 1025.5 c 128,-1,20
 169 1107 169 1107 208 1155.5 c 0,21,22
 329.57766935 1306.69274265 329.57766935 1306.69274265 1013 1323 c 1,23,-1
 1050 1081 l 1,24,25
 877 1076 877 1076 681 1053.5 c 128,-1,26
 485 1031 485 1031 405 1001 c 1,27,28
 393 933 393 933 393 680 c 128,-1,29
 393 427 393 427 446 210 c 1,30,31
 464 208 464 208 541 208 c 128,-1,32
 618 208 618 208 722 231 c 1,33,34
 772 550.565217391 772 550.565217391 772 950 c 1,35,-1
 1021 934 l 1,36,37
 1026 872 1026 872 1026 772.5 c 128,-1,38
 1026 673 1026 673 1002 479 c 128,-1,39
 978 285 978 285 960 192.5 c 128,-1,40
 942 100 942 100 926 70 c 128,-1,41
 910 40 910 40 867.5 21 c 128,-1,42
 825 2 825 2 706 -7 c 128,-1,43
 587 -16 587 -16 482.5 -16 c 128,-1,44
 378 -16 378 -16 317 -1.5 c 128,-1,45
 256 13 256 13 231 78 c 0,16,17
EndSplineSet
EndChar

StartChar: Ograve
Encoding: 210 210 176
Width: 1169
Flags: HMW
HStem: -16 224<495 531> 1081 242<1013 1050> 1303 20G<1013 1013>
VStem: 137 256<669.5 781 662.5 830> 772 254<707.5 950>
LayerCount: 2
Fore
SplineSet
712 1404 m 1,0,1
 607 1427 607 1427 472 1504 c 128,-1,2
 337 1581 337 1581 284 1646 c 1,3,-1
 448 1820 l 1,4,-1
 792 1527 l 1,5,-1
 712 1404 l 1,0,1
231 78 m 0,6,7
 186 197 186 197 161.5 396 c 128,-1,8
 137 595 137 595 137 769.5 c 128,-1,9
 137 944 137 944 153 1025.5 c 128,-1,10
 169 1107 169 1107 208 1155.5 c 0,11,12
 329.57766935 1306.69274265 329.57766935 1306.69274265 1013 1323 c 1,13,-1
 1050 1081 l 1,14,15
 877 1076 877 1076 681 1053.5 c 128,-1,16
 485 1031 485 1031 405 1001 c 1,17,18
 393 933 393 933 393 680 c 128,-1,19
 393 427 393 427 446 210 c 1,20,21
 464 208 464 208 541 208 c 128,-1,22
 618 208 618 208 722 231 c 1,23,24
 772 550.565217391 772 550.565217391 772 950 c 1,25,-1
 1021 934 l 1,26,27
 1026 872 1026 872 1026 772.5 c 128,-1,28
 1026 673 1026 673 1002 479 c 128,-1,29
 978 285 978 285 960 192.5 c 128,-1,30
 942 100 942 100 926 70 c 128,-1,31
 910 40 910 40 867.5 21 c 128,-1,32
 825 2 825 2 706 -7 c 128,-1,33
 587 -16 587 -16 482.5 -16 c 128,-1,34
 378 -16 378 -16 317 -1.5 c 128,-1,35
 256 13 256 13 231 78 c 0,6,7
EndSplineSet
EndChar

StartChar: Otilde
Encoding: 213 213 177
Width: 1169
Flags: HMW
HStem: -16 224<495 531> 1081 242<1013 1050> 1303 20G<1013 1013> 1423 219<683.5 703 683.5 733>
VStem: 137 256<669.5 781 662.5 830> 772 254<707.5 950>
LayerCount: 2
Fore
SplineSet
309 1443 m 1,0,-1
 245 1535 l 1,1,2
 285 1596 285 1596 359.5 1664 c 128,-1,3
 434 1732 434 1732 474 1732 c 128,-1,4
 514 1732 514 1732 601 1687 c 128,-1,5
 688 1642 688 1642 698.5 1642 c 128,-1,6
 709 1642 709 1642 853 1744 c 1,7,-1
 929 1650 l 1,8,9
 821.784 1489.176 821.784 1489.176 755.5 1446.5 c 0,10,11
 719 1423 719 1423 687 1423 c 128,-1,12
 655 1423 655 1423 607 1446 c 128,-1,13
 559 1469 559 1469 521 1492 c 128,-1,14
 483 1515 483 1515 475.5 1515 c 128,-1,15
 468 1515 468 1515 309 1443 c 1,0,-1
231 78 m 0,16,17
 186 197 186 197 161.5 396 c 128,-1,18
 137 595 137 595 137 769.5 c 128,-1,19
 137 944 137 944 153 1025.5 c 128,-1,20
 169 1107 169 1107 208 1155.5 c 0,21,22
 329.57766935 1306.69274265 329.57766935 1306.69274265 1013 1323 c 1,23,-1
 1050 1081 l 1,24,25
 877 1076 877 1076 681 1053.5 c 128,-1,26
 485 1031 485 1031 405 1001 c 1,27,28
 393 933 393 933 393 680 c 128,-1,29
 393 427 393 427 446 210 c 1,30,31
 464 208 464 208 541 208 c 128,-1,32
 618 208 618 208 722 231 c 1,33,34
 772 550.565217391 772 550.565217391 772 950 c 1,35,-1
 1021 934 l 1,36,37
 1026 872 1026 872 1026 772.5 c 128,-1,38
 1026 673 1026 673 1002 479 c 128,-1,39
 978 285 978 285 960 192.5 c 128,-1,40
 942 100 942 100 926 70 c 128,-1,41
 910 40 910 40 867.5 21 c 128,-1,42
 825 2 825 2 706 -7 c 128,-1,43
 587 -16 587 -16 482.5 -16 c 128,-1,44
 378 -16 378 -16 317 -1.5 c 128,-1,45
 256 13 256 13 231 78 c 0,16,17
EndSplineSet
EndChar

StartChar: Uacute
Encoding: 218 218 178
Width: 1126
Flags: HMW
HStem: -2 21G<422.5 437>
VStem: 109 934<1260 1272>
LayerCount: 2
Fore
SplineSet
466 1396 m 1,0,-1
 386 1519 l 1,1,-1
 739 1820 l 1,2,-1
 888 1634 l 1,3,4
 835 1569 835 1569 703 1494 c 128,-1,5
 571 1419 571 1419 466 1396 c 1,0,-1
177 248 m 0,6,7
 114 815 114 815 109 1260 c 1,8,-1
 363 1300 l 1,9,-1
 404 270 l 1,10,11
 485 222 485 222 646 222 c 0,12,13
 677 222 677 222 715 227 c 1,14,-1
 768 1307 l 1,15,-1
 1043 1272 l 1,16,-1
 950 285 l 1,17,18
 945.554252199 249.434017595 945.554252199 249.434017595 909.7771261 207.217008798 c 128,-1,19
 874 165 874 165 858.5 147.5 c 0,20,21
 827.5 112.5 827.5 112.5 799.25 84.25 c 2,22,-1
 765 50 l 2,23,24
 759 44 759 44 756.5 41 c 128,-1,25
 754 38 754 38 748.5 33 c 128,-1,26
 743 28 743 28 739.5 25.5 c 128,-1,27
 736 23 736 23 731.5 19.5 c 128,-1,28
 727 16 727 16 723.5 14.5 c 0,29,30
 713 10 713 10 707 10 c 2,31,-1
 437 -2 l 1,32,33
 406 -2 406 -2 295 95 c 2,34,-1
 263 123 l 2,35,36
 198.537572254 179.404624277 198.537572254 179.404624277 188.768786127 204.202312139 c 128,-1,37
 179 229 179 229 177 248 c 0,6,7
EndSplineSet
EndChar

StartChar: Ucircumflex
Encoding: 219 219 179
Width: 1126
Flags: HMW
HStem: -2 21G<422.5 437>
VStem: 109 934<1260 1272>
LayerCount: 2
Fore
SplineSet
352 1398 m 1,0,-1
 243 1496 l 1,1,-1
 467 1793 l 1,2,-1
 657 1799 l 1,3,-1
 888 1494 l 1,4,-1
 764 1398 l 1,5,6
 646 1493 646 1493 555 1580 c 1,7,8
 461 1477 461 1477 352 1398 c 1,0,-1
177 248 m 0,9,10
 114 815 114 815 109 1260 c 1,11,-1
 363 1300 l 1,12,-1
 404 270 l 1,13,14
 485 222 485 222 646 222 c 0,15,16
 677 222 677 222 715 227 c 1,17,-1
 768 1307 l 1,18,-1
 1043 1272 l 1,19,-1
 950 285 l 1,20,21
 945.554252199 249.434017595 945.554252199 249.434017595 909.7771261 207.217008798 c 128,-1,22
 874 165 874 165 858.5 147.5 c 0,23,24
 827.5 112.5 827.5 112.5 799.25 84.25 c 2,25,-1
 765 50 l 2,26,27
 759 44 759 44 756.5 41 c 128,-1,28
 754 38 754 38 748.5 33 c 128,-1,29
 743 28 743 28 739.5 25.5 c 128,-1,30
 736 23 736 23 731.5 19.5 c 128,-1,31
 727 16 727 16 723.5 14.5 c 0,32,33
 713 10 713 10 707 10 c 2,34,-1
 437 -2 l 1,35,36
 406 -2 406 -2 295 95 c 2,37,-1
 263 123 l 2,38,39
 198.537572254 179.404624277 198.537572254 179.404624277 188.768786127 204.202312139 c 128,-1,40
 179 229 179 229 177 248 c 0,9,10
EndSplineSet
EndChar

StartChar: Udieresis
Encoding: 220 220 180
Width: 1126
Flags: HMW
HStem: -2 21G<422.5 437>
VStem: 109 934<1260 1272>
LayerCount: 2
Fore
SplineSet
286 1477 m 1,0,1
 271 1619 271 1619 245 1719 c 1,2,-1
 462 1774 l 1,3,4
 497 1716 497 1716 497 1613 c 128,-1,5
 497 1510 497 1510 485 1488 c 1,6,-1
 286 1477 l 1,0,1
637 1498 m 1,7,8
 654 1571 654 1571 654 1640.5 c 128,-1,9
 654 1710 654 1710 649 1748 c 1,10,-1
 872 1764 l 1,11,12
 887 1733 887 1733 887 1674.5 c 128,-1,13
 887 1616 887 1616 872 1553 c 128,-1,14
 857 1490 857 1490 839 1463 c 1,15,-1
 637 1498 l 1,7,8
177 248 m 0,16,17
 114 815 114 815 109 1260 c 1,18,-1
 363 1300 l 1,19,-1
 404 270 l 1,20,21
 485 222 485 222 646 222 c 0,22,23
 677 222 677 222 715 227 c 1,24,-1
 768 1307 l 1,25,-1
 1043 1272 l 1,26,-1
 950 285 l 1,27,28
 945.554252199 249.434017595 945.554252199 249.434017595 909.7771261 207.217008798 c 128,-1,29
 874 165 874 165 858.5 147.5 c 0,30,31
 827.5 112.5 827.5 112.5 799.25 84.25 c 2,32,-1
 765 50 l 2,33,34
 759 44 759 44 756.5 41 c 128,-1,35
 754 38 754 38 748.5 33 c 128,-1,36
 743 28 743 28 739.5 25.5 c 128,-1,37
 736 23 736 23 731.5 19.5 c 128,-1,38
 727 16 727 16 723.5 14.5 c 0,39,40
 713 10 713 10 707 10 c 2,41,-1
 437 -2 l 1,42,43
 406 -2 406 -2 295 95 c 2,44,-1
 263 123 l 2,45,46
 198.537572254 179.404624277 198.537572254 179.404624277 188.768786127 204.202312139 c 128,-1,47
 179 229 179 229 177 248 c 0,16,17
EndSplineSet
EndChar

StartChar: Ugrave
Encoding: 217 217 181
Width: 1126
Flags: HMW
HStem: -2 21G<422.5 437>
VStem: 109 934<1260 1272>
LayerCount: 2
Fore
SplineSet
675 1404 m 1,0,1
 570 1427 570 1427 435 1504 c 128,-1,2
 300 1581 300 1581 247 1646 c 1,3,-1
 411 1820 l 1,4,-1
 755 1527 l 1,5,-1
 675 1404 l 1,0,1
177 248 m 0,6,7
 114 815 114 815 109 1260 c 1,8,-1
 363 1300 l 1,9,-1
 404 270 l 1,10,11
 485 222 485 222 646 222 c 0,12,13
 677 222 677 222 715 227 c 1,14,-1
 768 1307 l 1,15,-1
 1043 1272 l 1,16,-1
 950 285 l 1,17,18
 945.554252199 249.434017595 945.554252199 249.434017595 909.7771261 207.217008798 c 128,-1,19
 874 165 874 165 858.5 147.5 c 0,20,21
 827.5 112.5 827.5 112.5 799.25 84.25 c 2,22,-1
 765 50 l 2,23,24
 759 44 759 44 756.5 41 c 128,-1,25
 754 38 754 38 748.5 33 c 128,-1,26
 743 28 743 28 739.5 25.5 c 128,-1,27
 736 23 736 23 731.5 19.5 c 128,-1,28
 727 16 727 16 723.5 14.5 c 0,29,30
 713 10 713 10 707 10 c 2,31,-1
 437 -2 l 1,32,33
 406 -2 406 -2 295 95 c 2,34,-1
 263 123 l 2,35,36
 198.537572254 179.404624277 198.537572254 179.404624277 188.768786127 204.202312139 c 128,-1,37
 179 229 179 229 177 248 c 0,6,7
EndSplineSet
EndChar

StartChar: Yacute
Encoding: 221 221 182
Width: 1042
Flags: HMW
HStem: -16 21G<407 407>
VStem: 39 968<1245 1270>
LayerCount: 2
Fore
SplineSet
423 1396 m 1,0,-1
 343 1519 l 1,1,-1
 696 1820 l 1,2,-1
 845 1634 l 1,3,4
 792 1569 792 1569 660 1494 c 128,-1,5
 528 1419 528 1419 423 1396 c 1,0,-1
407 -16 m 1,6,-1
 404 439 l 1,7,8
 368 441 368 441 303 451 c 1,9,10
 223.330049261 651.650246305 223.330049261 651.650246305 137.665024631 928.325123153 c 128,-1,11
 52 1205 52 1205 39 1245 c 1,12,-1
 299 1311 l 1,13,-1
 347 1149 l 1,14,-1
 465 614 l 1,15,16
 480 613 480 613 518.5 613 c 128,-1,17
 557 613 557 613 600 621 c 1,18,-1
 737 1298 l 1,19,-1
 1007 1270 l 1,20,21
 945 1020 945 1020 891.5 853 c 128,-1,22
 838 686 838 686 746 451 c 1,23,24
 694 443 694 443 652 440 c 1,25,-1
 622 0 l 1,26,-1
 407 -16 l 1,6,-1
EndSplineSet
EndChar

StartChar: aacute
Encoding: 225 225 183
Width: 901
Flags: HMW
HStem: -72 1661<579 795>
VStem: 90 229 573 212
LayerCount: 2
Fore
SplineSet
398 1117 m 1,0,-1
 290 1220 l 1,1,-1
 579 1589 l 1,2,-1
 753 1425 l 1,3,4
 707 1356 707 1356 594 1259.5 c 128,-1,5
 481 1163 481 1163 398 1117 c 1,0,-1
149 53 m 0,6,7
 125 62 125 62 110.5 121 c 0,8,9
 87.3319559229 215.269972452 87.3319559229 215.269972452 90.1659779614 307.134986226 c 0,10,11
 97.3767119247 540.871409529 97.3767119247 540.871409529 156 556 c 0,12,13
 300.4 594.876923077 300.4 594.876923077 562 615 c 1,14,-1
 558 756 l 1,15,16
 475 772 475 772 322 792.5 c 128,-1,17
 169 813 169 813 128 819 c 1,18,-1
 181 1038 l 1,19,-1
 207 1034 l 1,20,21
 569.381679389 983.435114504 569.381679389 983.435114504 719 930 c 0,22,23
 785 906 785 906 785 833 c 2,24,-1
 789 285 l 1,25,-1
 576 264 l 1,26,-1
 570 435 l 1,27,28
 413 408 413 408 330 384 c 1,29,30
 319 325 319 325 319 283.5 c 128,-1,31
 319 242 319 242 323 217 c 1,32,33
 473 184 473 184 758 152 c 2,34,-1
 840 143 l 1,35,-1
 795 -72 l 1,36,37
 375 -28 375 -28 149 53 c 0,6,7
EndSplineSet
EndChar

StartChar: acircumflex
Encoding: 226 226 184
Width: 901
Flags: HMW
HStem: -72 1607<548 795>
VStem: 90 229 573 212
LayerCount: 2
Fore
SplineSet
243 1134 m 1,0,-1
 134 1232 l 1,1,-1
 358 1529 l 1,2,-1
 548 1535 l 1,3,-1
 779 1230 l 1,4,-1
 655 1134 l 1,5,6
 537 1229 537 1229 446 1316 c 1,7,8
 352 1213 352 1213 243 1134 c 1,0,-1
149 53 m 0,9,10
 125 62 125 62 110.5 121 c 0,11,12
 87.3319559229 215.269972452 87.3319559229 215.269972452 90.1659779614 307.134986226 c 0,13,14
 97.3767119247 540.871409529 97.3767119247 540.871409529 156 556 c 0,15,16
 300.4 594.876923077 300.4 594.876923077 562 615 c 1,17,-1
 558 756 l 1,18,19
 475 772 475 772 322 792.5 c 128,-1,20
 169 813 169 813 128 819 c 1,21,-1
 181 1038 l 1,22,-1
 207 1034 l 1,23,24
 569.381679389 983.435114504 569.381679389 983.435114504 719 930 c 0,25,26
 785 906 785 906 785 833 c 2,27,-1
 789 285 l 1,28,-1
 576 264 l 1,29,-1
 570 435 l 1,30,31
 413 408 413 408 330 384 c 1,32,33
 319 325 319 325 319 283.5 c 128,-1,34
 319 242 319 242 323 217 c 1,35,36
 473 184 473 184 758 152 c 2,37,-1
 840 143 l 1,38,-1
 795 -72 l 1,39,40
 375 -28 375 -28 149 53 c 0,9,10
EndSplineSet
EndChar

StartChar: adieresis
Encoding: 228 228 185
Width: 901
Flags: HMW
HStem: -72 1525<355 795>
VStem: 90 229 530 233<1319.5 1363.5> 573 212
LayerCount: 2
Fore
SplineSet
179 1156 m 1,0,1
 163 1296 163 1296 138 1398 c 1,2,-1
 355 1453 l 1,3,4
 390 1395 390 1395 390 1293 c 128,-1,5
 390 1191 390 1191 377 1167 c 1,6,-1
 179 1156 l 1,0,1
512 1177 m 1,7,8
 530 1254 530 1254 530 1322 c 128,-1,9
 530 1390 530 1390 525 1427 c 1,10,-1
 748 1443 l 1,11,12
 763 1412 763 1412 763 1353.5 c 128,-1,13
 763 1295 763 1295 748 1232 c 128,-1,14
 733 1169 733 1169 715 1142 c 1,15,-1
 512 1177 l 1,7,8
149 53 m 0,16,17
 125 62 125 62 110.5 121 c 0,18,19
 87.3319559229 215.269972452 87.3319559229 215.269972452 90.1659779614 307.134986226 c 0,20,21
 97.3767119247 540.871409529 97.3767119247 540.871409529 156 556 c 0,22,23
 300.4 594.876923077 300.4 594.876923077 562 615 c 1,24,-1
 558 756 l 1,25,26
 475 772 475 772 322 792.5 c 128,-1,27
 169 813 169 813 128 819 c 1,28,-1
 181 1038 l 1,29,-1
 207 1034 l 1,30,31
 569.381679389 983.435114504 569.381679389 983.435114504 719 930 c 0,32,33
 785 906 785 906 785 833 c 2,34,-1
 789 285 l 1,35,-1
 576 264 l 1,36,-1
 570 435 l 1,37,38
 413 408 413 408 330 384 c 1,39,40
 319 325 319 325 319 283.5 c 128,-1,41
 319 242 319 242 323 217 c 1,42,43
 473 184 473 184 758 152 c 2,44,-1
 840 143 l 1,45,-1
 795 -72 l 1,46,47
 375 -28 375 -28 149 53 c 0,16,17
EndSplineSet
EndChar

StartChar: agrave
Encoding: 224 224 186
Width: 901
Flags: HMW
HStem: -72 1663<351 795>
VStem: 90 229 573 212
LayerCount: 2
Fore
SplineSet
529 1117 m 1,0,1
 439 1168 439 1168 353.5 1242.5 c 0,2,3
 195.969377339 1379.76352501 195.969377339 1379.76352501 156 1455 c 1,4,-1
 351 1591 l 1,5,-1
 638 1220 l 1,6,-1
 529 1117 l 1,0,1
149 53 m 0,7,8
 125 62 125 62 110.5 121 c 0,9,10
 87.3319559229 215.269972452 87.3319559229 215.269972452 90.1659779614 307.134986226 c 0,11,12
 97.3767119247 540.871409529 97.3767119247 540.871409529 156 556 c 0,13,14
 300.4 594.876923077 300.4 594.876923077 562 615 c 1,15,-1
 558 756 l 1,16,17
 475 772 475 772 322 792.5 c 128,-1,18
 169 813 169 813 128 819 c 1,19,-1
 181 1038 l 1,20,-1
 207 1034 l 1,21,22
 569.381679389 983.435114504 569.381679389 983.435114504 719 930 c 0,23,24
 785 906 785 906 785 833 c 2,25,-1
 789 285 l 1,26,-1
 576 264 l 1,27,-1
 570 435 l 1,28,29
 413 408 413 408 330 384 c 1,30,31
 319 325 319 325 319 283.5 c 128,-1,32
 319 242 319 242 323 217 c 1,33,34
 473 184 473 184 758 152 c 2,35,-1
 840 143 l 1,36,-1
 795 -72 l 1,37,38
 375 -28 375 -28 149 53 c 0,7,8
EndSplineSet
EndChar

StartChar: aring
Encoding: 229 229 187
Width: 901
Flags: HMW
HStem: 1115 164<428.5 474.5 428.5 530.5> 1421 157<439.5 482.5>
VStem: 222 167 527 166 573 212
LayerCount: 2
Fore
SplineSet
629 1186 m 128,-1,1
 565 1115 565 1115 459 1115 c 128,-1,2
 353 1115 353 1115 287.5 1183.5 c 128,-1,3
 222 1252 222 1252 222 1360 c 128,-1,4
 222 1468 222 1468 288 1523 c 128,-1,5
 354 1578 354 1578 459.5 1578 c 128,-1,6
 565 1578 565 1578 629 1524.5 c 128,-1,7
 693 1471 693 1471 693 1364 c 128,-1,0
 693 1257 693 1257 629 1186 c 128,-1,1
406.5 1298.5 m 128,-1,9
 420 1279 420 1279 452.5 1279 c 0,10,11
 513.756756757 1279 513.756756757 1279 527 1349 c 1,12,13
 532.684210526 1421 532.684210526 1421 459 1421 c 0,14,15
 426 1421 426 1421 404.5 1403.5 c 128,-1,16
 383 1386 383 1386 388 1352 c 128,-1,8
 393 1318 393 1318 406.5 1298.5 c 128,-1,9
149 53 m 0,17,18
 125 62 125 62 110.5 121 c 0,19,20
 87.3319559229 215.269972452 87.3319559229 215.269972452 90.1659779614 307.134986226 c 0,21,22
 97.3767119247 540.871409529 97.3767119247 540.871409529 156 556 c 0,23,24
 300.4 594.876923077 300.4 594.876923077 562 615 c 1,25,-1
 558 756 l 1,26,27
 475 772 475 772 322 792.5 c 128,-1,28
 169 813 169 813 128 819 c 1,29,-1
 181 1038 l 1,30,-1
 207 1034 l 1,31,32
 569.381679389 983.435114504 569.381679389 983.435114504 719 930 c 0,33,34
 785 906 785 906 785 833 c 2,35,-1
 789 285 l 1,36,-1
 576 264 l 1,37,-1
 570 435 l 1,38,39
 413 408 413 408 330 384 c 1,40,41
 319 325 319 325 319 283.5 c 128,-1,42
 319 242 319 242 323 217 c 1,43,44
 473 184 473 184 758 152 c 2,45,-1
 840 143 l 1,46,-1
 795 -72 l 1,47,48
 375 -28 375 -28 149 53 c 0,17,18
EndSplineSet
EndChar

StartChar: atilde
Encoding: 227 227 188
Width: 901
Flags: HW
LayerCount: 2
Fore
SplineSet
181 1152 m 1,0,-1
 117 1244 l 1,1,2
 157 1305 157 1305 231.5 1373 c 128,-1,3
 306 1441 306 1441 346 1441 c 128,-1,4
 386 1441 386 1441 473 1396 c 128,-1,5
 560 1351 560 1351 570.5 1351 c 128,-1,6
 581 1351 581 1351 725 1453 c 1,7,-1
 801 1359 l 1,8,9
 693.784 1198.176 693.784 1198.176 627.5 1155.5 c 0,10,11
 591 1132 591 1132 559 1132 c 128,-1,12
 527 1132 527 1132 479 1155 c 128,-1,13
 431 1178 431 1178 393 1201 c 128,-1,14
 355 1224 355 1224 347.5 1224 c 128,-1,15
 340 1224 340 1224 181 1152 c 1,0,-1
149 53 m 0,16,17
 125 62 125 62 110.5 121 c 0,18,19
 87.3319559229 215.269972452 87.3319559229 215.269972452 90.1659779614 307.134986226 c 0,20,21
 97.3767119247 540.871409529 97.3767119247 540.871409529 156 556 c 0,22,23
 300.4 594.876923077 300.4 594.876923077 562 615 c 1,24,-1
 558 756 l 1,25,26
 475 772 475 772 322 792.5 c 128,-1,27
 169 813 169 813 128 819 c 1,28,-1
 181 1038 l 1,29,-1
 207 1034 l 1,30,31
 569.381679389 983.435114504 569.381679389 983.435114504 719 930 c 0,32,33
 785 906 785 906 785 833 c 2,34,-1
 789 285 l 1,35,-1
 576 264 l 1,36,-1
 570 435 l 1,37,38
 413 408 413 408 330 384 c 1,39,40
 319 325 319 325 319 283.5 c 128,-1,41
 319 242 319 242 323 217 c 1,42,43
 473 184 473 184 758 152 c 2,44,-1
 840 143 l 1,45,-1
 795 -72 l 1,46,47
 375 -28 375 -28 149 53 c 0,16,17
EndSplineSet
EndChar

StartChar: ccedilla
Encoding: 231 231 189
Width: 805
Flags: HMW
HStem: -552 21G<331 331> -26 21G<496 496>
VStem: 116 245<395 477>
LayerCount: 2
Fore
SplineSet
136 131 m 0,0,1
 116 273 116 273 116 467.5 c 0,2,3
 116 662 116 662 149 840 c 0,4,5
 158 893 158 893 174 913 c 128,-1,6
 190 933 190 933 222.5 942.5 c 0,7,8
 255 952 255 952 299 961 c 128,-1,9
 343 970 343 970 405 980 c 128,-1,10
 467 990 467 990 507 996 c 128,-1,11
 547 1002 547 1002 619.5 1012 c 128,-1,12
 692 1022 692 1022 704 1024 c 1,13,-1
 739 799 l 1,14,15
 435 766 435 766 389 754 c 1,16,17
 380 714 380 714 370.5 605.5 c 128,-1,18
 361 497 361 497 361 396 c 0,19,20
 361 295 361 295 371 223 c 1,21,-1
 753 152 l 1,22,-1
 694 -63 l 1,23,24
 592 -46 592 -46 496 -26 c 1,25,-1
 479 -122 l 1,26,27
 598 -154 598 -154 630 -170 c 1,28,29
 657 -181 657 -181 657 -229.5 c 0,30,31
 657 -278 657 -278 640.5 -349 c 128,-1,32
 624 -420 624 -420 608 -444 c 0,33,34
 578 -487 578 -487 331 -552 c 1,35,-1
 286 -395 l 1,36,37
 293 -393 293 -393 462 -342 c 1,38,-1
 468 -284 l 1,39,40
 396 -262 396 -262 288 -243 c 1,41,-1
 361 3 l 1,42,43
 240 30 240 30 200 47 c 1,44,45
 146 65 146 65 136 131 c 0,0,1
EndSplineSet
EndChar

StartChar: eacute
Encoding: 233 233 190
Width: 958
Flags: HMW
HStem: -72 1661<524 786>
VStem: 122 226<666 686.5> 606 225<369 584 369 620>
LayerCount: 2
Fore
SplineSet
343 1117 m 1,0,-1
 235 1220 l 1,1,-1
 524 1589 l 1,2,-1
 698 1425 l 1,3,4
 652 1356 652 1356 539 1259.5 c 128,-1,5
 426 1163 426 1163 343 1117 c 1,0,-1
129 150 m 2,6,-1
 122 666 l 1,7,8
 122 799 122 799 153 823 c 0,9,10
 234 886 234 886 384 949 c 128,-1,11
 534 1012 534 1012 612.5 1012 c 0,12,13
 784.622222222 1012 784.622222222 1012 798 926 c 1,14,15
 831 686 831 686 831 428 c 2,16,-1
 831 369 l 1,17,-1
 352 363 l 1,18,-1
 352 233 l 1,19,20
 433 214 433 214 602.5 187.5 c 128,-1,21
 772 161 772 161 845 147 c 1,22,-1
 786 -72 l 1,23,24
 526 -32 526 -32 202 67 c 0,25,26
 130 90 130 90 129 150 c 2,6,-1
348 535 m 1,27,-1
 606 563 l 1,28,-1
 606 584 l 2,29,30
 606 672 606 672 587 782 c 1,31,32
 511.642857143 782 511.642857143 782 437.821428571 755.5 c 128,-1,33
 364 729 364 729 348 715 c 1,34,-1
 348 535 l 1,27,-1
EndSplineSet
EndChar

StartChar: ecircumflex
Encoding: 234 234 191
Width: 958
Flags: HMW
HStem: -72 1607<567 786>
VStem: 122 226<666 686.5> 606 225<369 584 369 620>
LayerCount: 2
Fore
SplineSet
262 1134 m 1,0,-1
 153 1232 l 1,1,-1
 377 1529 l 1,2,-1
 567 1535 l 1,3,-1
 798 1230 l 1,4,-1
 674 1134 l 1,5,6
 556 1229 556 1229 465 1316 c 1,7,8
 371 1213 371 1213 262 1134 c 1,0,-1
129 150 m 2,9,-1
 122 666 l 1,10,11
 122 799 122 799 153 823 c 0,12,13
 234 886 234 886 384 949 c 128,-1,14
 534 1012 534 1012 612.5 1012 c 0,15,16
 784.622222222 1012 784.622222222 1012 798 926 c 1,17,18
 831 686 831 686 831 428 c 2,19,-1
 831 369 l 1,20,-1
 352 363 l 1,21,-1
 352 233 l 1,22,23
 433 214 433 214 602.5 187.5 c 128,-1,24
 772 161 772 161 845 147 c 1,25,-1
 786 -72 l 1,26,27
 526 -32 526 -32 202 67 c 0,28,29
 130 90 130 90 129 150 c 2,9,-1
348 535 m 1,30,-1
 606 563 l 1,31,-1
 606 584 l 2,32,33
 606 672 606 672 587 782 c 1,34,35
 511.642857143 782 511.642857143 782 437.821428571 755.5 c 128,-1,36
 364 729 364 729 348 715 c 1,37,-1
 348 535 l 1,30,-1
EndSplineSet
EndChar

StartChar: edieresis
Encoding: 235 235 192
Width: 958
Flags: HMW
HStem: -72 1525<362 786>
VStem: 122 226<666 686.5> 537 233<1319.5 1363.5> 606 225<369 584 369 620>
LayerCount: 2
Fore
SplineSet
186 1156 m 1,0,1
 170 1296 170 1296 145 1398 c 1,2,-1
 362 1453 l 1,3,4
 397 1395 397 1395 397 1293 c 128,-1,5
 397 1191 397 1191 384 1167 c 1,6,-1
 186 1156 l 1,0,1
519 1177 m 1,7,8
 537 1254 537 1254 537 1322 c 128,-1,9
 537 1390 537 1390 532 1427 c 1,10,-1
 755 1443 l 1,11,12
 770 1412 770 1412 770 1353.5 c 128,-1,13
 770 1295 770 1295 755 1232 c 128,-1,14
 740 1169 740 1169 722 1142 c 1,15,-1
 519 1177 l 1,7,8
129 150 m 2,16,-1
 122 666 l 1,17,18
 122 799 122 799 153 823 c 0,19,20
 234 886 234 886 384 949 c 128,-1,21
 534 1012 534 1012 612.5 1012 c 0,22,23
 784.622222222 1012 784.622222222 1012 798 926 c 1,24,25
 831 686 831 686 831 428 c 2,26,-1
 831 369 l 1,27,-1
 352 363 l 1,28,-1
 352 233 l 1,29,30
 433 214 433 214 602.5 187.5 c 128,-1,31
 772 161 772 161 845 147 c 1,32,-1
 786 -72 l 1,33,34
 526 -32 526 -32 202 67 c 0,35,36
 130 90 130 90 129 150 c 2,16,-1
348 535 m 1,37,-1
 606 563 l 1,38,-1
 606 584 l 2,39,40
 606 672 606 672 587 782 c 1,41,42
 511.642857143 782 511.642857143 782 437.821428571 755.5 c 128,-1,43
 364 729 364 729 348 715 c 1,44,-1
 348 535 l 1,37,-1
EndSplineSet
EndChar

StartChar: egrave
Encoding: 232 232 193
Width: 958
Flags: HMW
HStem: -72 1663<352 786>
VStem: 122 226<666 686.5> 606 225<369 584 369 620>
LayerCount: 2
Fore
SplineSet
530 1117 m 1,0,1
 440 1168 440 1168 354.5 1242.5 c 0,2,3
 196.969377339 1379.76352501 196.969377339 1379.76352501 157 1455 c 1,4,-1
 352 1591 l 1,5,-1
 639 1220 l 1,6,-1
 530 1117 l 1,0,1
129 150 m 2,7,-1
 122 666 l 1,8,9
 122 799 122 799 153 823 c 0,10,11
 234 886 234 886 384 949 c 128,-1,12
 534 1012 534 1012 612.5 1012 c 0,13,14
 784.622222222 1012 784.622222222 1012 798 926 c 1,15,16
 831 686 831 686 831 428 c 2,17,-1
 831 369 l 1,18,-1
 352 363 l 1,19,-1
 352 233 l 1,20,21
 433 214 433 214 602.5 187.5 c 128,-1,22
 772 161 772 161 845 147 c 1,23,-1
 786 -72 l 1,24,25
 526 -32 526 -32 202 67 c 0,26,27
 130 90 130 90 129 150 c 2,7,-1
348 535 m 1,28,-1
 606 563 l 1,29,-1
 606 584 l 2,30,31
 606 672 606 672 587 782 c 1,32,33
 511.642857143 782 511.642857143 782 437.821428571 755.5 c 128,-1,34
 364 729 364 729 348 715 c 1,35,-1
 348 535 l 1,28,-1
EndSplineSet
EndChar

StartChar: iacute
Encoding: 237 237 194
Width: 604
Flags: HMW
HStem: -18 21G<186 186> 0 21G<399 399>
VStem: 176 234
LayerCount: 2
Fore
SplineSet
280 1117 m 1,0,-1
 172 1220 l 1,1,-1
 461 1589 l 1,2,-1
 635 1425 l 1,3,4
 589 1356 589 1356 476 1259.5 c 0,5,6
 363 1163 363 1163 280 1117 c 1,0,-1
186 -18 m 1,7,-1
 166 969 l 1,8,-1
 420 1001 l 1,9,10
 425 911 425 911 425 834.5 c 0,11,12
 425 758 425 758 422 664 c 2,13,-1
 399 0 l 1,14,-1
 186 -18 l 1,7,-1
EndSplineSet
EndChar

StartChar: icircumflex
Encoding: 238 238 195
Width: 596
Flags: HMW
HStem: -18 21G<186 186> 0 21G<399 399>
VStem: 176 234
LayerCount: 2
Fore
SplineSet
84 1134 m 1,0,-1
 -25 1232 l 1,1,-1
 199 1529 l 1,2,-1
 389 1535 l 1,3,-1
 620 1230 l 1,4,-1
 496 1134 l 1,5,6
 378 1229 378 1229 287 1316 c 1,7,8
 193 1213 193 1213 84 1134 c 1,0,-1
186 -18 m 1,9,-1
 166 969 l 1,10,-1
 420 1001 l 1,11,12
 425 911 425 911 425 834.5 c 0,13,14
 425 758 425 758 422 664 c 2,15,-1
 399 0 l 1,16,-1
 186 -18 l 1,9,-1
EndSplineSet
EndChar

StartChar: idieresis
Encoding: 239 239 196
Width: 616
Flags: HMW
HStem: -16 21G<196 196> 0 21G<409 409>
VStem: 186 234 388 233<1317.5 1361.5>
LayerCount: 2
Fore
SplineSet
37 1154 m 1,0,1
 21 1294 21 1294 -4 1396 c 1,2,-1
 213 1451 l 1,3,4
 248 1393 248 1393 248 1291 c 0,5,6
 248 1189 248 1189 235 1165 c 1,7,-1
 37 1154 l 1,0,1
370 1175 m 1,8,9
 388 1252 388 1252 388 1320 c 0,10,11
 388 1388 388 1388 383 1425 c 1,12,-1
 606 1441 l 1,13,14
 621 1410 621 1410 621 1351.5 c 0,15,16
 621 1293 621 1293 606 1230 c 128,-1,17
 591 1167 591 1167 573 1140 c 1,18,-1
 370 1175 l 1,8,9
196 -16 m 1,19,-1
 176 969 l 1,20,-1
 430 1001 l 1,21,22
 435 911 435 911 435 834.5 c 0,23,24
 435 758 435 758 432 664 c 2,25,-1
 409 0 l 1,26,-1
 196 -16 l 1,19,-1
EndSplineSet
EndChar

StartChar: igrave
Encoding: 236 236 197
Width: 596
Flags: HMW
HStem: -18 21G<186 186> 0 21G<399 399>
VStem: 176 234
LayerCount: 2
Fore
SplineSet
334 1117 m 1,0,1
 244 1168 244 1168 158.5 1242.5 c 0,2,3
 0.969377339231 1379.76352501 0.969377339231 1379.76352501 -39 1455 c 1,4,-1
 156 1591 l 1,5,-1
 443 1220 l 1,6,-1
 334 1117 l 1,0,1
186 -18 m 1,7,-1
 166 969 l 1,8,-1
 420 1001 l 1,9,10
 425 911 425 911 425 834.5 c 128,-1,11
 425 758 425 758 422 664 c 2,12,-1
 399 0 l 1,13,-1
 186 -18 l 1,7,-1
EndSplineSet
EndChar

StartChar: ntilde
Encoding: 241 241 198
Width: 1024
Flags: HMW
HStem: -20 21G<659 659> -8 21G<155 155> -2 21G<882 882> 756 227<597.5 620> 1132 219<634.5 654 634.5 684>
VStem: 146 235 657 260
LayerCount: 2
Fore
SplineSet
260 1152 m 1,0,-1
 196 1244 l 1,1,2
 236 1305 236 1305 310.5 1373 c 128,-1,3
 385 1441 385 1441 420.5 1441 c 128,-1,4
 456 1441 456 1441 505.5 1418.5 c 128,-1,5
 555 1396 555 1396 596.5 1373.5 c 128,-1,6
 638 1351 638 1351 649 1351 c 128,-1,7
 660 1351 660 1351 804 1453 c 1,8,-1
 880 1359 l 1,9,10
 772.784 1198.176 772.784 1198.176 706.5 1155.5 c 0,11,12
 670 1132 670 1132 638 1132 c 128,-1,13
 606 1132 606 1132 558 1155 c 128,-1,14
 510 1178 510 1178 472 1201 c 128,-1,15
 434 1224 434 1224 426.5 1224 c 128,-1,16
 419 1224 419 1224 260 1152 c 1,0,-1
155 -8 m 1,17,-1
 137 956 l 1,18,-1
 350 983 l 1,19,-1
 385 831 l 1,20,-1
 561 983 l 1,21,-1
 807 983 l 2,22,23
 828 983 828 983 872.5 945 c 128,-1,24
 917 907 917 907 917 870 c 1,25,-1
 882 -2 l 1,26,-1
 659 -20 l 1,27,-1
 655 752 l 1,28,29
 639 756 639 756 613.5 756 c 0,30,31
 542.636363636 756 542.636363636 756 469 729 c 2,32,-1
 395 702 l 1,33,-1
 368 8 l 1,34,-1
 155 -8 l 1,17,-1
EndSplineSet
EndChar

StartChar: oacute
Encoding: 243 243 199
Width: 991
Flags: HMW
HStem: -31 210 -4 21G 778 236<256.5 298>
VStem: 139 231<416.5 592> 646 238<534.5 633>
LayerCount: 2
Fore
SplineSet
438 1117 m 1,0,-1
 330 1220 l 1,1,-1
 619 1589 l 1,2,-1
 793 1425 l 1,3,4
 747 1356 747 1356 634 1259.5 c 128,-1,5
 521 1163 521 1163 438 1117 c 1,0,-1
172 100 m 0,6,7
 139 279 139 279 139 479 c 0,8,9
 139 530 139 530 143 628 c 1,10,-1
 370 673 l 1,11,-1
 370 592 l 2,12,13
 370 350 370 350 395 174 c 1,14,-1
 592 184 l 1,15,16
 646 398 646 398 646 602 c 0,17,18
 646 687 646 687 635 748 c 1,19,20
 612 760 612 760 478.5 769 c 128,-1,21
 345 778 345 778 246 778 c 128,-1,22
 147 778 147 778 114 776 c 1,23,-1
 157 1008 l 1,24,25
 224 1014 224 1014 282 1014 c 0,26,27
 533 1014 533 1014 766 961 c 0,28,29
 819 948 819 948 839 924.5 c 0,30,31
 884 871.625 884 871.625 884 611.3125 c 128,-1,32
 884 351 884 351 791 63 c 0,33,34
 770.785714286 2.35714285714 770.785714286 2.35714285714 739 -4 c 0,35,36
 607 -31 607 -31 452 -31 c 128,-1,37
 297 -31 297 -31 252 -15 c 128,-1,38
 207 1 207 1 194 26.5 c 128,-1,39
 181 52 181 52 172 100 c 0,6,7
EndSplineSet
EndChar

StartChar: ocircumflex
Encoding: 244 244 200
Width: 991
Flags: HMW
HStem: -31 210 -4 21G 778 236<256.5 298>
VStem: 139 231<416.5 592> 646 238<534.5 633>
LayerCount: 2
Fore
SplineSet
286 1134 m 1,0,-1
 177 1232 l 1,1,-1
 401 1529 l 1,2,-1
 591 1535 l 1,3,-1
 822 1230 l 1,4,-1
 698 1134 l 1,5,6
 580 1229 580 1229 489 1316 c 1,7,8
 395 1213 395 1213 286 1134 c 1,0,-1
172 100 m 0,9,10
 139 279 139 279 139 479 c 0,11,12
 139 530 139 530 143 628 c 1,13,-1
 370 673 l 1,14,-1
 370 592 l 2,15,16
 370 350 370 350 395 174 c 1,17,-1
 592 184 l 1,18,19
 646 398 646 398 646 602 c 0,20,21
 646 687 646 687 635 748 c 1,22,23
 612 760 612 760 478.5 769 c 128,-1,24
 345 778 345 778 246 778 c 128,-1,25
 147 778 147 778 114 776 c 1,26,-1
 157 1008 l 1,27,28
 224 1014 224 1014 282 1014 c 0,29,30
 533 1014 533 1014 766 961 c 0,31,32
 819 948 819 948 839 924.5 c 0,33,34
 884 871.625 884 871.625 884 611.3125 c 128,-1,35
 884 351 884 351 791 63 c 0,36,37
 770.785714286 2.35714285714 770.785714286 2.35714285714 739 -4 c 0,38,39
 607 -31 607 -31 452 -31 c 128,-1,40
 297 -31 297 -31 252 -15 c 128,-1,41
 207 1 207 1 194 26.5 c 128,-1,42
 181 52 181 52 172 100 c 0,9,10
EndSplineSet
EndChar

StartChar: odieresis
Encoding: 246 246 201
Width: 991
Flags: HMW
HStem: -31 210 -4 21G 778 236<256.5 298>
VStem: 139 231<416.5 592> 570 233<1319.5 1363.5> 646 238<534.5 633>
LayerCount: 2
Fore
SplineSet
219 1156 m 1,0,1
 203 1296 203 1296 178 1398 c 1,2,-1
 395 1453 l 1,3,4
 430 1395 430 1395 430 1293 c 128,-1,5
 430 1191 430 1191 417 1167 c 1,6,-1
 219 1156 l 1,0,1
552 1177 m 1,7,8
 570 1254 570 1254 570 1322 c 128,-1,9
 570 1390 570 1390 565 1427 c 1,10,-1
 788 1443 l 1,11,12
 803 1412 803 1412 803 1353.5 c 128,-1,13
 803 1295 803 1295 788 1232 c 128,-1,14
 773 1169 773 1169 755 1142 c 1,15,-1
 552 1177 l 1,7,8
172 100 m 0,16,17
 139 279 139 279 139 479 c 0,18,19
 139 530 139 530 143 628 c 1,20,-1
 370 673 l 1,21,-1
 370 592 l 2,22,23
 370 350 370 350 395 174 c 1,24,-1
 592 184 l 1,25,26
 646 398 646 398 646 602 c 0,27,28
 646 687 646 687 635 748 c 1,29,30
 612 760 612 760 478.5 769 c 128,-1,31
 345 778 345 778 246 778 c 128,-1,32
 147 778 147 778 114 776 c 1,33,-1
 157 1008 l 1,34,35
 224 1014 224 1014 282 1014 c 0,36,37
 533 1014 533 1014 766 961 c 0,38,39
 819 948 819 948 839 924.5 c 0,40,41
 884 871.625 884 871.625 884 611.3125 c 128,-1,42
 884 351 884 351 791 63 c 0,43,44
 770.785714286 2.35714285714 770.785714286 2.35714285714 739 -4 c 0,45,46
 607 -31 607 -31 452 -31 c 128,-1,47
 297 -31 297 -31 252 -15 c 128,-1,48
 207 1 207 1 194 26.5 c 128,-1,49
 181 52 181 52 172 100 c 0,16,17
EndSplineSet
EndChar

StartChar: ograve
Encoding: 242 242 202
Width: 991
Flags: HMW
HStem: -31 210 -4 21G 778 236<256.5 298>
VStem: 139 231<416.5 592> 646 238<534.5 633>
LayerCount: 2
Fore
SplineSet
569 1117 m 1,0,1
 479 1168 479 1168 393.5 1242.5 c 0,2,3
 235.969377339 1379.76352501 235.969377339 1379.76352501 196 1455 c 1,4,-1
 391 1591 l 1,5,-1
 678 1220 l 1,6,-1
 569 1117 l 1,0,1
172 100 m 0,7,8
 139 279 139 279 139 479 c 0,9,10
 139 530 139 530 143 628 c 1,11,-1
 370 673 l 1,12,-1
 370 592 l 2,13,14
 370 350 370 350 395 174 c 1,15,-1
 592 184 l 1,16,17
 646 398 646 398 646 602 c 0,18,19
 646 687 646 687 635 748 c 1,20,21
 612 760 612 760 478.5 769 c 128,-1,22
 345 778 345 778 246 778 c 128,-1,23
 147 778 147 778 114 776 c 1,24,-1
 157 1008 l 1,25,26
 224 1014 224 1014 282 1014 c 0,27,28
 533 1014 533 1014 766 961 c 0,29,30
 819 948 819 948 839 924.5 c 0,31,32
 884 871.625 884 871.625 884 611.3125 c 128,-1,33
 884 351 884 351 791 63 c 0,34,35
 770.785714286 2.35714285714 770.785714286 2.35714285714 739 -4 c 0,36,37
 607 -31 607 -31 452 -31 c 128,-1,38
 297 -31 297 -31 252 -15 c 128,-1,39
 207 1 207 1 194 26.5 c 128,-1,40
 181 52 181 52 172 100 c 0,7,8
EndSplineSet
EndChar

StartChar: otilde
Encoding: 245 245 203
Width: 991
Flags: HMW
HStem: -31 210 -4 21G 778 236<256.5 298> 1132 219<620.5 640 620.5 670>
VStem: 139 231<416.5 592> 646 238<534.5 633>
LayerCount: 2
Fore
SplineSet
246 1152 m 1,0,-1
 182 1244 l 1,1,2
 222 1305 222 1305 296.5 1373 c 128,-1,3
 371 1441 371 1441 406.5 1441 c 128,-1,4
 442 1441 442 1441 491.5 1418.5 c 128,-1,5
 541 1396 541 1396 582.5 1373.5 c 128,-1,6
 624 1351 624 1351 635 1351 c 128,-1,7
 646 1351 646 1351 790 1453 c 1,8,-1
 866 1359 l 1,9,10
 758.784 1198.176 758.784 1198.176 692.5 1155.5 c 0,11,12
 656 1132 656 1132 624 1132 c 128,-1,13
 592 1132 592 1132 544 1155 c 128,-1,14
 496 1178 496 1178 458 1201 c 128,-1,15
 420 1224 420 1224 412.5 1224 c 128,-1,16
 405 1224 405 1224 246 1152 c 1,0,-1
172 100 m 0,17,18
 139 279 139 279 139 479 c 0,19,20
 139 530 139 530 143 628 c 1,21,-1
 370 673 l 1,22,-1
 370 592 l 2,23,24
 370 350 370 350 395 174 c 1,25,-1
 592 184 l 1,26,27
 646 398 646 398 646 602 c 0,28,29
 646 687 646 687 635 748 c 1,30,31
 612 760 612 760 478.5 769 c 128,-1,32
 345 778 345 778 246 778 c 128,-1,33
 147 778 147 778 114 776 c 1,34,-1
 157 1008 l 1,35,36
 224 1014 224 1014 282 1014 c 0,37,38
 533 1014 533 1014 766 961 c 0,39,40
 819 948 819 948 839 924.5 c 0,41,42
 884 871.625 884 871.625 884 611.3125 c 128,-1,43
 884 351 884 351 791 63 c 0,44,45
 770.785714286 2.35714285714 770.785714286 2.35714285714 739 -4 c 0,46,47
 607 -31 607 -31 452 -31 c 128,-1,48
 297 -31 297 -31 252 -15 c 128,-1,49
 207 1 207 1 194 26.5 c 128,-1,50
 181 52 181 52 172 100 c 0,17,18
EndSplineSet
EndChar

StartChar: uacute
Encoding: 250 250 204
Width: 1024
Flags: HMW
HStem: -10 21G<714 714> 6 203
VStem: 134 236 652 235
LayerCount: 2
Fore
SplineSet
456 1117 m 1,0,-1
 348 1220 l 1,1,-1
 637 1589 l 1,2,-1
 811 1425 l 1,3,4
 765 1356 765 1356 652 1259.5 c 128,-1,5
 539 1163 539 1163 456 1117 c 1,0,-1
257 10 m 1,6,7
 232 12 232 12 189 58 c 128,-1,8
 146 104 146 104 144 153 c 2,9,-1
 124 975 l 1,10,-1
 358 1000 l 1,11,-1
 382 226 l 1,12,13
 414 209 414 209 464.5 209 c 128,-1,14
 515 209 515 209 641 270 c 1,15,-1
 664 985 l 1,16,-1
 895 985 l 1,17,-1
 880 10 l 1,18,-1
 714 -10 l 1,19,-1
 671 150 l 1,20,-1
 462 2 l 1,21,-1
 257 10 l 1,6,7
EndSplineSet
EndChar

StartChar: ucircumflex
Encoding: 251 251 205
Width: 1024
Flags: HMW
HStem: -10 21G<714 714> 6 203
VStem: 134 236 652 235
LayerCount: 2
Fore
SplineSet
305 1134 m 1,0,-1
 196 1232 l 1,1,-1
 420 1529 l 1,2,-1
 610 1535 l 1,3,-1
 841 1230 l 1,4,-1
 717 1134 l 1,5,6
 599 1229 599 1229 508 1316 c 1,7,8
 414 1213 414 1213 305 1134 c 1,0,-1
257 10 m 1,9,10
 232 12 232 12 189 58 c 128,-1,11
 146 104 146 104 144 153 c 2,12,-1
 124 975 l 1,13,-1
 358 1000 l 1,14,-1
 382 226 l 1,15,16
 414 209 414 209 464.5 209 c 128,-1,17
 515 209 515 209 641 270 c 1,18,-1
 664 985 l 1,19,-1
 895 985 l 1,20,-1
 880 10 l 1,21,-1
 714 -10 l 1,22,-1
 671 150 l 1,23,-1
 462 2 l 1,24,-1
 257 10 l 1,9,10
EndSplineSet
EndChar

StartChar: udieresis
Encoding: 252 252 206
Width: 1024
Flags: HMW
HStem: -10 21G<714 714> 6 203
VStem: 134 236 589 233<1319.5 1363.5> 652 235
LayerCount: 2
Fore
SplineSet
238 1156 m 1,0,1
 222 1296 222 1296 197 1398 c 1,2,-1
 414 1453 l 1,3,4
 449 1395 449 1395 449 1293 c 128,-1,5
 449 1191 449 1191 436 1167 c 1,6,-1
 238 1156 l 1,0,1
571 1177 m 1,7,8
 589 1254 589 1254 589 1322 c 128,-1,9
 589 1390 589 1390 584 1427 c 1,10,-1
 807 1443 l 1,11,12
 822 1412 822 1412 822 1353.5 c 128,-1,13
 822 1295 822 1295 807 1232 c 128,-1,14
 792 1169 792 1169 774 1142 c 1,15,-1
 571 1177 l 1,7,8
257 10 m 1,16,17
 232 12 232 12 189 58 c 128,-1,18
 146 104 146 104 144 153 c 2,19,-1
 124 975 l 1,20,-1
 358 1000 l 1,21,-1
 382 226 l 1,22,23
 414 209 414 209 464.5 209 c 128,-1,24
 515 209 515 209 641 270 c 1,25,-1
 664 985 l 1,26,-1
 895 985 l 1,27,-1
 880 10 l 1,28,-1
 714 -10 l 1,29,-1
 671 150 l 1,30,-1
 462 2 l 1,31,-1
 257 10 l 1,16,17
EndSplineSet
EndChar

StartChar: ugrave
Encoding: 249 249 207
Width: 1024
Flags: HMW
HStem: -10 21G<714 714> 6 203
VStem: 134 236 652 235
LayerCount: 2
Fore
SplineSet
588 1117 m 1,0,1
 498 1168 498 1168 412.5 1242.5 c 0,2,3
 254.969377339 1379.76352501 254.969377339 1379.76352501 215 1455 c 1,4,-1
 410 1591 l 1,5,-1
 697 1220 l 1,6,-1
 588 1117 l 1,0,1
257 10 m 1,7,8
 232 12 232 12 189 58 c 128,-1,9
 146 104 146 104 144 153 c 2,10,-1
 124 975 l 1,11,-1
 358 1000 l 1,12,-1
 382 226 l 1,13,14
 414 209 414 209 464.5 209 c 128,-1,15
 515 209 515 209 641 270 c 1,16,-1
 664 985 l 1,17,-1
 895 985 l 1,18,-1
 880 10 l 1,19,-1
 714 -10 l 1,20,-1
 671 150 l 1,21,-1
 462 2 l 1,22,-1
 257 10 l 1,7,8
EndSplineSet
EndChar

StartChar: yacute
Encoding: 253 253 208
Width: 1030
Flags: HMW
HStem: -549 21G<308 308> 0 209<444.5 480 444.5 514 258 480>
VStem: 149 228 651 243
LayerCount: 2
Fore
SplineSet
460 1117 m 1,0,-1
 352 1220 l 1,1,-1
 641 1589 l 1,2,-1
 815 1425 l 1,3,4
 769 1356 769 1356 656 1259.5 c 0,5,6
 543 1163 543 1163 460 1117 c 1,0,-1
149 113 m 2,7,-1
 131 981 l 1,8,-1
 368 1030 l 1,9,-1
 387 223 l 1,10,11
 426 209 426 209 463 209 c 0,12,13
 551 209 551 209 647 256 c 1,14,-1
 655 971 l 1,15,-1
 882 999 l 1,16,-1
 894 -126 l 2,17,18
 894 -178 894 -178 818 -231 c 0,19,20
 548 -422 548 -422 308 -549 c 1,21,-1
 186 -330 l 1,22,23
 516 -181 516 -181 678 -82 c 1,24,-1
 663 164 l 1,25,-1
 514 0 l 1,26,-1
 258 0 l 1,27,28
 228 3 228 3 188.5 35 c 0,29,30
 149 67 149 67 149 113 c 2,7,-1
EndSplineSet
EndChar

StartChar: ydieresis
Encoding: 255 255 209
Width: 1030
Flags: HMW
HStem: -549 21G<308 308> 0 209<444.5 480 444.5 514 258 480>
VStem: 149 228 308 145 593 233<1319.5 1363.5> 651 243
LayerCount: 2
Fore
SplineSet
242 1156 m 1,0,1
 226 1296 226 1296 201 1398 c 1,2,-1
 418 1453 l 1,3,4
 453 1395 453 1395 453 1293 c 0,5,6
 453 1191 453 1191 440 1167 c 1,7,-1
 242 1156 l 1,0,1
575 1177 m 1,8,9
 593 1254 593 1254 593 1322 c 0,10,11
 593 1390 593 1390 588 1427 c 1,12,-1
 811 1443 l 1,13,14
 826 1412 826 1412 826 1353.5 c 0,15,16
 826 1295 826 1295 811 1232 c 128,-1,17
 796 1169 796 1169 778 1142 c 1,18,-1
 575 1177 l 1,8,9
149 113 m 2,19,-1
 131 981 l 1,20,-1
 368 1030 l 1,21,-1
 387 223 l 1,22,23
 426 209 426 209 463 209 c 0,24,25
 551 209 551 209 647 256 c 1,26,-1
 655 971 l 1,27,-1
 882 999 l 1,28,-1
 894 -126 l 2,29,30
 894 -178 894 -178 818 -231 c 0,31,32
 548 -422 548 -422 308 -549 c 1,33,-1
 186 -330 l 1,34,35
 516 -181 516 -181 678 -82 c 1,36,-1
 663 164 l 1,37,-1
 514 0 l 1,38,-1
 258 0 l 1,39,40
 228 3 228 3 188.5 35 c 0,41,42
 149 67 149 67 149 113 c 2,19,-1
EndSplineSet
EndChar

StartChar: foundryicon
Encoding: 65540 -1 231
Width: 2106
Flags: HMW
HStem: -177 139<587.5 736> 36 248<1307.5 1380.5> 218 48<617 783 594.5 800.5> 624 27<902 974.5> 1064 241<466.5 869>
VStem: 103 155<230 366 230 434.5> 155 169<541.5 1067> 1127 37 1164 28<284 456> 1906 93<642.5 757.5>
LayerCount: 2
Fore
SplineSet
1099 1110 m 1,0,-1
 1344 1113 l 1,1,2
 1719.81896552 1113 1719.81896552 1113 1871.5 960 c 0,3,4
 1999 831.391304348 1999 831.391304348 1999 579 c 0,5,6
 1999 463.173913043 1999 463.173913043 1963.5 353.586956522 c 128,-1,7
 1928 244 1928 244 1892.5 177.5 c 128,-1,8
 1857 111 1857 111 1815 58.5 c 0,9,10
 1722.6 -57 1722.6 -57 1605 -57 c 0,11,12
 1561 -57 1561 -57 1472 -10.5 c 128,-1,13
 1383 36 1383 36 1315 36 c 128,-1,14
 1247 36 1247 36 1208 2 c 0,15,16
 1081 -106 1081 -106 946 -141.5 c 128,-1,17
 811 -177 811 -177 657 -177 c 128,-1,18
 503 -177 503 -177 378.5 -108 c 128,-1,19
 254 -39 254 -39 178.5 81 c 128,-1,20
 103 201 103 201 103 341 c 0,21,22
 103 438 103 438 151 498 c 0,23,24
 171 523 171 523 191.5 545 c 0,25,26
 240.539215686 597.62745098 240.539215686 597.62745098 243.269607843 646.81372549 c 128,-1,27
 246 696 246 696 233 737.5 c 128,-1,28
 220 779 220 779 202.5 808 c 0,29,30
 155 886.714285714 155 886.714285714 155 974.857142857 c 128,-1,31
 155 1063 155 1063 217.5 1141 c 128,-1,32
 280 1219 280 1219 373 1262 c 128,-1,33
 466 1305 466 1305 541.5 1305 c 128,-1,34
 617 1305 617 1305 669.5 1285 c 128,-1,35
 722 1265 722 1265 764 1236.5 c 128,-1,36
 806 1208 806 1208 849 1179 c 0,37,38
 951.310344828 1110 951.310344828 1110 1074 1110 c 2,39,-1
 1099 1110 l 1,0,-1
877 1023 m 1,40,41
 766 932.181818182 766 932.181818182 766 811 c 0,42,43
 766 746 766 746 811.5 698.5 c 128,-1,44
 857 651 857 651 936 651 c 128,-1,45
 1015 651 1015 651 1071 705.5 c 128,-1,46
 1127 760 1127 760 1127 839 c 2,47,-1
 1127 843 l 1,48,49
 1121.36228288 1006.49379653 1121.36228288 1006.49379653 909 1052 c 0,50,51
 853 1064 853 1064 778 1064 c 128,-1,52
 703 1064 703 1064 619.5 1034.5 c 128,-1,53
 536 1005 536 1005 470 952.5 c 128,-1,54
 404 900 404 900 364 819 c 128,-1,55
 324 738 324 738 324 643 c 0,56,57
 324 488 324 488 433 377 c 128,-1,58
 542 266 542 266 705 266 c 0,59,60
 830.821917808 266 830.821917808 266 924.5 336.5 c 0,61,62
 1028.88853109 415.060440921 1028.88853109 415.060440921 1039 591 c 1,63,-1
 1073 603 l 1,64,65
 1077 586 1077 586 1077 562 c 0,66,67
 1077 403 1077 403 967.5 310.5 c 128,-1,68
 858 218 858 218 717 218 c 128,-1,69
 576 218 576 218 471.5 282.5 c 128,-1,70
 367 347 367 347 305 458 c 1,71,-1
 270 446 l 1,72,73
 258 396 258 396 258 350 c 0,74,75
 258 234 258 234 320.5 144 c 128,-1,76
 383 54 383 54 484.5 8 c 128,-1,77
 586 -38 586 -38 700.5 -38 c 128,-1,78
 815 -38 815 -38 903 0 c 128,-1,79
 991 38 991 38 1047 101.5 c 0,80,81
 1164 234.169642857 1164 234.169642857 1164 416 c 0,82,83
 1164 545 1164 545 1106 654 c 1,84,85
 1043 624 1043 624 922.086956522 624 c 128,-1,86
 801.173913043 624 801.173913043 624 728 675 c 1,87,-1
 714 652 l 1,88,89
 726 630 726 630 752 611 c 1,90,91
 723 380 723 380 699 304 c 1,92,-1
 668 305 l 1,93,94
 656 336 656 336 656 423.5 c 128,-1,95
 656 511 656 511 662 584.5 c 128,-1,96
 668 658 668 658 685 742 c 0,97,98
 720.319180088 916.518301611 720.319180088 916.518301611 825 1037 c 1,99,100
 833 1037 833 1037 853 1032 c 128,-1,101
 873 1027 873 1027 877 1023 c 1,40,41
1726 897 m 0,102,103
 1526.64137931 897 1526.64137931 897 1475 609 c 1,104,-1
 1437 633 l 1,105,-1
 1526 865 l 1,106,-1
 1496 893 l 1,107,108
 1351 847 1351 847 1167 839 c 1,109,-1
 1164 829 l 1,110,111
 1187 798 1187 798 1237 770 c 1,112,-1
 1192 284 l 1,113,-1
 1470 284 l 1,114,115
 1471 295 1471 295 1475.5 355.5 c 0,116,117
 1486.41123596 502.195505618 1486.41123596 502.195505618 1505 585 c 0,118,119
 1535 722 1535 722 1610 780 c 1,120,-1
 1639 742 l 1,121,122
 1595 714 1595 714 1570.5 669.5 c 128,-1,123
 1546 625 1546 625 1546 577.5 c 128,-1,124
 1546 530 1546 530 1580 495 c 128,-1,125
 1614 460 1614 460 1682 456 c 1,126,127
 1780 456 1780 456 1843 531 c 128,-1,128
 1906 606 1906 606 1906 697 c 128,-1,129
 1906 788 1906 788 1858.5 842.5 c 128,-1,130
 1811 897 1811 897 1726 897 c 0,102,103
EndSplineSet
EndChar

StartChar: ldot
Encoding: 320 320 232
Width: 786
Flags: HMW
HStem: -18 21G<149 149>
VStem: 142 245
LayerCount: 2
Fore
SplineSet
149 -18 m 1,0,-1
 136 1427 l 1,1,-1
 384 1473 l 1,2,-1
 391 752 l 1,3,-1
 360 0 l 1,4,-1
 149 -18 l 1,0,-1
762 840 m 1,5,6
 773 799 773 799 773 689.884615385 c 128,-1,7
 773 580.769230769 773 580.769230769 743 530 c 1,8,-1
 514 553 l 1,9,10
 522 685 522 685 522 730 c 128,-1,11
 522 775 522 775 520 815 c 1,12,-1
 762 840 l 1,5,6
EndSplineSet
EndChar

StartChar: commaaccent
Encoding: 65542 -1 234
Width: 373
Flags: HW
LayerCount: 2
Fore
SplineSet
84 41 m 1,0,1
 128 157 128 157 131 260 c 1,2,-1
 57 270 l 1,3,-1
 39 459 l 1,4,-1
 297 516 l 1,5,6
 324 448 324 448 324 365 c 0,7,8
 324 172 324 172 213 31 c 1,9,-1
 84 41 l 1,0,1
EndSplineSet
EndChar

StartChar: Rcommaaccent
Encoding: 342 342 235
Width: 1116
Flags: HMW
HStem: -18 21G<205 205> 1301 20G<139 139>
VStem: 196 234
LayerCount: 2
Fore
SplineSet
205 -18 m 1,0,-1
 187 932 l 1,1,-1
 430 973 l 1,2,-1
 430 772 l 1,3,-1
 424 530 l 1,4,-1
 711 600 l 1,5,6
 772 794 772 794 772 950 c 0,7,8
 772 983 772 983 768 1012 c 1,9,10
 592 1066 592 1066 101 1085 c 1,11,-1
 139 1321 l 1,12,13
 305 1315 305 1315 523.5 1291.5 c 128,-1,14
 742 1268 742 1268 879 1239 c 0,15,16
 907 1233 907 1233 966 1159.5 c 128,-1,17
 1025 1086 1025 1086 1026.5 1054 c 0,18,19
 1028 1022 1028 1022 1028 945.5 c 0,20,21
 1028 869 1028 869 995 728.5 c 128,-1,22
 962 588 962 588 918 500 c 0,23,24
 899 464 899 464 862 444 c 1,25,-1
 764 412 l 1,26,27
 911 252 911 252 1034 63 c 1,28,-1
 826 -78 l 1,29,-1
 576 362 l 1,30,-1
 430 354 l 1,31,-1
 422 0 l 1,32,-1
 205 -18 l 1,0,-1
414 -176 m 1,33,-1
 672 -119 l 1,34,35
 699 -187 699 -187 699 -270 c 0,36,37
 699 -463 699 -463 588 -604 c 1,38,-1
 459 -594 l 1,39,40
 503 -478 503 -478 506 -375 c 1,41,-1
 432 -365 l 1,42,-1
 414 -176 l 1,33,-1
EndSplineSet
EndChar

StartChar: Euro
Encoding: 8364 8364 236
Width: 956
Flags: HMW
HStem: 279 153 522 152
VStem: 199 233
LayerCount: 2
Fore
SplineSet
721 280 m 1,0,-1
 650 279 l 1,1,2
 526 279 526 279 432 284 c 1,3,4
 435 201 435 201 440 167 c 1,5,-1
 833 92 l 1,6,-1
 774 -123 l 1,7,8
 651 -103 651 -103 491 -68 c 128,-1,9
 331 -33 331 -33 280 -13 c 1,10,11
 226 5 226 5 215.5 73 c 128,-1,12
 205 141 205 141 199 301 c 1,13,14
 125 308 125 308 66 321 c 1,15,-1
 87 448 l 1,16,17
 134 442 134 442 196 439 c 1,18,-1
 196 442 l 2,19,20
 196 502 196 502 197 533 c 1,21,22
 128 540 128 540 85 549 c 1,23,-1
 100 682 l 1,24,25
 146 678 146 678 205 676 c 1,26,27
 223.778354742 906.973763323 223.778354742 906.973763323 253.5 943 c 0,28,29
 270 963 270 963 339 983.5 c 128,-1,30
 408 1004 408 1004 784 1058 c 1,31,-1
 819 833 l 1,32,33
 518 800 518 800 455 784 c 1,34,35
 448 755 448 755 441 674 c 1,36,37
 592 676 592 676 736 682 c 1,38,-1
 720 528 l 1,39,40
 611 522 611 522 479 522 c 2,41,-1
 432 522 l 1,42,43
 430 490 430 490 430 444 c 2,44,-1
 430 432 l 1,45,46
 487 431 487 431 599 431 c 128,-1,47
 711 431 711 431 741 432 c 1,48,-1
 721 280 l 1,0,-1
EndSplineSet
EndChar

StartChar: kcommaaccent
Encoding: 311 311 237
Width: 991
Flags: HMW
HStem: -8 21G<145 145>
VStem: 143 242
LayerCount: 2
Fore
SplineSet
930 903 m 1,0,1
 829.943661972 752.915492958 829.943661972 752.915492958 596 553 c 1,2,3
 653 502 653 502 789.5 340.5 c 128,-1,4
 926 179 926 179 983 74 c 1,5,-1
 786 -66 l 1,6,7
 549 289 549 289 442 453 c 1,8,-1
 373 420 l 1,9,-1
 356 8 l 1,10,-1
 145 -8 l 1,11,-1
 141 1427 l 1,12,-1
 383 1473 l 1,13,-1
 387 812 l 1,14,-1
 381 611 l 1,15,-1
 415 604 l 1,16,-1
 753 1040 l 1,17,-1
 930 903 l 1,0,1
389 -176 m 1,18,-1
 647 -119 l 1,19,20
 674 -187 674 -187 674 -270 c 0,21,22
 674 -463 674 -463 563 -604 c 1,23,-1
 434 -594 l 1,24,25
 478 -478 478 -478 481 -375 c 1,26,-1
 407 -365 l 1,27,-1
 389 -176 l 1,18,-1
EndSplineSet
EndChar

StartChar: itilde
Encoding: 297 297 240
Width: 596
Flags: HMW
HStem: -18 21G<186 186> 0 21G<399 399> 1132 219<407.5 427 407.5 457>
VStem: 176 234
LayerCount: 2
Fore
SplineSet
33 1152 m 1,0,-1
 -31 1244 l 1,1,2
 9 1305 9 1305 83.5 1373 c 128,-1,3
 158 1441 158 1441 198 1441 c 128,-1,4
 238 1441 238 1441 325 1396 c 128,-1,5
 412 1351 412 1351 422.5 1351 c 128,-1,6
 433 1351 433 1351 577 1453 c 1,7,-1
 653 1359 l 1,8,9
 545.784 1198.176 545.784 1198.176 479.5 1155.5 c 0,10,11
 443 1132 443 1132 411 1132 c 128,-1,12
 379 1132 379 1132 331 1155 c 128,-1,13
 283 1178 283 1178 245 1201 c 128,-1,14
 207 1224 207 1224 199.5 1224 c 128,-1,15
 192 1224 192 1224 33 1152 c 1,0,-1
186 -18 m 1,16,-1
 166 969 l 1,17,-1
 420 1001 l 1,18,19
 425 911 425 911 425 834.5 c 128,-1,20
 425 758 425 758 422 664 c 2,21,-1
 399 0 l 1,22,-1
 186 -18 l 1,16,-1
EndSplineSet
EndChar

StartChar: kgreenlandic
Encoding: 312 312 242
Width: 991
Flags: HMW
HStem: -8 21G<145 145>
VStem: 143 242
LayerCount: 2
Fore
SplineSet
145 -8 m 1,0,-1
 141 995 l 1,1,-1
 383 1040 l 1,2,-1
 387 752 l 1,3,-1
 381 611 l 1,4,-1
 415 604 l 1,5,-1
 753 1040 l 1,6,-1
 925 907 l 1,7,8
 855 801 855 801 780.5 724 c 0,9,10
 706 647 706 647 596 553 c 1,11,12
 653 502 653 502 789.5 340.5 c 128,-1,13
 926 179 926 179 983 74 c 1,14,-1
 788 -68 l 1,15,16
 549 289 549 289 442 453 c 1,17,-1
 373 420 l 1,18,-1
 356 8 l 1,19,-1
 145 -8 l 1,0,-1
291 381 m 1,20,-1
 292 381 l 1,21,-1
 291 381 l 1,20,-1
EndSplineSet
EndChar

StartChar: IJ
Encoding: 306 306 243
Width: 1464
Flags: HMW
HStem: 1068 192
VStem: 291 250 1065 252
LayerCount: 2
Fore
SplineSet
1321 1100 m 2,0,-1
 1317 453 l 1,1,-1
 1317 262 l 2,2,3
 1317 201.166666667 1317 201.166666667 1279 160 c 0,4,5
 1144.59162304 14.3909249564 1144.59162304 14.3909249564 917 -98 c 1,6,-1
 786 94 l 1,7,8
 789 96 789 96 838 126 c 128,-1,9
 887 156 887 156 911 171 c 128,-1,10
 935 186 935 186 976 213 c 0,11,12
 1055.07142857 265.071428571 1055.07142857 265.071428571 1089 299 c 1,13,-1
 1065 711 l 1,14,-1
 1065 1063 l 1,15,-1
 821 1090 l 1,16,-1
 858 1315 l 1,17,18
 1146.4902687 1277.60311332 1146.4902687 1277.60311332 1216.20594218 1260.76634796 c 128,-1,19
 1285.92161565 1243.9295826 1285.92161565 1243.9295826 1315 1235 c 1,20,21
 1321 1195 1321 1195 1321 1100 c 2,0,-1
86 29 m 1,22,-1
 119 221 l 1,23,24
 190 206 190 206 302 191 c 1,25,-1
 281 1063 l 1,26,-1
 98 1073 l 1,27,-1
 90 1260 l 1,28,29
 489 1273 489 1273 696 1298 c 1,30,-1
 704 1102 l 1,31,-1
 541 1073 l 1,32,-1
 543 653 l 1,33,-1
 513 169 l 1,34,35
 606 160 606 160 692 156 c 1,36,-1
 661 -61 l 1,37,38
 305.686635945 -42.7788018433 305.686635945 -42.7788018433 86 29 c 1,22,-1
EndSplineSet
EndChar

StartChar: hbar
Encoding: 295 295 244
Width: 1012
Flags: HMW
HStem: 0 21G<153 153> 764 219<544 563 563 633> 1093 154<378 380> 1097 145<130 130>
VStem: 130 252 135 241 153 224 645 248<555 733.5>
LayerCount: 2
Fore
SplineSet
153 0 m 1,0,1
 150 385 150 385 135 698 c 1,2,3
 130 875 130 875 130 1040 c 2,4,-1
 130 1097 l 1,5,6
 35 1104 35 1104 -2 1110 c 1,7,-1
 10 1245 l 1,8,9
 69 1242 69 1242 131 1242 c 1,10,11
 133 1364 133 1364 135 1425 c 1,12,-1
 374 1475 l 1,13,-1
 378 1247 l 1,14,15
 559 1254 559 1254 721 1266 c 1,16,-1
 702 1102 l 1,17,18
 636 1095 636 1095 380 1093 c 1,19,-1
 385 842 l 1,20,-1
 544 983 l 1,21,-1
 766 983 l 2,22,23
 802 983 802 983 846 943.5 c 128,-1,24
 890 904 890 904 891.5 858.5 c 128,-1,25
 893 813 893 813 893 702.5 c 128,-1,26
 893 592 893 592 889 516 c 2,27,-1
 858 -35 l 1,28,-1
 636 -72 l 1,29,-1
 645 555 l 1,30,31
 645 694 645 694 633 764 c 1,32,-1
 563 764 l 2,33,34
 484.473684211 764 484.473684211 764 385 719 c 1,35,-1
 370 12 l 1,36,-1
 153 0 l 1,0,1
EndSplineSet
EndChar

StartChar: nacute
Encoding: 324 324 245
Width: 1024
Flags: HMW
HStem: -20 21G<659 659> -8 21G<155 155> -2 21G<882 882> 756 227<597.5 620>
VStem: 146 235 657 260
LayerCount: 2
Fore
SplineSet
456 1117 m 1,0,-1
 348 1220 l 1,1,-1
 637 1589 l 1,2,-1
 811 1425 l 1,3,4
 765 1356 765 1356 652 1259.5 c 128,-1,5
 539 1163 539 1163 456 1117 c 1,0,-1
155 -8 m 1,6,-1
 137 956 l 1,7,-1
 350 983 l 1,8,-1
 385 831 l 1,9,-1
 561 983 l 1,10,-1
 807 983 l 2,11,12
 828 983 828 983 872.5 945 c 128,-1,13
 917 907 917 907 917 870 c 1,14,-1
 882 -2 l 1,15,-1
 659 -20 l 1,16,-1
 655 752 l 1,17,18
 639 756 639 756 613.5 756 c 0,19,20
 542.636363636 756 542.636363636 756 469 729 c 2,21,-1
 395 702 l 1,22,-1
 368 8 l 1,23,-1
 155 -8 l 1,6,-1
EndSplineSet
EndChar

StartChar: jcircumflex
Encoding: 309 309 246
Width: 549
Flags: HMW
HStem: -569 2104<65 348>
VStem: 145 238
LayerCount: 2
Fore
SplineSet
43 1134 m 1,0,-1
 -66 1232 l 1,1,-1
 158 1529 l 1,2,-1
 348 1535 l 1,3,-1
 579 1230 l 1,4,-1
 455 1134 l 1,5,6
 337 1229 337 1229 246 1316 c 1,7,8
 152 1213 152 1213 43 1134 c 1,0,-1
155 -182 m 1,9,-1
 135 967 l 1,10,-1
 387 999 l 1,11,12
 392 909 392 909 392 833.5 c 0,13,14
 392 758 392 758 389 664 c 1,15,-1
 377 -207 l 1,16,17
 371 -304 371 -304 293 -371 c 2,18,-1
 65 -569 l 1,19,-1
 -92 -393 l 1,20,-1
 155 -182 l 1,9,-1
EndSplineSet
EndChar

StartChar: rcommaaccent
Encoding: 343 343 247
Width: 702
Flags: HMW
HStem: -8 21G<153 153>
VStem: 145 241
LayerCount: 2
Fore
SplineSet
153 -8 m 1,0,-1
 137 776 l 1,1,-1
 135 961 l 1,2,-1
 348 983 l 1,3,-1
 383 831 l 1,4,-1
 536 999 l 1,5,-1
 655 999 l 1,6,-1
 705 765 l 1,7,8
 566.25 737.25 566.25 737.25 393 696 c 1,9,-1
 379 12 l 1,10,-1
 153 -8 l 1,0,-1
141 -190 m 1,11,-1
 399 -133 l 1,12,13
 426 -200 426 -200 426 -284 c 0,14,15
 426 -477 426 -477 315 -618 c 1,16,-1
 186 -608 l 1,17,18
 230 -492 230 -492 233 -389 c 1,19,-1
 159 -379 l 1,20,-1
 141 -190 l 1,11,-1
EndSplineSet
EndChar

StartChar: rcaron
Encoding: 345 345 248
Width: 702
Flags: HMW
HStem: -8 21G<153 153> 1299 20G
VStem: 145 241
LayerCount: 2
Fore
SplineSet
297 1104 m 1,0,-1
 65 1409 l 1,1,-1
 190 1505 l 1,2,3
 280 1432 280 1432 399 1319 c 1,4,5
 504 1434 504 1434 602 1505 c 1,6,-1
 708 1409 l 1,7,-1
 479 1122 l 1,8,-1
 297 1104 l 1,0,-1
153 -8 m 1,9,-1
 137 776 l 1,10,-1
 135 961 l 1,11,-1
 348 983 l 1,12,-1
 383 831 l 1,13,-1
 536 999 l 1,14,-1
 655 999 l 1,15,-1
 705 765 l 1,16,17
 566.25 737.25 566.25 737.25 393 696 c 1,18,-1
 379 12 l 1,19,-1
 153 -8 l 1,9,-1
EndSplineSet
EndChar

StartChar: tilde.cap
Encoding: 65543 -1 249
Width: 797
Flags: HW
LayerCount: 2
Fore
SplineSet
97 1501 m 1,0,-1
 33 1593 l 1,1,2
 72 1653 72 1653 157 1728.5 c 128,-1,3
 242 1804 242 1804 277.5 1804 c 128,-1,4
 313 1804 313 1804 362.5 1778.5 c 128,-1,5
 412 1753 412 1753 453.5 1727.5 c 128,-1,6
 495 1702 495 1702 511.5 1702 c 128,-1,7
 528 1702 528 1702 682 1811 c 1,8,-1
 758 1717 l 1,9,10
 660.812 1568.904 660.812 1568.904 567.5 1509 c 0,11,12
 527 1483 527 1483 495 1483 c 128,-1,13
 463 1483 463 1483 415 1506 c 128,-1,14
 367 1529 367 1529 329 1552 c 128,-1,15
 291 1575 291 1575 276 1575 c 128,-1,16
 261 1575 261 1575 97 1501 c 1,0,-1
EndSplineSet
EndChar

StartChar: ring.cap
Encoding: 65544 -1 250
Width: 672
Flags: HMW
HStem: 1363 160<309.5 353.5 309.5 406.5> 1660 154<319.5 361.5>
VStem: 106 165 405 160
LayerCount: 2
Fore
SplineSet
502.5 1432.5 m 128,-1,1
 440 1363 440 1363 337 1363 c 128,-1,2
 234 1363 234 1363 170 1430 c 128,-1,3
 106 1497 106 1497 106 1601.5 c 128,-1,4
 106 1706 106 1706 171 1760 c 128,-1,5
 236 1814 236 1814 338 1814 c 128,-1,6
 440 1814 440 1814 502.5 1762.5 c 128,-1,7
 565 1711 565 1711 565 1606.5 c 128,-1,0
 565 1502 565 1502 502.5 1432.5 c 128,-1,1
333 1523 m 0,8,9
 392 1523 392 1523 405 1591 c 1,10,11
 410 1660 410 1660 339 1660 c 0,12,13
 306 1660 306 1660 285.5 1643.5 c 128,-1,14
 265 1627 265 1627 270 1593.5 c 128,-1,15
 275 1560 275 1560 288 1541.5 c 128,-1,16
 301 1523 301 1523 333 1523 c 0,8,9
EndSplineSet
EndChar

StartChar: acute.cap
Encoding: 65545 -1 251
Width: 543
Flags: HMW
HStem: 1396 424<96 369>
VStem: 16 502<1519 1634>
LayerCount: 2
Fore
SplineSet
96 1396 m 1,0,-1
 16 1519 l 1,1,-1
 369 1820 l 1,2,-1
 518 1634 l 1,3,4
 465 1569 465 1569 333 1494 c 128,-1,5
 201 1419 201 1419 96 1396 c 1,0,-1
EndSplineSet
EndChar

StartChar: Nacute
Encoding: 323 323 252
Width: 1345
Flags: HMW
HStem: -18 21G<168 168 753 753>
VStem: 168 224 968 201
LayerCount: 2
Fore
SplineSet
630 1396 m 1,0,-1
 550 1519 l 1,1,-1
 903 1820 l 1,2,-1
 1052 1634 l 1,3,4
 999 1569 999 1569 867 1494 c 128,-1,5
 735 1419 735 1419 630 1396 c 1,0,-1
168 -18 m 1,6,-1
 168 110 l 2,7,8
 168 393 168 393 177 780 c 1,9,-1
 158 1227 l 1,10,11
 441 1286 441 1286 592 1294 c 1,12,-1
 856 459 l 1,13,-1
 917 172 l 1,14,-1
 975 178 l 1,15,-1
 962 500 l 1,16,-1
 971 1278 l 1,17,-1
 1227 1300 l 1,18,19
 1218 985 1218 985 1177 518 c 1,20,-1
 1162 27 l 1,21,22
 1008.87070151 -3.12379642366 1008.87070151 -3.12379642366 753 -18 c 1,23,-1
 489 827 l 1,24,-1
 430 1091 l 1,25,-1
 377 1083 l 1,26,-1
 387 782 l 1,27,-1
 397 2 l 1,28,-1
 168 -18 l 1,6,-1
EndSplineSet
EndChar

StartChar: Racute
Encoding: 340 340 253
Width: 1116
Flags: HMW
HStem: -18 21G<205 205> 0 21G<422 422> 1301 20G<139 139>
VStem: 196 234
LayerCount: 2
Fore
SplineSet
460 1396 m 1,0,-1
 380 1519 l 1,1,-1
 733 1820 l 1,2,-1
 882 1634 l 1,3,4
 829 1569 829 1569 697 1494 c 128,-1,5
 565 1419 565 1419 460 1396 c 1,0,-1
205 -18 m 1,6,-1
 187 932 l 1,7,-1
 430 973 l 1,8,-1
 430 772 l 1,9,-1
 424 530 l 1,10,-1
 711 600 l 1,11,12
 772 794 772 794 772 950 c 0,13,14
 772 983 772 983 768 1012 c 1,15,16
 592 1066 592 1066 101 1085 c 1,17,-1
 139 1321 l 1,18,19
 305 1315 305 1315 523.5 1291.5 c 128,-1,20
 742 1268 742 1268 879 1239 c 0,21,22
 907 1233 907 1233 966 1159.5 c 128,-1,23
 1025 1086 1025 1086 1026.5 1054 c 0,24,25
 1028 1022 1028 1022 1028 945.5 c 0,26,27
 1028 869 1028 869 995 728.5 c 128,-1,28
 962 588 962 588 918 500 c 0,29,30
 899 464 899 464 862 444 c 1,31,-1
 764 412 l 1,32,33
 911 252 911 252 1034 63 c 1,34,-1
 826 -78 l 1,35,-1
 576 362 l 1,36,-1
 430 354 l 1,37,-1
 422 0 l 1,38,-1
 205 -18 l 1,6,-1
EndSplineSet
EndChar

StartChar: grave.cap
Encoding: 65546 -1 254
Width: 543
Flags: HMW
HStem: 1404 416<174 438>
VStem: 10 508<1527 1646>
LayerCount: 2
Fore
SplineSet
438 1404 m 1,0,1
 333 1427 333 1427 198 1504 c 128,-1,2
 63 1581 63 1581 10 1646 c 1,3,-1
 174 1820 l 1,4,-1
 518 1527 l 1,5,-1
 438 1404 l 1,0,1
EndSplineSet
EndChar

StartChar: dieresis.cap
Encoding: 65547 -1 255
Width: 698
Flags: HMW
HStem: 1463 311
VStem: 18 642<1634.5 1719>
LayerCount: 2
Fore
SplineSet
59 1477 m 1,0,1
 44 1619 44 1619 18 1719 c 1,2,-1
 235 1774 l 1,3,4
 270 1716 270 1716 270 1613 c 0,5,6
 270 1510 270 1510 258 1488 c 1,7,-1
 59 1477 l 1,0,1
410 1498 m 1,8,9
 427 1571 427 1571 427 1640.5 c 0,10,11
 427 1710 427 1710 422 1748 c 1,12,-1
 645 1764 l 1,13,14
 660 1733 660 1733 660 1674.5 c 0,15,16
 660 1616 660 1616 645 1553 c 128,-1,17
 630 1490 630 1490 612 1463 c 1,18,-1
 410 1498 l 1,8,9
EndSplineSet
EndChar

StartChar: circumflex.cap
Encoding: 65548 -1 256
Width: 684
Flags: HMW
HStem: 1418 401
VStem: 20 645<1515 1517>
LayerCount: 2
Fore
SplineSet
129 1419 m 1,0,-1
 20 1517 l 1,1,-1
 244 1814 l 1,2,-1
 434 1820 l 1,3,-1
 665 1515 l 1,4,-1
 541 1419 l 1,5,6
 423 1514 423 1514 332 1601 c 1,7,8
 238 1498 238 1498 129 1419 c 1,0,-1
EndSplineSet
EndChar

StartChar: Jcircumflex
Encoding: 308 308 257
Width: 704
Flags: HMW
HStem: -248 2047<158 430>
VStem: 305 252
LayerCount: 2
Fore
SplineSet
125 1398 m 1,0,-1
 16 1496 l 1,1,-1
 240 1793 l 1,2,-1
 430 1799 l 1,3,-1
 661 1494 l 1,4,-1
 537 1398 l 1,5,6
 419 1493 419 1493 328 1580 c 1,7,8
 234 1477 234 1477 125 1398 c 1,0,-1
26 -55 m 1,9,10
 96 -18 96 -18 187 42 c 128,-1,11
 278 102 278 102 319 143 c 1,12,-1
 305 711 l 1,13,-1
 305 1063 l 1,14,-1
 61 1090 l 1,15,-1
 98 1315 l 1,16,17
 165 1308.3 165 1308.3 226 1299.15 c 128,-1,18
 287 1290 287 1290 344 1282 c 128,-1,19
 401 1274 401 1274 429.5 1268 c 0,20,21
 523.489361702 1248.21276596 523.489361702 1248.21276596 569 1235 c 1,22,-1
 545 113 l 2,23,24
 544 67 544 67 525.5 38 c 128,-1,25
 507 9 507 9 463 -33.5 c 128,-1,26
 419 -76 419 -76 324 -144.5 c 128,-1,27
 229 -213 229 -213 158 -248 c 1,28,-1
 26 -55 l 1,9,10
EndSplineSet
EndChar

StartChar: caron.cap
Encoding: 65549 -1 258
Width: 672
Flags: HMW
HStem: 1439 401
VStem: 14 643
LayerCount: 2
Fore
SplineSet
129 1820 m 1,0,1
 290.333333333 1692.63157895 290.333333333 1692.63157895 348 1638 c 1,2,3
 422 1719 422 1719 561 1820 c 1,4,-1
 667 1724 l 1,5,-1
 428 1447 l 1,6,-1
 246 1429 l 1,7,-1
 4 1724 l 1,8,-1
 129 1820 l 1,0,1
EndSplineSet
EndChar

